<svg xmlns="http://www.w3.org/2000/svg" xmlns:xlink="http://www.w3.org/1999/xlink" fill="none" version="1.1" width="24" height="24" viewBox="0 0 24 24"><defs><clipPath id="master_svg0_3_1601"><rect x="0" y="0" width="24" height="24" rx="0"/></clipPath></defs><g style="mix-blend-mode:passthrough" clip-path="url(#master_svg0_3_1601)"><g style="mix-blend-mode:passthrough"><path d="M12,4C12.55228,4,13,4.447715,13,5C13,5,13,11,13,11C13,11,19,11,19,11C19.552300000000002,11,20,11.44772,20,12C20,12.55228,19.552300000000002,13,19,13C19,13,13,13,13,13C13,13,13,19,13,19C13,19.552300000000002,12.55228,20,12,20C11.44772,20,11,19.552300000000002,11,19C11,19,11,13,11,13C11,13,5,13,5,13C4.447715,13,4,12.55228,4,12C4,11.44772,4.447715,11,5,11C5,11,11,11,11,11C11,11,11,5,11,5C11,4.447715,11.44772,4,12,4C12,4,12,4,12,4Z" fill-rule="evenodd" fill="#000000" fill-opacity="1"/></g></g></svg>