<svg xmlns="http://www.w3.org/2000/svg" xmlns:xlink="http://www.w3.org/1999/xlink" fill="none" version="1.1" width="34" height="34" viewBox="0 0 34 34"><defs><clipPath id="master_svg0_3_1753"><rect x="0" y="0" width="34" height="34" rx="0"/></clipPath></defs><g style="mix-blend-mode:passthrough" clip-path="url(#master_svg0_3_1753)"><g style="mix-blend-mode:passthrough"><path d="M4.0781740234375,4.078132061767578C4.8752040234375,3.2810980617675782,5.9562040234375,2.833332061767578,7.0833740234375,2.833332061767578C7.0833740234375,2.833332061767578,26.9166740234375,2.833332061767578,26.9166740234375,2.833332061767578C28.0439740234375,2.833332061767578,29.1248740234375,3.2810980617675782,29.9218740234375,4.078132061767578C30.7188740234375,4.875162061767578,31.1666740234375,5.956162061767579,31.1666740234375,7.083332061767578C31.1666740234375,7.083332061767578,31.1666740234375,26.91663206176758,31.1666740234375,26.91663206176758C31.1666740234375,28.043932061767578,30.7188740234375,29.124832061767577,29.9218740234375,29.921832061767578C29.1248740234375,30.71883206176758,28.0439740234375,31.16663206176758,26.9166740234375,31.16663206176758C26.9166740234375,31.16663206176758,7.0833740234375,31.16663206176758,7.0833740234375,31.16663206176758C5.9562040234375,31.16663206176758,4.8752040234375,30.71883206176758,4.0781740234375,29.921832061767578C3.2811400234375,29.124832061767577,2.8333740234375,28.043932061767578,2.8333740234375,26.91663206176758C2.8333740234375,26.91663206176758,2.8333740234375,7.083332061767578,2.8333740234375,7.083332061767578C2.8333740234375,5.956162061767579,3.2811400234375,4.875162061767578,4.0781740234375,4.078132061767578C4.0781740234375,4.078132061767578,4.0781740234375,4.078132061767578,4.0781740234375,4.078132061767578ZM18.4166740234375,28.333332061767578C18.4166740234375,28.333332061767578,26.9166740234375,28.333332061767578,26.9166740234375,28.333332061767578C27.2923740234375,28.333332061767578,27.6527740234375,28.184032061767578,27.9184740234375,27.91843206176758C28.1840740234375,27.65273206176758,28.3333740234375,27.292332061767578,28.3333740234375,26.91663206176758C28.3333740234375,26.91663206176758,28.3333740234375,7.083332061767578,28.3333740234375,7.083332061767578C28.3333740234375,6.707602061767578,28.1840740234375,6.347272061767578,27.9184740234375,6.081592061767578C27.6527740234375,5.815922061767578,27.2923740234375,5.666662061767578,26.9166740234375,5.666662061767578C26.9166740234375,5.666662061767578,18.4166740234375,5.666662061767578,18.4166740234375,5.666662061767578C18.4166740234375,5.666662061767578,18.4166740234375,28.333332061767578,18.4166740234375,28.333332061767578C18.4166740234375,28.333332061767578,18.4166740234375,28.333332061767578,18.4166740234375,28.333332061767578ZM15.5833740234375,5.666662061767578C15.5833740234375,5.666662061767578,15.5833740234375,28.333332061767578,15.5833740234375,28.333332061767578C15.5833740234375,28.333332061767578,7.0833740234375,28.333332061767578,7.0833740234375,28.333332061767578C6.7076440234375,28.333332061767578,6.3473140234375,28.184032061767578,6.0816340234375,27.91843206176758C5.8159640234375,27.65273206176758,5.6667040234375,27.292332061767578,5.6667040234375,26.91663206176758C5.6667040234375,26.91663206176758,5.6667040234375,7.083332061767578,5.6667040234375,7.083332061767578C5.6667040234375,6.707602061767578,5.8159640234375,6.347272061767578,6.0816340234375,6.081592061767578C6.3473140234375,5.815922061767578,6.7076440234375,5.666662061767578,7.0833740234375,5.666662061767578C7.0833740234375,5.666662061767578,15.5833740234375,5.666662061767578,15.5833740234375,5.666662061767578C15.5833740234375,5.666662061767578,15.5833740234375,5.666662061767578,15.5833740234375,5.666662061767578Z" fill-rule="evenodd" fill="#000000" fill-opacity="1"/></g></g></svg>