<svg xmlns="http://www.w3.org/2000/svg" xmlns:xlink="http://www.w3.org/1999/xlink" fill="none" version="1.1" width="34" height="34" viewBox="0 0 34 34"><defs><clipPath id="master_svg0_3_1678"><rect x="0" y="0" width="34" height="34" rx="0"/></clipPath></defs><g style="mix-blend-mode:passthrough" clip-path="url(#master_svg0_3_1678)"><g style="mix-blend-mode:passthrough"><path d="M23.08161298828125,0.414932C23.63481298828125,-0.138311,24.53181298828125,-0.138311,25.08501298828125,0.414932C25.08501298828125,0.414932,30.75171298828125,6.08159,30.75171298828125,6.08159C31.30491298828125,6.63485,31.30491298828125,7.53182,30.75171298828125,8.08507C30.75171298828125,8.08507,25.08501298828125,13.7517,25.08501298828125,13.7517C24.53181298828125,14.3049,23.63481298828125,14.3049,23.08161298828125,13.7517C22.52841298828125,13.1985,22.52841298828125,12.3015,23.08161298828125,11.7483C23.08161298828125,11.7483,26.32981298828125,8.5,26.32981298828125,8.5C26.32981298828125,8.5,9.91664298828125,8.5,9.91664298828125,8.5C8.78947298828125,8.5,7.70847298828125,8.94777,6.91144298828125,9.7448C6.11441298828125,10.5418,5.66664298828125,11.6228,5.66664298828125,12.75C5.66664298828125,12.75,5.66664298828125,15.5833,5.66664298828125,15.5833C5.66664298828125,16.3658,5.032372988281249,17,4.24998298828125,17C3.46757598828125,17,2.83331300939125,16.3658,2.83331300939125,15.5833C2.83331300939125,15.5833,2.83331300939125,12.75,2.83331300939125,12.75C2.83331300939125,10.8714,3.57958998828125,9.06971,4.907982988281249,7.74133C6.23636298828125,6.41294,8.03803298828125,5.66667,9.91664298828125,5.66667C9.91664298828125,5.66667,26.32981298828125,5.66667,26.32981298828125,5.66667C26.32981298828125,5.66667,23.08161298828125,2.41841,23.08161298828125,2.41841C22.52841298828125,1.86515,22.52841298828125,0.968174,23.08161298828125,0.414932C23.08161298828125,0.414932,23.08161298828125,0.414932,23.08161298828125,0.414932ZM28.33331298828125,21.25C28.33331298828125,21.25,28.33331298828125,18.4167,28.33331298828125,18.4167C28.33331298828125,17.6342,28.96751298828125,17,29.75001298828125,17C30.53241298828125,17,31.16661298828125,17.6342,31.16661298828125,18.4167C31.16661298828125,18.4167,31.16661298828125,21.25,31.16661298828125,21.25C31.16661298828125,23.1286,30.42031298828125,24.9304,29.09191298828125,26.2586C27.76371298828125,27.587,25.96191298828125,28.3333,24.08331298828125,28.3333C24.08331298828125,28.3333,7.67011298828125,28.3333,7.67011298828125,28.3333C7.67011298828125,28.3333,10.91838298828125,31.5816,10.91838298828125,31.5816C11.47162298828125,32.1348,11.47162298828125,33.0318,10.91838298828125,33.5851C10.36513298828125,34.1383,9.46816298828125,34.1383,8.91490298828125,33.5851C8.91490298828125,33.5851,3.24824498828125,27.9184,3.24824498828125,27.9184C2.69500198828125,27.3652,2.69500198828125,26.4681,3.24824498828125,25.9149C3.24824498828125,25.9149,8.91490298828125,20.2483,8.91490298828125,20.2483C9.46816298828125,19.6951,10.36513298828125,19.6951,10.91838298828125,20.2483C11.47162298828125,20.8015,11.47162298828125,21.6985,10.91838298828125,22.2517C10.91838298828125,22.2517,7.67011298828125,25.5,7.67011298828125,25.5C7.67011298828125,25.5,24.08331298828125,25.5,24.08331298828125,25.5C25.21041298828125,25.5,26.29151298828125,25.0522,27.08851298828125,24.2552C27.88551298828125,23.4582,28.33331298828125,22.3771,28.33331298828125,21.25C28.33331298828125,21.25,28.33331298828125,21.25,28.33331298828125,21.25Z" fill-rule="evenodd" fill="#000000" fill-opacity="1"/></g></g></svg>