<svg xmlns="http://www.w3.org/2000/svg" xmlns:xlink="http://www.w3.org/1999/xlink" fill="none" version="1.1" width="30" height="30" viewBox="0 0 30 30"><defs><clipPath id="master_svg0_1_00509"><rect x="0" y="0" width="30" height="30" rx="0"/></clipPath></defs><g style="mix-blend-mode:passthrough" clip-path="url(#master_svg0_1_00509)"><g style="mix-blend-mode:passthrough"><path d="M24.98119482421875,0.6335179859375C25.08409482421875,0.6484542859375,25.17129482421875,0.6676690859375,25.24289482421875,0.6889039859375C25.59919482421875,0.7945805859375,25.89009482421875,1.0533065859375,26.03639482421875,1.3948835859375C26.66099482421875,2.8520655859375,26.80989482421875,4.4591855859375,26.47779482421875,5.9911155859375C26.47779482421875,5.9911155859375,26.39989482421875,6.3100655859375,26.39989482421875,6.3100655859375C26.39989482421875,6.3100655859375,26.59969482421875,6.5736255859375,26.59969482421875,6.5736255859375C27.51519482421875,7.8404355859375,28.04529482421875,9.3516755859375,28.11669482421875,10.9235755859375C28.11669482421875,10.9235755859375,28.12489482421875,11.2872755859375,28.12489482421875,11.2872755859375C28.12489482421875,16.9434755859375,25.66629482421875,19.7895755859375,21.23519482421875,20.8846755859375C21.23519482421875,20.8846755859375,20.87989482421875,20.9663755859375,20.87989482421875,20.9663755859375C20.87989482421875,20.9663755859375,20.93979482421875,21.1184755859375,20.93979482421875,21.1184755859375C21.16499482421875,21.7437755859375,21.27379482421875,22.4038755859375,21.26459482421875,23.0046755859375C21.26459482421875,23.0046755859375,21.24989482421875,23.2998755859375,21.24989482421875,23.2998755859375C21.24989482421875,23.2998755859375,21.24989482421875,28.1373755859375,21.24989482421875,28.1373755859375C21.24989482421875,28.8276755859375,20.69029482421875,29.3873755859375,19.99989482421875,29.3873755859375C19.35889482421875,29.3873755859375,18.83059482421875,28.9048755859375,18.75849482421875,28.2830755859375C18.75849482421875,28.2830755859375,18.74989482421875,28.1373755859375,18.74989482421875,28.1373755859375C18.74989482421875,28.1373755859375,18.75379482421875,23.2018755859375,18.75379482421875,23.2018755859375C18.78679482421875,22.7825755859375,18.73019482421875,22.3611755859375,18.58769482421875,21.9655755859375C18.47369482421875,21.6490755859375,18.30689482421875,21.3549755859375,18.09479482421875,21.0954755859375C18.09479482421875,21.0954755859375,17.92739482421875,20.9073755859375,17.92739482421875,20.9073755859375C17.20429482421875,20.1614755859375,17.65389482421875,18.9100755859375,18.68659482421875,18.7950755859375C23.39759482421875,18.2699755859375,25.62489482421875,16.3969755859375,25.62489482421875,11.2875755859375C25.62469482421875,9.8630855859375,25.07679482421875,8.4933155859375,24.09469482421875,7.4616955859375C23.76479482421875,7.1152355859375,23.66159482421875,6.6108855859375,23.82899482421875,6.1627155859375C24.18079482421875,5.2199355859375,24.24279482421875,4.2006955859375,24.01819482421875,3.2331255859375C24.01819482421875,3.2331255859375,24.00119482421875,3.1713155859375,24.00119482421875,3.1713155859375C24.00119482421875,3.1713155859375,23.88329482421875,3.2006255859375,23.88329482421875,3.2006255859375C23.88329482421875,3.2006255859375,23.71459482421875,3.2464555859375,23.71459482421875,3.2464555859375C22.90909482421875,3.4783155859375,21.90519482421875,3.9650155859375,20.69599482421875,4.7756055859375C20.39549482421875,4.9770855859375,20.02229482421875,5.0384355859375,19.67309482421875,4.9437755859375C17.02219482421875,4.225335585937501,14.22779482421875,4.225335585937501,11.57699482421875,4.9437755859375C11.22770482421875,5.0384355859375,10.85456482421875,4.9770855859375,10.55398482421875,4.7756055859375C9.45467482421875,4.0386955859375,8.52514482421875,3.5694855859375,7.76007482421875,3.3160455859375C7.76007482421875,3.3160455859375,7.44900482421875,3.2222655859375,7.44900482421875,3.2222655859375C7.44900482421875,3.2222655859375,7.24749482421875,3.1713155859375,7.24749482421875,3.1713155859375C7.24749482421875,3.1713155859375,7.23184482421875,3.2330955859375,7.23184482421875,3.2330955859375C7.02963482421875,4.1038955859375,7.05968482421875,5.0165655859375,7.32421482421875,5.8777255859375C7.32421482421875,5.8777255859375,7.42109482421875,6.1627355859375,7.42109482421875,6.1627355859375C7.58835482421875,6.6109255859375,7.48515482421875,7.1152555859375,7.15530482421875,7.4617155859375C6.16583482421875,8.5010155859375,5.61732482421875,9.8831855859375,5.62489482421875,11.3247755859375C5.62489482421875,16.3863755859375,7.83563482421875,18.2452755859375,12.57909482421875,18.8343755859375C13.55369482421875,18.9554755859375,13.99729482421875,20.0874755859375,13.41779482421875,20.8350755859375C13.41779482421875,20.8350755859375,13.32319482421875,20.9441755859375,13.32319482421875,20.9441755859375C13.03409482421875,21.2428755859375,12.81099482421875,21.5993755859375,12.66859482421875,21.9900755859375C12.55469482421875,22.3026755859375,12.49449482421875,22.6316755859375,12.49149482421875,23.0080755859375C12.49149482421875,23.0080755859375,12.49999482421875,23.2998755859375,12.49999482421875,23.2998755859375C12.49999482421875,23.2998755859375,12.49999482421875,28.1373755859375,12.49999482421875,28.1373755859375C12.49999482421875,28.8276755859375,11.94029482421875,29.3873755859375,11.24999482421875,29.3873755859375C10.60894482421875,29.3873755859375,10.08060482421875,28.9048755859375,10.00839482421875,28.2830755859375C10.00839482421875,28.2830755859375,9.99999482421875,28.1373755859375,9.99999482421875,28.1373755859375C9.99999482421875,28.1373755859375,10.00005482421875,25.9644755859375,10.00005482421875,25.9644755859375C7.33965482421875,26.3983755859375,5.61200482421875,25.5823755859375,4.02257482421875,23.7142755859375C4.02257482421875,23.7142755859375,3.68368482421875,23.2984755859375,3.68368482421875,23.2984755859375C3.68368482421875,23.2984755859375,3.26299482421875,22.7684755859375,3.26299482421875,22.7684755859375C2.82311482421875,22.2248755859375,2.5446848242187503,21.9740755859375,2.28345482421875,21.8769755859375C2.28345482421875,21.8769755859375,2.19682082421875,21.8499755859375,2.19682082421875,21.8499755859375C1.52707682421875,21.6825755859375,1.11987582421875,21.0039755859375,1.28731242421875,20.3342755859375C1.45474882421875,19.6644755859375,2.13341582421875,19.2571755859375,2.8031548242187503,19.4247755859375C3.67972482421875,19.6438755859375,4.29318482421875,20.1146755859375,5.00849482421875,20.9568755859375C5.00849482421875,20.9568755859375,5.26438482421875,21.2680755859375,5.26438482421875,21.2680755859375C5.26438482421875,21.2680755859375,5.76946482421875,21.9044755859375,5.76946482421875,21.9044755859375C6.95590482421875,23.3734755859375,7.94138482421875,23.8789755859375,10.00305482421875,23.4240755859375C10.00305482421875,23.4240755859375,10.00307482421875,23.3874755859375,10.00307482421875,23.3874755859375C9.95695482421875,22.7317755859375,10.02962482421875,22.0740755859375,10.21663482421875,21.4458755859375C10.21663482421875,21.4458755859375,10.31965482421875,21.1343755859375,10.31965482421875,21.1343755859375C10.31965482421875,21.1343755859375,10.37749482421875,20.9863755859375,10.37749482421875,20.9863755859375C10.37749482421875,20.9863755859375,10.30770482421875,20.9710755859375,10.30770482421875,20.9710755859375C5.77763482421875,19.9103755859375,3.23924482421875,17.1918755859375,3.12868482421875,11.7094755859375C3.12868482421875,11.7094755859375,3.12490482421875,11.3313755859375,3.12490482421875,11.3313755859375C3.11589482421875,9.6173155859375,3.65384482421875,7.9552355859375,4.64555482421875,6.5800755859375C4.64555482421875,6.5800755859375,4.84874482421875,6.3088155859375,4.84874482421875,6.3088155859375C4.84874482421875,6.3088155859375,4.77211482421875,5.9910555859375,4.77211482421875,5.9910555859375C4.46563482421875,4.5769455859375,4.56897482421875,3.0988055859375,5.07789482421875,1.7336855859375C5.07789482421875,1.7336855859375,5.21356482421875,1.3948665859375,5.21356482421875,1.3948665859375C5.35996482421875,1.0532995859375,5.65075482421875,0.7945795859375,6.00703482421875,0.6889039859375C6.07862482421875,0.6676690859375,6.16593482421875,0.6484542859375,6.26883482421875,0.6335179859375C7.40844482421875,0.4680955859375,9.06317482421875,0.8995795859375,11.26799482421875,2.2619955859375C11.26799482421875,2.2619955859375,11.47249482421875,2.3900655859375,11.47249482421875,2.3900655859375C11.47249482421875,2.3900655859375,12.01609482421875,2.2709355859375,12.01609482421875,2.2709355859375C14.39719482421875,1.7829455859375,16.852794824218748,1.7829455859375,19.23379482421875,2.2709355859375C19.23379482421875,2.2709355859375,19.77619482421875,2.3900655859375,19.77619482421875,2.3900655859375C19.77619482421875,2.3900655859375,19.98199482421875,2.2619955859375,19.98199482421875,2.2619955859375C22.18679482421875,0.8995795859375,23.84159482421875,0.4680955859375,24.98119482421875,0.6335179859375C24.98119482421875,0.6335179859375,24.98119482421875,0.6335179859375,24.98119482421875,0.6335179859375Z" fill="#000000" fill-opacity="1"/></g></g></svg>