<svg xmlns="http://www.w3.org/2000/svg" xmlns:xlink="http://www.w3.org/1999/xlink" fill="none" version="1.1" width="200" height="23" viewBox="0 0 200 23"><g style="mix-blend-mode:passthrough"><path d="M7.17383,21.875C10.49023,21.875,12.8105,19.209,12.8105,14.8965C12.8105,10.5781,10.49023,8,7.17383,8C3.86328,8,1.54297,10.5781,1.54297,14.8965C1.54297,19.209,3.86328,21.875,7.17383,21.875ZM7.17383,20.4219C4.80078,20.4219,3.25391,18.2539,3.25391,14.8965C3.25391,11.5332,4.80078,9.45898,7.17383,9.45898C9.55273,9.45898,11.0996,11.5332,11.0996,14.8965C11.0996,18.2539,9.55273,20.4219,7.17383,20.4219ZM15.6523,25.625L17.3105,25.625L17.3105,22.4316L17.2578,20.7441C18.1367,21.4824,19.0742,21.875,19.9531,21.875C22.1855,21.875,24.2012,19.9355,24.2012,16.4785C24.2012,13.3613,22.8359,11.375,20.3164,11.375C19.1797,11.375,18.084,12.0254,17.1992,12.7637L17.1641,12.7637L17.0059,11.75L15.6523,11.75L15.6523,25.625ZM19.6836,20.4922C19.0391,20.4922,18.1719,20.2344,17.3105,19.4727L17.3105,14.1406C18.248,13.25,19.0918,12.7637,19.9004,12.7637C21.7754,12.7637,22.4961,14.252,22.4961,16.4961C22.4961,19.0156,21.3066,20.4922,19.6836,20.4922ZM29.9609,21.875C30.5762,21.875,31.2207,21.6992,31.7832,21.5176L31.4551,20.2695C31.1328,20.416,30.6992,20.5449,30.3418,20.5449C29.2051,20.5449,28.8301,19.8535,28.8301,18.6465L28.8301,13.0859L31.4961,13.0859L31.4961,11.75L28.8301,11.75L28.8301,8.99609L27.459,8.99609L27.2832,11.75L25.7305,11.8438L25.7305,13.0859L27.1895,13.0859L27.1895,18.5879C27.1895,20.5801,27.8926,21.875,29.9609,21.875ZM33.6523,21.5L35.3105,21.5L35.3105,11.75L33.6523,11.75L33.6523,21.5ZM34.4785,9.78711C35.1289,9.78711,35.5801,9.35352,35.5801,8.69141C35.5801,8.058589999999999,35.1289,7.625,34.4785,7.625C33.834,7.625,33.4004,8.058589999999999,33.4004,8.69141C33.4004,9.35352,33.834,9.78711,34.4785,9.78711ZM42.3242,21.875C44.7207,21.875,46.8477,19.9883,46.8477,16.6484C46.8477,13.2852,44.7207,11.375,42.3242,11.375C39.9336,11.375,37.8066,13.2852,37.8066,16.6484C37.8066,19.9883,39.9336,21.875,42.3242,21.875ZM42.3242,20.5098C40.6367,20.5098,39.5,18.9688,39.5,16.6484C39.5,14.3223,40.6367,12.7637,42.3242,12.7637C44.0176,12.7637,45.1719,14.3223,45.1719,16.6484C45.1719,18.9688,44.0176,20.5098,42.3242,20.5098ZM49.4023,21.5L51.0605,21.5L51.0605,14.3281C52.0332,13.3262,52.7129,12.8164,53.7207,12.8164C55.0215,12.8164,55.5781,13.6016,55.5781,15.459L55.5781,21.5L57.2188,21.5L57.2188,15.2422C57.2188,12.7285,56.2812,11.375,54.2305,11.375C52.8945,11.375,51.8691,12.1133,50.9492,13.0566L50.9141,13.0566L50.7559,11.75L49.4023,11.75L49.4023,21.5ZM62.5273,21.875C63.7344,21.875,64.8301,21.248,65.7676,20.4688L65.8203,20.4688L65.9668,21.5L67.3145,21.5L67.3145,15.4238C67.3145,12.9629,66.3242,11.375,63.9336,11.375C62.3457,11.375,60.9805,12.0781,60.0957,12.6582L60.7285,13.8008C61.502,13.2734,62.5273,12.7461,63.6641,12.7461C65.2637,12.7461,65.6797,13.9648,65.6797,15.2422C61.5195,15.7109,59.6855,16.7891,59.6855,18.9336C59.6855,20.8672,60.8926,21.875,62.5273,21.875ZM62.9961,20.5449C62.0234,20.5449,61.2676,20.0996,61.2676,18.9512C61.2676,17.6504,62.3867,16.8125,65.6797,16.425800000000002L65.6797,19.2266C64.7246,20.0996,63.9336,20.5449,62.9961,20.5449ZM72.1309,21.875C72.582,21.875,72.8516,21.8047,73.0859,21.7344L72.8516,20.4746C72.6699,20.5098,72.5996,20.5098,72.5117,20.5098C72.2598,20.5098,72.0605,20.3105,72.0605,19.8066L72.0605,7.31445L70.4023,7.31445L70.4023,19.7012C70.4023,21.084,70.9062,21.875,72.1309,21.875ZM83.6328,21.875C84.7988,21.875,85.918,21.4121,86.7969,20.6562L86.0762,19.5078C85.4668,20.0645,84.6758,20.5098,83.7734,20.5098C81.9746,20.5098,80.75,18.9688,80.75,16.6484C80.75,14.3223,82.0449,12.7637,83.8262,12.7637C84.582,12.7637,85.2148,13.1152,85.7715,13.6367L86.6035,12.5293C85.918,11.9199,85.0332,11.375,83.7559,11.375C81.2363,11.375,79.0566,13.2852,79.0566,16.6484C79.0566,19.9883,81.0371,21.875,83.6328,21.875ZM92.5742,21.875C94.9707,21.875,97.0977,19.9883,97.0977,16.6484C97.0977,13.2852,94.9707,11.375,92.5742,11.375C90.1836,11.375,88.0566,13.2852,88.0566,16.6484C88.0566,19.9883,90.1836,21.875,92.5742,21.875ZM92.5742,20.5098C90.8867,20.5098,89.75,18.9688,89.75,16.6484C89.75,14.3223,90.8867,12.7637,92.5742,12.7637C94.2676,12.7637,95.4219,14.3223,95.4219,16.6484C95.4219,18.9688,94.2676,20.5098,92.5742,20.5098ZM99.6523,21.5L101.311,21.5L101.311,14.3281C102.283,13.3262,102.963,12.8164,103.971,12.8164C105.271,12.8164,105.828,13.6016,105.828,15.459L105.828,21.5L107.469,21.5L107.469,15.2422C107.469,12.7285,106.531,11.375,104.48,11.375C103.145,11.375,102.119,12.1133,101.199,13.0566L101.164,13.0566L101.006,11.75L99.6523,11.75L99.6523,21.5ZM113.586,21.875C114.201,21.875,114.846,21.6992,115.408,21.5176L115.08,20.2695C114.758,20.416,114.324,20.5449,113.967,20.5449C112.83,20.5449,112.455,19.8535,112.455,18.6465L112.455,13.0859L115.121,13.0859L115.121,11.75L112.455,11.75L112.455,8.99609L111.084,8.99609L110.908,11.75L109.355,11.8438L109.355,13.0859L110.814,13.0859L110.814,18.5879C110.814,20.5801,111.518,21.875,113.586,21.875ZM119.527,21.875C120.734,21.875,121.83,21.248,122.768,20.4688L122.82,20.4688L122.967,21.5L124.314,21.5L124.314,15.4238C124.314,12.9629,123.324,11.375,120.934,11.375C119.346,11.375,117.98,12.0781,117.096,12.6582L117.729,13.8008C118.502,13.2734,119.527,12.7461,120.664,12.7461C122.264,12.7461,122.68,13.9648,122.68,15.2422C118.52,15.7109,116.686,16.7891,116.686,18.9336C116.686,20.8672,117.893,21.875,119.527,21.875ZM119.996,20.5449C119.023,20.5449,118.268,20.0996,118.268,18.9512C118.268,17.6504,119.387,16.8125,122.68,16.425800000000002L122.68,19.2266C121.725,20.0996,120.934,20.5449,119.996,20.5449ZM131.258,21.875C132.424,21.875,133.543,21.4121,134.422,20.6562L133.701,19.5078C133.092,20.0645,132.301,20.5098,131.398,20.5098C129.6,20.5098,128.375,18.9688,128.375,16.6484C128.375,14.3223,129.67,12.7637,131.451,12.7637C132.207,12.7637,132.84,13.1152,133.396,13.6367L134.229,12.5293C133.543,11.9199,132.658,11.375,131.381,11.375C128.861,11.375,126.682,13.2852,126.682,16.6484C126.682,19.9883,128.662,21.875,131.258,21.875ZM139.461,21.875C140.076,21.875,140.721,21.6992,141.283,21.5176L140.955,20.2695C140.633,20.416,140.199,20.5449,139.842,20.5449C138.705,20.5449,138.33,19.8535,138.33,18.6465L138.33,13.0859L140.996,13.0859L140.996,11.75L138.33,11.75L138.33,8.99609L136.959,8.99609L136.783,11.75L135.23,11.8438L135.23,13.0859L136.689,13.0859L136.689,18.5879C136.689,20.5801,137.393,21.875,139.461,21.875ZM147.277,21.5L148.936,21.5L148.936,11.75L147.277,11.75L147.277,21.5ZM148.104,9.78711C148.754,9.78711,149.205,9.35352,149.205,8.69141C149.205,8.058589999999999,148.754,7.625,148.104,7.625C147.459,7.625,147.025,8.058589999999999,147.025,8.69141C147.025,9.35352,147.459,9.78711,148.104,9.78711ZM152.152,21.5L153.811,21.5L153.811,14.3281C154.783,13.3262,155.463,12.8164,156.471,12.8164C157.771,12.8164,158.328,13.6016,158.328,15.459L158.328,21.5L159.969,21.5L159.969,15.2422C159.969,12.7285,159.031,11.375,156.98,11.375C155.645,11.375,154.619,12.1133,153.699,13.0566L153.664,13.0566L153.506,11.75L152.152,11.75L152.152,21.5ZM161.967,13.0859L163.297,13.0859L163.297,21.5L164.938,21.5L164.938,13.0859L167.006,13.0859L167.006,11.75L164.938,11.75L164.938,10.16797C164.938,8.87305,165.389,8.19336,166.32,8.19336C166.666,8.19336,167.059,8.28711,167.422,8.46875L167.779,7.18555C167.328,7.00391,166.754,6.875,166.145,6.875C164.199,6.875,163.297,8.11719,163.297,10.15039L163.297,11.75L161.967,11.8438L161.967,13.0859ZM172.824,21.875C175.221,21.875,177.348,19.9883,177.348,16.6484C177.348,13.2852,175.221,11.375,172.824,11.375C170.434,11.375,168.307,13.2852,168.307,16.6484C168.307,19.9883,170.434,21.875,172.824,21.875ZM172.824,20.5098C171.137,20.5098,170,18.9688,170,16.6484C170,14.3223,171.137,12.7637,172.824,12.7637C174.518,12.7637,175.672,14.3223,175.672,16.6484C175.672,18.9688,174.518,20.5098,172.824,20.5098ZM182.75,12.875C183.465,12.875,184.115,12.3535,184.115,11.5449C184.115,10.7188,183.465,10.17969,182.75,10.17969C182.029,10.17969,181.379,10.7188,181.379,11.5449C181.379,12.3535,182.029,12.875,182.75,12.875ZM182.75,21.875C183.465,21.875,184.115,21.3359,184.115,20.5273C184.115,19.7012,183.465,19.1797,182.75,19.1797C182.029,19.1797,181.379,19.7012,181.379,20.5273C181.379,21.3359,182.029,21.875,182.75,21.875Z" fill="#000000" fill-opacity="1"/><path d="M7.17383,21.875C10.49023,21.875,12.8105,19.209,12.8105,14.8965C12.8105,10.5781,10.49023,8,7.17383,8C3.86328,8,1.54297,10.5781,1.54297,14.8965C1.54297,19.209,3.86328,21.875,7.17383,21.875ZM7.17383,20.4219C4.80078,20.4219,3.25391,18.2539,3.25391,14.8965C3.25391,11.5332,4.80078,9.45898,7.17383,9.45898C9.55273,9.45898,11.0996,11.5332,11.0996,14.8965C11.0996,18.2539,9.55273,20.4219,7.17383,20.4219ZM15.6523,25.625L17.3105,25.625L17.3105,22.4316L17.2578,20.7441C18.1367,21.4824,19.0742,21.875,19.9531,21.875C22.1855,21.875,24.2012,19.9355,24.2012,16.4785C24.2012,13.3613,22.8359,11.375,20.3164,11.375C19.1797,11.375,18.084,12.0254,17.1992,12.7637L17.1641,12.7637L17.0059,11.75L15.6523,11.75L15.6523,25.625ZM19.6836,20.4922C19.0391,20.4922,18.1719,20.2344,17.3105,19.4727L17.3105,14.1406C18.248,13.25,19.0918,12.7637,19.9004,12.7637C21.7754,12.7637,22.4961,14.252,22.4961,16.4961C22.4961,19.0156,21.3066,20.4922,19.6836,20.4922ZM29.9609,21.875C30.5762,21.875,31.2207,21.6992,31.7832,21.5176L31.4551,20.2695C31.1328,20.416,30.6992,20.5449,30.3418,20.5449C29.2051,20.5449,28.8301,19.8535,28.8301,18.6465L28.8301,13.0859L31.4961,13.0859L31.4961,11.75L28.8301,11.75L28.8301,8.99609L27.459,8.99609L27.2832,11.75L25.7305,11.8438L25.7305,13.0859L27.1895,13.0859L27.1895,18.5879C27.1895,20.5801,27.8926,21.875,29.9609,21.875ZM33.6523,21.5L35.3105,21.5L35.3105,11.75L33.6523,11.75L33.6523,21.5ZM34.4785,9.78711C35.1289,9.78711,35.5801,9.35352,35.5801,8.69141C35.5801,8.058589999999999,35.1289,7.625,34.4785,7.625C33.834,7.625,33.4004,8.058589999999999,33.4004,8.69141C33.4004,9.35352,33.834,9.78711,34.4785,9.78711ZM42.3242,21.875C44.7207,21.875,46.8477,19.9883,46.8477,16.6484C46.8477,13.2852,44.7207,11.375,42.3242,11.375C39.9336,11.375,37.8066,13.2852,37.8066,16.6484C37.8066,19.9883,39.9336,21.875,42.3242,21.875ZM42.3242,20.5098C40.6367,20.5098,39.5,18.9688,39.5,16.6484C39.5,14.3223,40.6367,12.7637,42.3242,12.7637C44.0176,12.7637,45.1719,14.3223,45.1719,16.6484C45.1719,18.9688,44.0176,20.5098,42.3242,20.5098ZM49.4023,21.5L51.0605,21.5L51.0605,14.3281C52.0332,13.3262,52.7129,12.8164,53.7207,12.8164C55.0215,12.8164,55.5781,13.6016,55.5781,15.459L55.5781,21.5L57.2188,21.5L57.2188,15.2422C57.2188,12.7285,56.2812,11.375,54.2305,11.375C52.8945,11.375,51.8691,12.1133,50.9492,13.0566L50.9141,13.0566L50.7559,11.75L49.4023,11.75L49.4023,21.5ZM62.5273,21.875C63.7344,21.875,64.8301,21.248,65.7676,20.4688L65.8203,20.4688L65.9668,21.5L67.3145,21.5L67.3145,15.4238C67.3145,12.9629,66.3242,11.375,63.9336,11.375C62.3457,11.375,60.9805,12.0781,60.0957,12.6582L60.7285,13.8008C61.502,13.2734,62.5273,12.7461,63.6641,12.7461C65.2637,12.7461,65.6797,13.9648,65.6797,15.2422C61.5195,15.7109,59.6855,16.7891,59.6855,18.9336C59.6855,20.8672,60.8926,21.875,62.5273,21.875ZM62.9961,20.5449C62.0234,20.5449,61.2676,20.0996,61.2676,18.9512C61.2676,17.6504,62.3867,16.8125,65.6797,16.425800000000002L65.6797,19.2266C64.7246,20.0996,63.9336,20.5449,62.9961,20.5449ZM72.1309,21.875C72.582,21.875,72.8516,21.8047,73.0859,21.7344L72.8516,20.4746C72.6699,20.5098,72.5996,20.5098,72.5117,20.5098C72.2598,20.5098,72.0605,20.3105,72.0605,19.8066L72.0605,7.31445L70.4023,7.31445L70.4023,19.7012C70.4023,21.084,70.9062,21.875,72.1309,21.875ZM83.6328,21.875C84.7988,21.875,85.918,21.4121,86.7969,20.6562L86.0762,19.5078C85.4668,20.0645,84.6758,20.5098,83.7734,20.5098C81.9746,20.5098,80.75,18.9688,80.75,16.6484C80.75,14.3223,82.0449,12.7637,83.8262,12.7637C84.582,12.7637,85.2148,13.1152,85.7715,13.6367L86.6035,12.5293C85.918,11.9199,85.0332,11.375,83.7559,11.375C81.2363,11.375,79.0566,13.2852,79.0566,16.6484C79.0566,19.9883,81.0371,21.875,83.6328,21.875ZM92.5742,21.875C94.9707,21.875,97.0977,19.9883,97.0977,16.6484C97.0977,13.2852,94.9707,11.375,92.5742,11.375C90.1836,11.375,88.0566,13.2852,88.0566,16.6484C88.0566,19.9883,90.1836,21.875,92.5742,21.875ZM92.5742,20.5098C90.8867,20.5098,89.75,18.9688,89.75,16.6484C89.75,14.3223,90.8867,12.7637,92.5742,12.7637C94.2676,12.7637,95.4219,14.3223,95.4219,16.6484C95.4219,18.9688,94.2676,20.5098,92.5742,20.5098ZM99.6523,21.5L101.311,21.5L101.311,14.3281C102.283,13.3262,102.963,12.8164,103.971,12.8164C105.271,12.8164,105.828,13.6016,105.828,15.459L105.828,21.5L107.469,21.5L107.469,15.2422C107.469,12.7285,106.531,11.375,104.48,11.375C103.145,11.375,102.119,12.1133,101.199,13.0566L101.164,13.0566L101.006,11.75L99.6523,11.75L99.6523,21.5ZM113.586,21.875C114.201,21.875,114.846,21.6992,115.408,21.5176L115.08,20.2695C114.758,20.416,114.324,20.5449,113.967,20.5449C112.83,20.5449,112.455,19.8535,112.455,18.6465L112.455,13.0859L115.121,13.0859L115.121,11.75L112.455,11.75L112.455,8.99609L111.084,8.99609L110.908,11.75L109.355,11.8438L109.355,13.0859L110.814,13.0859L110.814,18.5879C110.814,20.5801,111.518,21.875,113.586,21.875ZM119.527,21.875C120.734,21.875,121.83,21.248,122.768,20.4688L122.82,20.4688L122.967,21.5L124.314,21.5L124.314,15.4238C124.314,12.9629,123.324,11.375,120.934,11.375C119.346,11.375,117.98,12.0781,117.096,12.6582L117.729,13.8008C118.502,13.2734,119.527,12.7461,120.664,12.7461C122.264,12.7461,122.68,13.9648,122.68,15.2422C118.52,15.7109,116.686,16.7891,116.686,18.9336C116.686,20.8672,117.893,21.875,119.527,21.875ZM119.996,20.5449C119.023,20.5449,118.268,20.0996,118.268,18.9512C118.268,17.6504,119.387,16.8125,122.68,16.425800000000002L122.68,19.2266C121.725,20.0996,120.934,20.5449,119.996,20.5449ZM131.258,21.875C132.424,21.875,133.543,21.4121,134.422,20.6562L133.701,19.5078C133.092,20.0645,132.301,20.5098,131.398,20.5098C129.6,20.5098,128.375,18.9688,128.375,16.6484C128.375,14.3223,129.67,12.7637,131.451,12.7637C132.207,12.7637,132.84,13.1152,133.396,13.6367L134.229,12.5293C133.543,11.9199,132.658,11.375,131.381,11.375C128.861,11.375,126.682,13.2852,126.682,16.6484C126.682,19.9883,128.662,21.875,131.258,21.875ZM139.461,21.875C140.076,21.875,140.721,21.6992,141.283,21.5176L140.955,20.2695C140.633,20.416,140.199,20.5449,139.842,20.5449C138.705,20.5449,138.33,19.8535,138.33,18.6465L138.33,13.0859L140.996,13.0859L140.996,11.75L138.33,11.75L138.33,8.99609L136.959,8.99609L136.783,11.75L135.23,11.8438L135.23,13.0859L136.689,13.0859L136.689,18.5879C136.689,20.5801,137.393,21.875,139.461,21.875ZM147.277,21.5L148.936,21.5L148.936,11.75L147.277,11.75L147.277,21.5ZM148.104,9.78711C148.754,9.78711,149.205,9.35352,149.205,8.69141C149.205,8.058589999999999,148.754,7.625,148.104,7.625C147.459,7.625,147.025,8.058589999999999,147.025,8.69141C147.025,9.35352,147.459,9.78711,148.104,9.78711ZM152.152,21.5L153.811,21.5L153.811,14.3281C154.783,13.3262,155.463,12.8164,156.471,12.8164C157.771,12.8164,158.328,13.6016,158.328,15.459L158.328,21.5L159.969,21.5L159.969,15.2422C159.969,12.7285,159.031,11.375,156.98,11.375C155.645,11.375,154.619,12.1133,153.699,13.0566L153.664,13.0566L153.506,11.75L152.152,11.75L152.152,21.5ZM161.967,13.0859L163.297,13.0859L163.297,21.5L164.938,21.5L164.938,13.0859L167.006,13.0859L167.006,11.75L164.938,11.75L164.938,10.16797C164.938,8.87305,165.389,8.19336,166.32,8.19336C166.666,8.19336,167.059,8.28711,167.422,8.46875L167.779,7.18555C167.328,7.00391,166.754,6.875,166.145,6.875C164.199,6.875,163.297,8.11719,163.297,10.15039L163.297,11.75L161.967,11.8438L161.967,13.0859ZM172.824,21.875C175.221,21.875,177.348,19.9883,177.348,16.6484C177.348,13.2852,175.221,11.375,172.824,11.375C170.434,11.375,168.307,13.2852,168.307,16.6484C168.307,19.9883,170.434,21.875,172.824,21.875ZM172.824,20.5098C171.137,20.5098,170,18.9688,170,16.6484C170,14.3223,171.137,12.7637,172.824,12.7637C174.518,12.7637,175.672,14.3223,175.672,16.6484C175.672,18.9688,174.518,20.5098,172.824,20.5098ZM182.75,12.875C183.465,12.875,184.115,12.3535,184.115,11.5449C184.115,10.7188,183.465,10.17969,182.75,10.17969C182.029,10.17969,181.379,10.7188,181.379,11.5449C181.379,12.3535,182.029,12.875,182.75,12.875ZM182.75,21.875C183.465,21.875,184.115,21.3359,184.115,20.5273C184.115,19.7012,183.465,19.1797,182.75,19.1797C182.029,19.1797,181.379,19.7012,181.379,20.5273C181.379,21.3359,182.029,21.875,182.75,21.875Z" fill-opacity="0" stroke-opacity="1" stroke="#000000" fill="none" stroke-width="1"/></g></svg>