<svg xmlns="http://www.w3.org/2000/svg" xmlns:xlink="http://www.w3.org/1999/xlink" fill="none" version="1.1" width="24" height="24" viewBox="0 0 24 24"><defs><clipPath id="master_svg0_3_1675"><rect x="0" y="0" width="24" height="24" rx="0"/></clipPath></defs><g style="mix-blend-mode:passthrough" clip-path="url(#master_svg0_3_1675)"><g style="mix-blend-mode:passthrough"><path d="M5,4C4.44772,4,4,4.44772,4,5C4,5,4,19,4,19C4,19.5523,4.44771,20,5,20C5,20,19,20,19,20C19.5523,20,20,19.5523,20,19C20,19,20,5,20,5C20,4.44771,19.5523,4,19,4C19,4,5,4,5,4C5,4,5,4,5,4ZM2,5C2,3.34315,3.34315,2,5,2C5,2,19,2,19,2C20.6569,2,22,3.34315,22,5C22,5,22,19,22,19C22,20.6569,20.6569,22,19,22C19,22,5,22,5,22C3.34315,22,2,20.6569,2,19C2,19,2,5,2,5C2,5,2,5,2,5Z" fill-rule="evenodd" fill="#000000" fill-opacity="1"/></g></g></svg>