<svg xmlns="http://www.w3.org/2000/svg" xmlns:xlink="http://www.w3.org/1999/xlink" fill="none" version="1.1" width="34" height="34" viewBox="0 0 34 34"><defs><clipPath id="master_svg0_3_1684"><rect x="0" y="34" width="34" height="34" rx="0"/></clipPath></defs><g style="mix-blend-mode:passthrough" transform="matrix(1,0,0,-1,0,68)" clip-path="url(#master_svg0_3_1684)"><g style="mix-blend-mode:passthrough"><path d="M0.414932,41.498267876464844C0.968174,40.94502487646484,1.86515,40.94502487646484,2.41841,41.498267876464844C2.41841,41.498267876464844,12.0417,51.12153587646485,12.0417,51.12153587646485C12.0417,51.12153587646485,18.1233,45.03992587646484,18.1233,45.03992587646484C18.6765,44.48669587646484,19.5735,44.48669587646484,20.1267,45.03992587646484C20.1267,45.03992587646484,31.1667,56.07983587646484,31.1667,56.07983587646484C31.1667,56.07983587646484,31.1667,51.00000587646484,31.1667,51.00000587646484C31.1667,50.217605876464845,31.8009,49.583335876464844,32.5833,49.583335876464844C33.3658,49.583335876464844,34,50.217605876464845,34,51.00000587646484C34,51.00000587646484,34,59.50003587646484,34,59.50003587646484C34,60.282435876464845,33.3658,60.916635876464845,32.5833,60.916635876464845C32.5833,60.916635876464845,24.0833,60.916635876464845,24.0833,60.916635876464845C23.3009,60.916635876464845,22.6667,60.282435876464845,22.6667,59.50003587646484C22.6667,58.717535876464844,23.3009,58.083335876464844,24.0833,58.083335876464844C24.0833,58.083335876464844,29.1632,58.083335876464844,29.1632,58.083335876464844C29.1632,58.083335876464844,19.125,48.04513587646484,19.125,48.04513587646484C19.125,48.04513587646484,13.0434,54.12673587646484,13.0434,54.12673587646484C12.4902,54.679935876464846,11.5932,54.679935876464846,11.0399,54.12673587646484C11.0399,54.12673587646484,0.414932,43.501745876464845,0.414932,43.501745876464845C-0.138311,42.948485876464844,-0.138311,42.05150987646484,0.414932,41.498267876464844C0.414932,41.498267876464844,0.414932,41.498267876464844,0.414932,41.498267876464844Z" fill-rule="evenodd" fill="#000000" fill-opacity="1"/></g></g></svg>