<svg xmlns="http://www.w3.org/2000/svg" xmlns:xlink="http://www.w3.org/1999/xlink" fill="none" version="1.1" width="153" height="98" viewBox="0 0 153 98"><g style="mix-blend-mode:passthrough"><path d="M1.81641,21L3.46875,21L3.46875,15.75L5.64844,15.75C8.54883,15.75,10.5117,14.4727,10.5117,11.7188C10.5117,8.86523,8.53125,7.875,5.57812,7.875L1.81641,7.875L1.81641,21ZM3.46875,14.4023L3.46875,9.22852L5.36133,9.22852C7.68164,9.22852,8.85352,9.81445,8.85352,11.7188C8.85352,13.582,7.75781,14.4023,5.43164,14.4023L3.46875,14.4023ZM16.6992,21.375C19.0957,21.375,21.2227,19.4883,21.2227,16.1484C21.2227,12.7852,19.0957,10.875,16.6992,10.875C14.3086,10.875,12.1816,12.7852,12.1816,16.1484C12.1816,19.4883,14.3086,21.375,16.6992,21.375ZM16.6992,20.0098C15.0117,20.0098,13.875,18.4688,13.875,16.1484C13.875,13.8223,15.0117,12.2637,16.6992,12.2637C18.3926,12.2637,19.5469,13.8223,19.5469,16.1484C19.5469,18.4688,18.3926,20.0098,16.6992,20.0098ZM26.332,21.375C28.6406,21.375,29.8828,20.0625,29.8828,18.4277C29.8828,16.5176,28.3301,15.9258,26.9121,15.3691C25.8105,14.9414,24.8027,14.5664,24.8027,13.623C24.8027,12.8262,25.3828,12.1582,26.625,12.1582C27.4863,12.1582,28.1719,12.5449,28.834,13.0488L29.6309,11.9941C28.8926,11.3848,27.8086,10.875,26.6016,10.875C24.4629,10.875,23.2383,12.0996,23.2383,13.6934C23.2383,15.4219,24.7148,16.0898,26.0801,16.6113C27.1641,17.0156,28.3125,17.502,28.3125,18.5215C28.3125,19.3945,27.6855,20.0977,26.3906,20.0977C25.2188,20.0977,24.3516,19.6172,23.4902,18.8906L22.6992,20.0273C23.6133,20.8008,24.9492,21.375,26.332,21.375ZM35.0859,21.375C35.7012,21.375,36.3457,21.1992,36.9082,21.0176L36.5801,19.7695C36.2578,19.916,35.8242,20.0449,35.4668,20.0449C34.3301,20.0449,33.9551,19.3535,33.9551,18.1465L33.9551,12.5859L36.6211,12.5859L36.6211,11.25L33.9551,11.25L33.9551,8.49609L32.584,8.49609L32.4082,11.25L30.8555,11.3438L30.8555,12.5859L32.3145,12.5859L32.3145,18.0879C32.3145,20.0801,33.0176,21.375,35.0859,21.375ZM43.0664,25.125C45.0117,25.125,46.0371,23.6543,46.7168,21.7617L50.3906,11.25L48.791,11.25L47.0273,16.623C46.7754,17.4961,46.4883,18.4805,46.2363,19.3711L46.1426,19.3711C45.8027,18.4629,45.4746,17.4785,45.1699,16.623L43.1895,11.25L41.4785,11.25L45.4043,20.959L45.1875,21.6914C44.7773,22.8867,44.0918,23.7773,42.9961,23.7773C42.7207,23.7773,42.4336,23.6895,42.2344,23.6191L41.9121,24.9316C42.2168,25.0547,42.6152,25.125,43.0664,25.125ZM56.0742,21.375C58.4707,21.375,60.5977,19.4883,60.5977,16.1484C60.5977,12.7852,58.4707,10.875,56.0742,10.875C53.6836,10.875,51.5566,12.7852,51.5566,16.1484C51.5566,19.4883,53.6836,21.375,56.0742,21.375ZM56.0742,20.0098C54.3867,20.0098,53.25,18.4688,53.25,16.1484C53.25,13.8223,54.3867,12.2637,56.0742,12.2637C57.7676,12.2637,58.9219,13.8223,58.9219,16.1484C58.9219,18.4688,57.7676,20.0098,56.0742,20.0098ZM66.0176,21.375C67.3477,21.375,68.3203,20.6777,69.2402,19.6113L69.293,19.6113L69.416,21L70.7871,21L70.7871,11.25L69.1465,11.25L69.1465,18.2754C68.209,19.4473,67.5117,19.957,66.5039,19.957C65.2031,19.957,64.6641,19.1719,64.6641,17.3262L64.6641,11.25L63.0117,11.25L63.0117,17.5312C63.0117,20.0625,63.9434,21.375,66.0176,21.375ZM74.0273,21L75.6855,21L75.6855,14.6484C76.3301,12.9727,77.3203,12.3516,78.1348,12.3516C78.5449,12.3516,78.7617,12.4102,79.084,12.5156L79.3945,11.25C79.084,10.9336,78.7793,10.875,78.3457,10.875C77.2676,10.875,76.2598,11.6719,75.5742,12.9199L75.5391,12.9199L75.3809,11.25L74.0273,11.25L74.0273,21ZM85.2773,21L86.9355,21L86.9355,14.6484C87.5801,12.9727,88.5703,12.3516,89.3848,12.3516C89.7949,12.3516,90.0117,12.4102,90.334,12.5156L90.6445,11.25C90.334,10.9336,90.0293,10.875,89.5957,10.875C88.5176,10.875,87.5098,11.6719,86.8242,12.9199L86.7891,12.9199L86.6309,11.25L85.2773,11.25L85.2773,21ZM96.3633,21.375C97.6758,21.375,98.7246,20.9473,99.5684,20.3906L98.9941,19.2598C98.2559,19.7637,97.5,20.0625,96.5449,20.0625C94.6875,20.0625,93.4102,18.6797,93.3047,16.5L99.8906,16.5C99.9258,16.248,99.9668,15.9258,99.9668,15.5684C99.9668,12.6914,98.5605,10.875,96.0586,10.875C93.8262,10.875,91.6816,12.8613,91.6816,16.125C91.6816,19.4648,93.7559,21.375,96.3633,21.375ZM93.2871,15.334C93.4805,13.3242,94.7051,12.1934,96.0938,12.1934C97.623,12.1934,98.5254,13.2891,98.5254,15.334L93.2871,15.334ZM108.721,25.125L110.379,25.125L110.379,11.25L109.061,11.25L108.902,12.0469L108.867,12.0469C108,11.291,107.209,10.875,106.055,10.875C103.822,10.875,101.824,12.8789,101.824,16.1484C101.824,19.5117,103.412,21.375,105.861,21.375C106.992,21.375,108.018,20.7832,108.809,20.0098L108.721,21.7793L108.721,25.125ZM106.219,19.9922C104.508,19.9922,103.518,18.5625,103.518,16.1309C103.518,13.8281,104.777,12.2637,106.342,12.2637C107.156,12.2637,107.912,12.5625,108.721,13.3242L108.721,18.6152C107.912,19.5469,107.121,19.9922,106.219,19.9922ZM116.643,21.375C117.973,21.375,118.945,20.6777,119.865,19.6113L119.918,19.6113L120.041,21L121.412,21L121.412,11.25L119.771,11.25L119.771,18.2754C118.834,19.4473,118.137,19.957,117.129,19.957C115.828,19.957,115.289,19.1719,115.289,17.3262L115.289,11.25L113.637,11.25L113.637,17.5312C113.637,20.0625,114.568,21.375,116.643,21.375ZM128.613,21.375C129.926,21.375,130.975,20.9473,131.818,20.3906L131.244,19.2598C130.506,19.7637,129.75,20.0625,128.795,20.0625C126.938,20.0625,125.66,18.6797,125.555,16.5L132.141,16.5C132.176,16.248,132.217,15.9258,132.217,15.5684C132.217,12.6914,130.811,10.875,128.309,10.875C126.076,10.875,123.932,12.8613,123.932,16.125C123.932,19.4648,126.006,21.375,128.613,21.375ZM125.537,15.334C125.73,13.3242,126.955,12.1934,128.344,12.1934C129.873,12.1934,130.775,13.2891,130.775,15.334L125.537,15.334ZM137.332,21.375C139.641,21.375,140.883,20.0625,140.883,18.4277C140.883,16.5176,139.33,15.9258,137.912,15.3691C136.811,14.9414,135.803,14.5664,135.803,13.623C135.803,12.8262,136.383,12.1582,137.625,12.1582C138.486,12.1582,139.172,12.5449,139.834,13.0488L140.631,11.9941C139.893,11.3848,138.809,10.875,137.602,10.875C135.463,10.875,134.238,12.0996,134.238,13.6934C134.238,15.4219,135.715,16.0898,137.08,16.6113C138.164,17.0156,139.312,17.502,139.312,18.5215C139.312,19.3945,138.686,20.0977,137.391,20.0977C136.219,20.0977,135.352,19.6172,134.49,18.8906L133.699,20.0273C134.613,20.8008,135.949,21.375,137.332,21.375ZM146.086,21.375C146.701,21.375,147.346,21.1992,147.908,21.0176L147.58,19.7695C147.258,19.916,146.824,20.0449,146.467,20.0449C145.33,20.0449,144.955,19.3535,144.955,18.1465L144.955,12.5859L147.621,12.5859L147.621,11.25L144.955,11.25L144.955,8.49609L143.584,8.49609L143.408,11.25L141.855,11.3438L141.855,12.5859L143.314,12.5859L143.314,18.0879C143.314,20.0801,144.018,21.375,146.086,21.375ZM0.591797,38.5859L1.92188,38.5859L1.92188,47L3.5625,47L3.5625,38.5859L5.63086,38.5859L5.63086,37.25L3.5625,37.25L3.5625,35.668C3.5625,34.373,4.01367,33.6934,4.94531,33.6934C5.29102,33.6934,5.68359,33.7871,6.04688,33.9688L6.4043,32.6855C5.95312,32.5039,5.37891,32.375,4.76953,32.375C2.82422,32.375,1.92188,33.6172,1.92188,35.6504L1.92188,37.25L0.591797,37.3438L0.591797,38.5859ZM11.4492,47.375C13.8457,47.375,15.9727,45.4883,15.9727,42.1484C15.9727,38.7852,13.8457,36.875,11.4492,36.875C9.05859,36.875,6.93164,38.7852,6.93164,42.1484C6.93164,45.4883,9.05859,47.375,11.4492,47.375ZM11.4492,46.0098C9.76172,46.0098,8.625,44.4688,8.625,42.1484C8.625,39.8223,9.76172,38.2637,11.4492,38.2637C13.1426,38.2637,14.2969,39.8223,14.2969,42.1484C14.2969,44.4688,13.1426,46.0098,11.4492,46.0098ZM18.5273,47L20.1855,47L20.1855,40.6484C20.8301,38.9727,21.8203,38.3516,22.6348,38.3516C23.0449,38.3516,23.2617,38.4102,23.584,38.5156L23.8945,37.25C23.584,36.9336,23.2793,36.875,22.8457,36.875C21.7676,36.875,20.7598,37.6719,20.0742,38.9199L20.0391,38.9199L19.8809,37.25L18.5273,37.25L18.5273,47ZM29.7773,47L31.4355,47L31.4355,39.8281C32.4082,38.8262,33.0879,38.3164,34.0957,38.3164C35.3965,38.3164,35.9531,39.1016,35.9531,40.959L35.9531,47L37.5938,47L37.5938,40.7422C37.5938,38.2285,36.6562,36.875,34.6055,36.875C33.2695,36.875,32.2617,37.6133,31.3652,38.5156L31.4355,36.5L31.4355,32.5742L29.7773,32.5742L29.7773,47ZM44.6133,47.375C45.9258,47.375,46.9746,46.9473,47.8184,46.3906L47.2441,45.2598C46.5059,45.7637,45.75,46.0625,44.7949,46.0625C42.9375,46.0625,41.6602,44.6797,41.5547,42.5L48.1406,42.5C48.1758,42.248,48.2168,41.9258,48.2168,41.5684C48.2168,38.6914,46.8105,36.875,44.3086,36.875C42.0762,36.875,39.9316,38.8613,39.9316,42.125C39.9316,45.4648,42.0059,47.375,44.6133,47.375ZM41.5371,41.334C41.7305,39.3242,42.9551,38.1934,44.3438,38.1934C45.873,38.1934,46.7754,39.2891,46.7754,41.334L41.5371,41.334ZM52.5059,47.375C52.957,47.375,53.2266,47.3047,53.4609,47.2344L53.2266,45.9746C53.0449,46.0098,52.9746,46.0098,52.8867,46.0098C52.6348,46.0098,52.4355,45.8105,52.4355,45.3066L52.4355,32.8145L50.7773,32.8145L50.7773,45.2012C50.7773,46.584,51.2812,47.375,52.5059,47.375ZM56.0273,51.125L57.6855,51.125L57.6855,47.9316L57.6328,46.2441C58.5117,46.9824,59.4492,47.375,60.3281,47.375C62.5605,47.375,64.5762,45.4355,64.5762,41.9785C64.5762,38.8613,63.2109,36.875,60.6914,36.875C59.5547,36.875,58.459,37.5254,57.5742,38.2637L57.5391,38.2637L57.3809,37.25L56.0273,37.25L56.0273,51.125ZM60.0586,45.9922C59.4141,45.9922,58.5469,45.7344,57.6855,44.9727L57.6855,39.6406C58.623,38.75,59.4668,38.2637,60.2754,38.2637C62.1504,38.2637,62.8711,39.752,62.8711,41.9961C62.8711,44.5156,61.6816,45.9922,60.0586,45.9922ZM71.4023,47L73.0605,47L73.0605,39.8281C74.0332,38.8262,74.7129,38.3164,75.7207,38.3164C77.0215,38.3164,77.5781,39.1016,77.5781,40.959L77.5781,47L79.2188,47L79.2188,40.7422C79.2188,38.2285,78.2812,36.875,76.2305,36.875C74.8945,36.875,73.8867,37.6133,72.9902,38.5156L73.0605,36.5L73.0605,32.5742L71.4023,32.5742L71.4023,47ZM86.2383,47.375C87.5508,47.375,88.5996,46.9473,89.4434,46.3906L88.8691,45.2598C88.1309,45.7637,87.375,46.0625,86.4199,46.0625C84.5625,46.0625,83.2852,44.6797,83.1797,42.5L89.7656,42.5C89.8008,42.248,89.8418,41.9258,89.8418,41.5684C89.8418,38.6914,88.4355,36.875,85.9336,36.875C83.7012,36.875,81.5566,38.8613,81.5566,42.125C81.5566,45.4648,83.6309,47.375,86.2383,47.375ZM83.1621,41.334C83.3555,39.3242,84.5801,38.1934,85.9688,38.1934C87.498,38.1934,88.4004,39.2891,88.4004,41.334L83.1621,41.334ZM92.4023,47L94.0605,47L94.0605,40.6484C94.7051,38.9727,95.6953,38.3516,96.5098,38.3516C96.9199,38.3516,97.1367,38.4102,97.459,38.5156L97.7695,37.25C97.459,36.9336,97.1543,36.875,96.7207,36.875C95.6426,36.875,94.6348,37.6719,93.9492,38.9199L93.9141,38.9199L93.7559,37.25L92.4023,37.25L92.4023,47ZM103.488,47.375C104.801,47.375,105.85,46.9473,106.693,46.3906L106.119,45.2598C105.381,45.7637,104.625,46.0625,103.67,46.0625C101.812,46.0625,100.535,44.6797,100.43,42.5L107.016,42.5C107.051,42.248,107.092,41.9258,107.092,41.5684C107.092,38.6914,105.686,36.875,103.184,36.875C100.951,36.875,98.8066,38.8613,98.8066,42.125C98.8066,45.4648,100.881,47.375,103.488,47.375ZM100.412,41.334C100.605,39.3242,101.83,38.1934,103.219,38.1934C104.748,38.1934,105.65,39.2891,105.65,41.334L100.412,41.334ZM116.027,47.375C117.234,47.375,118.33,46.748,119.268,45.9688L119.32,45.9688L119.467,47L120.814,47L120.814,40.9238C120.814,38.4629,119.824,36.875,117.434,36.875C115.846,36.875,114.48,37.5781,113.596,38.1582L114.229,39.3008C115.002,38.7734,116.027,38.2461,117.164,38.2461C118.764,38.2461,119.18,39.4648,119.18,40.7422C115.02,41.2109,113.186,42.2891,113.186,44.4336C113.186,46.3672,114.393,47.375,116.027,47.375ZM116.496,46.0449C115.523,46.0449,114.768,45.5996,114.768,44.4512C114.768,43.1504,115.887,42.3125,119.18,41.9258L119.18,44.7266C118.225,45.5996,117.434,46.0449,116.496,46.0449ZM123.902,47L125.561,47L125.561,39.8281C126.533,38.8262,127.213,38.3164,128.221,38.3164C129.521,38.3164,130.078,39.1016,130.078,40.959L130.078,47L131.719,47L131.719,40.7422C131.719,38.2285,130.781,36.875,128.73,36.875C127.395,36.875,126.369,37.6133,125.449,38.5566L125.414,38.5566L125.256,37.25L123.902,37.25L123.902,47ZM138.111,47.375C139.277,47.375,140.32,46.748,141.076,45.9922L141.135,45.9922L141.275,47L142.629,47L142.629,32.5742L140.971,32.5742L140.971,36.3359L141.059,38.0117C140.197,37.3086,139.459,36.875,138.305,36.875C136.072,36.875,134.074,38.8613,134.074,42.0664C134.074,45.5117,135.662,47.375,138.111,47.375ZM138.469,45.9922C136.758,45.9922,135.768,44.5625,135.768,42.1309C135.768,39.8281,137.027,38.2637,138.592,38.2637C139.406,38.2637,140.162,38.5625,140.971,39.3242L140.971,44.6152C140.162,45.5469,139.371,45.9922,138.469,45.9922ZM1.65234,73L3.31055,73L3.31055,66.6484C3.95508,64.9727,4.94531,64.3516,5.75977,64.3516C6.16992,64.3516,6.38672,64.4102,6.70898,64.5156L7.01953,63.25C6.70898,62.9336,6.4043,62.875,5.9707,62.875C4.89258,62.875,3.88477,63.6719,3.19922,64.9199L3.16406,64.9199L3.00586,63.25L1.65234,63.25L1.65234,73ZM12.7383,73.375C14.0508,73.375,15.0996,72.9473,15.9434,72.3906L15.3691,71.2598C14.6309,71.7637,13.875,72.0625,12.9199,72.0625C11.0625,72.0625,9.78516,70.6797,9.67969,68.5L16.2656,68.5C16.3008,68.248,16.3418,67.9258,16.3418,67.5684C16.3418,64.6914,14.9355,62.875,12.4336,62.875C10.2012,62.875,8.05664,64.8613,8.05664,68.125C8.05664,71.4648,10.1309,73.375,12.7383,73.375ZM9.66211,67.334C9.85547,65.3242,11.0801,64.1934,12.4688,64.1934C13.998,64.1934,14.9004,65.2891,14.9004,67.334L9.66211,67.334ZM22.7578,73.375C23.9238,73.375,25.043,72.9121,25.9219,72.1562L25.2012,71.0078C24.5918,71.5645,23.8008,72.0098,22.8984,72.0098C21.0996,72.0098,19.875,70.4688,19.875,68.1484C19.875,65.8223,21.1699,64.2637,22.9512,64.2637C23.707,64.2637,24.3398,64.6152,24.8965,65.1367L25.7285,64.0293C25.043,63.4199,24.1582,62.875,22.8809,62.875C20.3613,62.875,18.1816,64.7852,18.1816,68.1484C18.1816,71.4883,20.1621,73.375,22.7578,73.375ZM31.8633,73.375C33.1758,73.375,34.2246,72.9473,35.0684,72.3906L34.4941,71.2598C33.7559,71.7637,33,72.0625,32.0449,72.0625C30.1875,72.0625,28.9102,70.6797,28.8047,68.5L35.3906,68.5C35.4258,68.248,35.4668,67.9258,35.4668,67.5684C35.4668,64.6914,34.0605,62.875,31.5586,62.875C29.3262,62.875,27.1816,64.8613,27.1816,68.125C27.1816,71.4648,29.2559,73.375,31.8633,73.375ZM28.7871,67.334C28.9805,65.3242,30.2051,64.1934,31.5938,64.1934C33.123,64.1934,34.0254,65.2891,34.0254,67.334L28.7871,67.334ZM38.0273,73L39.6855,73L39.6855,63.25L38.0273,63.25L38.0273,73ZM38.8535,61.2871C39.5039,61.2871,39.9551,60.8535,39.9551,60.1914C39.9551,59.5586,39.5039,59.125,38.8535,59.125C38.209,59.125,37.7754,59.5586,37.7754,60.1914C37.7754,60.8535,38.209,61.2871,38.8535,61.2871ZM45.0117,73L46.9336,73L50.3906,63.25L48.7734,63.25L46.916,68.7988C46.6289,69.748,46.3066,70.7383,46.0195,71.6699L45.9258,71.6699C45.6387,70.7383,45.334,69.748,45.0293,68.7988L43.1895,63.25L41.4785,63.25L45.0117,73ZM56.2383,73.375C57.5508,73.375,58.5996,72.9473,59.4434,72.3906L58.8691,71.2598C58.1309,71.7637,57.375,72.0625,56.4199,72.0625C54.5625,72.0625,53.2852,70.6797,53.1797,68.5L59.7656,68.5C59.8008,68.248,59.8418,67.9258,59.8418,67.5684C59.8418,64.6914,58.4355,62.875,55.9336,62.875C53.7012,62.875,51.5566,64.8613,51.5566,68.125C51.5566,71.4648,53.6309,73.375,56.2383,73.375ZM53.1621,67.334C53.3555,65.3242,54.5801,64.1934,55.9688,64.1934C57.498,64.1934,58.4004,65.2891,58.4004,67.334L53.1621,67.334ZM68.7773,73.375C69.9844,73.375,71.0801,72.748,72.0176,71.9688L72.0703,71.9688L72.2168,73L73.5645,73L73.5645,66.9238C73.5645,64.4629,72.5742,62.875,70.1836,62.875C68.5957,62.875,67.2305,63.5781,66.3457,64.1582L66.9785,65.3008C67.752,64.7734,68.7773,64.2461,69.9141,64.2461C71.5137,64.2461,71.9297,65.4648,71.9297,66.7422C67.7695,67.2109,65.9355,68.2891,65.9355,70.4336C65.9355,72.3672,67.1426,73.375,68.7773,73.375ZM69.2461,72.0449C68.2734,72.0449,67.5176,71.5996,67.5176,70.4512C67.5176,69.1504,68.6367,68.3125,71.9297,67.9258L71.9297,70.7266C70.9746,71.5996,70.1836,72.0449,69.2461,72.0449ZM76.6523,73L78.3105,73L78.3105,63.25L76.6523,63.25L76.6523,73ZM77.4785,61.2871C78.1289,61.2871,78.5801,60.8535,78.5801,60.1914C78.5801,59.5586,78.1289,59.125,77.4785,59.125C76.834,59.125,76.4004,59.5586,76.4004,60.1914C76.4004,60.8535,76.834,61.2871,77.4785,61.2871ZM84.8613,73.375C86.0273,73.375,87.0703,72.748,87.8262,71.9922L87.8848,71.9922L88.0254,73L89.3789,73L89.3789,58.5742L87.7207,58.5742L87.7207,62.3359L87.8086,64.0117C86.9473,63.3086,86.209,62.875,85.0547,62.875C82.8223,62.875,80.8242,64.8613,80.8242,68.0664C80.8242,71.5117,82.4121,73.375,84.8613,73.375ZM85.2188,71.9922C83.5078,71.9922,82.5176,70.5625,82.5176,68.1309C82.5176,65.8281,83.7773,64.2637,85.3418,64.2637C86.1562,64.2637,86.9121,64.5625,87.7207,65.3242L87.7207,70.6152C86.9121,71.5469,86.1211,71.9922,85.2188,71.9922ZM95.332,73.375C97.6406,73.375,98.8828,72.0625,98.8828,70.4277C98.8828,68.5176,97.3301,67.9258,95.9121,67.3691C94.8105,66.9414,93.8027,66.5664,93.8027,65.623C93.8027,64.8262,94.3828,64.1582,95.625,64.1582C96.4863,64.1582,97.1719,64.5449,97.834,65.0488L98.6309,63.9941C97.8926,63.3848,96.8086,62.875,95.6016,62.875C93.4629,62.875,92.2383,64.0996,92.2383,65.6934C92.2383,67.4219,93.7148,68.0898,95.0801,68.6113C96.1641,69.0156,97.3125,69.502,97.3125,70.5215C97.3125,71.3945,96.6855,72.0977,95.3906,72.0977C94.2188,72.0977,93.3516,71.6172,92.4902,70.8906L91.6992,72.0273C92.6133,72.8008,93.9492,73.375,95.332,73.375ZM107.402,73.375C108.609,73.375,109.705,72.748,110.643,71.9688L110.695,71.9688L110.842,73L112.189,73L112.189,66.9238C112.189,64.4629,111.199,62.875,108.809,62.875C107.221,62.875,105.855,63.5781,104.971,64.1582L105.604,65.3008C106.377,64.7734,107.402,64.2461,108.539,64.2461C110.139,64.2461,110.555,65.4648,110.555,66.7422C106.395,67.2109,104.561,68.2891,104.561,70.4336C104.561,72.3672,105.768,73.375,107.402,73.375ZM107.871,72.0449C106.898,72.0449,106.143,71.5996,106.143,70.4512C106.143,69.1504,107.262,68.3125,110.555,67.9258L110.555,70.7266C109.6,71.5996,108.809,72.0449,107.871,72.0449ZM118.336,73.375C118.951,73.375,119.596,73.1992,120.158,73.0176L119.83,71.7695C119.508,71.916,119.074,72.0449,118.717,72.0449C117.58,72.0449,117.205,71.3535,117.205,70.1465L117.205,64.5859L119.871,64.5859L119.871,63.25L117.205,63.25L117.205,60.4961L115.834,60.4961L115.658,63.25L114.105,63.3438L114.105,64.5859L115.564,64.5859L115.564,70.0879C115.564,72.0801,116.268,73.375,118.336,73.375ZM0.591797,90.5859L1.92188,90.5859L1.92188,99L3.5625,99L3.5625,90.5859L5.63086,90.5859L5.63086,89.25L3.5625,89.25L3.5625,87.668C3.5625,86.373,4.01367,85.6934,4.94531,85.6934C5.29102,85.6934,5.68359,85.7871,6.04688,85.9688L6.4043,84.6855C5.95312,84.5039,5.37891,84.375,4.76953,84.375C2.82422,84.375,1.92188,85.6172,1.92188,87.6504L1.92188,89.25L0.591797,89.3438L0.591797,90.5859ZM7.65234,99L9.31055,99L9.31055,89.25L7.65234,89.25L7.65234,99ZM8.47852,87.2871C9.12891,87.2871,9.58008,86.8535,9.58008,86.1914C9.58008,85.5586,9.12891,85.125,8.47852,85.125C7.83398,85.125,7.40039,85.5586,7.40039,86.1914C7.40039,86.8535,7.83398,87.2871,8.47852,87.2871ZM12.5273,99L14.1855,99L14.1855,92.6484C14.8301,90.9727,15.8203,90.3516,16.6348,90.3516C17.0449,90.3516,17.2617,90.4102,17.584,90.5156L17.8945,89.25C17.584,88.9336,17.2793,88.875,16.8457,88.875C15.7676,88.875,14.7598,89.6719,14.0742,90.9199L14.0391,90.9199L13.8809,89.25L12.5273,89.25L12.5273,99ZM22.207,99.375C24.5156,99.375,25.7578,98.0625,25.7578,96.4277C25.7578,94.5176,24.2051,93.9258,22.7871,93.3691C21.6855,92.9414,20.6777,92.5664,20.6777,91.623C20.6777,90.8262,21.2578,90.1582,22.5,90.1582C23.3613,90.1582,24.0469,90.5449,24.709,91.0488L25.5059,89.9941C24.7676,89.3848,23.6836,88.875,22.4766,88.875C20.3379,88.875,19.1133,90.0996,19.1133,91.6934C19.1133,93.4219,20.5898,94.0898,21.9551,94.6113C23.0391,95.0156,24.1875,95.502,24.1875,96.5215C24.1875,97.3945,23.5605,98.0977,22.2656,98.0977C21.0938,98.0977,20.2266,97.6172,19.3652,96.8906L18.5742,98.0273C19.4883,98.8008,20.8242,99.375,22.207,99.375ZM30.9609,99.375C31.5762,99.375,32.2207,99.1992,32.7832,99.0176L32.4551,97.7695C32.1328,97.916,31.6992,98.0449,31.3418,98.0449C30.2051,98.0449,29.8301,97.3535,29.8301,96.1465L29.8301,90.5859L32.4961,90.5859L32.4961,89.25L29.8301,89.25L29.8301,86.4961L28.459,86.4961L28.2832,89.25L26.7305,89.3438L26.7305,90.5859L28.1895,90.5859L28.1895,96.0879C28.1895,98.0801,28.8926,99.375,30.9609,99.375ZM38.7773,99L40.4355,99L40.4355,91.8281C41.4082,90.8262,42.0879,90.3164,43.0957,90.3164C44.3965,90.3164,44.9531,91.1016,44.9531,92.959L44.9531,99L46.5938,99L46.5938,92.7422C46.5938,90.2285,45.6562,88.875,43.6055,88.875C42.2695,88.875,41.2617,89.6133,40.3652,90.5156L40.4355,88.5L40.4355,84.5742L38.7773,84.5742L38.7773,99ZM51.9023,99.375C53.1094,99.375,54.2051,98.748,55.1426,97.9688L55.1953,97.9688L55.3418,99L56.6895,99L56.6895,92.9238C56.6895,90.4629,55.6992,88.875,53.3086,88.875C51.7207,88.875,50.3555,89.5781,49.4707,90.1582L50.1035,91.3008C50.877,90.7734,51.9023,90.2461,53.0391,90.2461C54.6387,90.2461,55.0547,91.4648,55.0547,92.7422C50.8945,93.2109,49.0605,94.2891,49.0605,96.4336C49.0605,98.3672,50.2676,99.375,51.9023,99.375ZM52.3711,98.0449C51.3984,98.0449,50.6426,97.5996,50.6426,96.4512C50.6426,95.1504,51.7617,94.3125,55.0547,93.9258L55.0547,96.7266C54.0996,97.5996,53.3086,98.0449,52.3711,98.0449ZM59.7773,99L61.4355,99L61.4355,91.8281C62.4082,90.8262,63.0879,90.3164,64.0957,90.3164C65.3965,90.3164,65.9531,91.1016,65.9531,92.959L65.9531,99L67.5938,99L67.5938,92.7422C67.5938,90.2285,66.6562,88.875,64.6055,88.875C63.2695,88.875,62.2441,89.6133,61.3242,90.5566L61.2891,90.5566L61.1309,89.25L59.7773,89.25L59.7773,99ZM73.9863,99.375C75.1523,99.375,76.1953,98.748,76.9512,97.9922L77.0098,97.9922L77.1504,99L78.5039,99L78.5039,84.5742L76.8457,84.5742L76.8457,88.3359L76.9336,90.0117C76.0723,89.3086,75.334,88.875,74.1797,88.875C71.9473,88.875,69.9492,90.8613,69.9492,94.0664C69.9492,97.5117,71.5371,99.375,73.9863,99.375ZM74.3438,97.9922C72.6328,97.9922,71.6426,96.5625,71.6426,94.1309C71.6426,91.8281,72.9023,90.2637,74.4668,90.2637C75.2812,90.2637,76.0371,90.5625,76.8457,91.3242L76.8457,96.6152C76.0371,97.5469,75.2461,97.9922,74.3438,97.9922Z" fill="#3D3D3D" fill-opacity="1"/></g></svg>