<svg xmlns="http://www.w3.org/2000/svg" xmlns:xlink="http://www.w3.org/1999/xlink" fill="none" version="1.1" width="454" height="935.9999389648438" viewBox="0 0 454 935.9999389648438"><defs><filter id="master_svg0_12_1797" filterUnits="objectBoundingBox" color-interpolation-filters="sRGB" x="-20" y="-16" width="454" height="935.9999389648438"><feFlood flood-opacity="0" result="BackgroundImageFix"/><feColorMatrix in="SourceAlpha" type="matrix" values="0 0 0 0 0 0 0 0 0 0 0 0 0 0 0 0 0 0 127 0"/><feOffset dy="4" dx="0"/><feGaussianBlur stdDeviation="5"/><feColorMatrix type="matrix" values="0 0 0 0 0 0 0 0 0 0 0 0 0 0 0 0 0 0 0.3019607961177826 0"/><feBlend mode="normal" in2="BackgroundImageFix" result="effect1_dropShadow"/><feBlend mode="normal" in="SourceGraphic" in2="effect1_dropShadow" result="shape"/></filter><filter id="master_svg1_12_1797/1_2942" filterUnits="objectBoundingBox" color-interpolation-filters="sRGB" x="-40" y="-32" width="340" height="129"><feFlood flood-opacity="0" result="BackgroundImageFix"/><feColorMatrix in="SourceAlpha" type="matrix" values="0 0 0 0 0 0 0 0 0 0 0 0 0 0 0 0 0 0 127 0"/><feOffset dy="4" dx="0"/><feGaussianBlur stdDeviation="5"/><feColorMatrix type="matrix" values="0 0 0 0 0 0 0 0 0 0 0 0 0 0 0 0 0 0 0.3019607961177826 0"/><feBlend mode="normal" in2="BackgroundImageFix" result="effect1_dropShadow"/><feBlend mode="normal" in="SourceGraphic" in2="effect1_dropShadow" result="shape"/></filter><clipPath id="master_svg2_12_1797/1_2942/1_1706"><rect x="100" y="376" width="254" height="39" rx="8"/></clipPath></defs><g style="mix-blend-mode:passthrough" filter="url(#master_svg0_12_1797)"><g style="mix-blend-mode:passthrough" filter="url(#master_svg1_12_1797/1_2942)"><g style="mix-blend-mode:passthrough" clip-path="url(#master_svg2_12_1797/1_2942/1_1706)"><rect x="100" y="376" width="254" height="39" rx="8" fill="#FFFFFF" fill-opacity="1"/><g style="mix-blend-mode:passthrough"><g style="mix-blend-mode:passthrough"><g style="mix-blend-mode:passthrough"><path d="M114.10938,393.66667L114.10938,394.6615L121.901,394.6615L121.901,393.66667L114.10938,393.66667ZM114.10938,396L114.10938,396.9792L121.901,396.9792L121.901,396L114.10938,396ZM112.95833,391.3125L112.95833,392.33333L123.151,392.33333L123.151,391.3125L112.95833,391.3125ZM116.65625,388.9375C117.08854,389.65104,117.56771,390.61458,117.79167,391.22917L118.8646,390.71875C118.6406,390.125,118.1562,389.20833,117.69271,388.51562L116.65625,388.9375ZM113.90104,398.3333L113.90104,403.5833L114.94271,403.5833L114.94271,402.9948L120.974,402.9948L120.974,403.5365L122.0625,403.5365L122.0625,398.3333L113.90104,398.3333ZM114.94271,402L114.94271,399.3281L120.974,399.3281L120.974,402L114.94271,402ZM112.09375,388.58333C111.27604,391.14062,109.94792,393.60417,108.510417,395.1979C108.71875,395.4844,109.06771,396.099,109.18229,396.3542C109.70833,395.75,110.22396,395.0156,110.70312,394.2448L110.70312,403.625L111.80729,403.625L111.80729,392.25521C112.33333,391.22917,112.79688,390.07292,113.16667,388.92188L112.09375,388.58333ZM128.2552,393.25L135.6771,393.25L135.6771,394.6667L128.2552,394.6667L128.2552,393.25ZM128.2552,395.599L135.6771,395.599L135.6771,396.7083L128.2552,396.7083L128.2552,395.599ZM128.2552,390.96354L135.6771,390.96354L135.6771,392.33333L128.2552,392.33333L128.2552,390.96354ZM128.1875,398.8021L128.1875,401.4792C128.1875,402.7708,128.6875,403.1042,130.5417,403.1042C130.9271,403.1042,133.8229,403.1042,134.224,403.1042C135.776,403.1042,136.1719,402.625,136.3333,400.5417C136,400.474,135.4844,400.2969,135.2135,400.099C135.1354,401.7708,135.0052,402,134.1406,402C133.5,402,131.0885,402,130.6042,402C129.5833,402,129.3906,401.9219,129.3906,401.4635L129.3906,398.8021L128.1875,398.8021ZM136.2083,398.9635C136.9427,400,137.7083,401.4115,137.9844,402.3073L139.1198,401.7917C138.8125,400.8854,138.0312,399.5052,137.276,398.5052L136.2083,398.9635ZM126.3646,398.7708C125.97919999999999,399.8021,125.3594,401.2135,124.7188,402.1146L125.8229,402.6406C126.4115,401.7083,126.9896,400.2604,127.3906,399.2292L126.3646,398.7708ZM130.7031,398.1771C131.5156,398.9479,132.4479,400.0469,132.8438,400.7865L133.8229,400.1667C133.3906,399.4583,132.4792,398.4062,131.6458,397.6667L136.8802,397.6667L136.8802,390L132.0938,390C132.3333,389.57812,132.6042,389.07292,132.8438,388.56771L131.4375,388.32292C131.3125,388.79688,131.0521,389.46354,130.8438,390L127.10419999999999,390L127.10419999999999,397.6667L131.5677,397.6667L130.7031,398.1771ZM147.4844,393.63021L147.4844,394.6667L152.9115,394.6667L152.9115,393.63021L147.4844,393.63021ZM146.349,396.4583C146.7969,397.6979,147.2448,399.3229,147.375,400.401L148.3646,400.1042C148.224,399.0625,147.776,397.4531,147.2917,396.2135L146.349,396.4583ZM149.4531,396.0052C149.7448,397.2396,150.0156,398.8542,150.0938,399.9271L151.1042,399.75C151.0052,398.6875,150.7188,397.1094,150.3958,395.875L149.4531,396.0052ZM142.8594,388.48438L142.8594,391.54688L140.7812,391.54688L140.7812,392.66667L142.75,392.66667C142.3177,394.9427,141.4219,397.4688,140.526,398.8021C140.7188,399.099,141.0052,399.6354,141.1354,399.9948C141.776,398.9844,142.3802,397.3542,142.8594,395.6615L142.8594,403.5052L143.9635,403.5052L143.9635,395.0417C144.3802,395.8385,144.8438,396.7865,145.0521,397.2917L145.776,396.4271C145.5365,395.9375,144.3333,394.0312,143.9635,393.45833L143.9635,392.66667L145.6302,392.66667L145.6302,391.54688L143.9635,391.54688L143.9635,388.48438L142.8594,388.48438ZM149.9844,388.36979C148.8958,390.64583,146.9896,392.6875,144.974,394.0781C145.1979,394.3177,145.5521,394.8333,145.6927,395.0729C147.3281,393.93229,148.9271,392.17188,150.1406,390.32292C151.375,391.93229,153.2135,393.82292,154.8281,394.8958C154.9583,394.5729,155.2292,394.0938,155.4531,393.80729C153.8229,392.6875,151.8229,390.92188,150.7188,389.35417L151.0365,388.75521L149.9844,388.36979ZM145.4844,401.6667L145.4844,402.7396L155.0052,402.7396L155.0052,401.6667L152.0625,401.6667C152.8958,400.1406,153.8542,397.9271,154.526,396.1667L153.4688,395.875C152.9115,397.6146,151.901,400.1042,151.0365,401.6667L145.4844,401.6667ZM166.125,400.5729C167.4844,401.3073,169.1979,402.4323,170.0312,403.1667L171.0052,402.4635C170.0938,401.724,168.3646,400.6667,167.0365,399.9792L166.125,400.5729ZM160.6354,400.0573C159.724,400.9219,158.2865,401.8229,156.974,402.4167C157.2448,402.6094,157.6927,402.9896,157.901,403.2135C159.1667,402.5625,160.7031,401.5,161.724,400.4896L160.6354,400.0573ZM159.1042,397.0469C159.375,396.9271,159.7917,396.875,162.7344,396.6667C161.4219,397.3333,160.3021,397.849,159.7917,398.0521C158.8594,398.4583,158.1562,398.6823,157.6302,398.7292C157.7396,399.0312,157.901,399.5781,157.9479,399.7865C158.3646,399.6406,158.9896,399.5781,163.6615,399.2708L163.6615,402.0781C163.6615,402.2708,163.599,402.3333,163.3281,402.3333C163.0885,402.3698,162.224,402.3698,161.2292,402.3333C161.4219,402.6562,161.6146,403.1042,161.6771,403.4375C162.8438,403.4375,163.6615,403.4375,164.1562,403.25C164.6875,403.0729,164.8281,402.75,164.8281,402.1094L164.8281,399.125L168.75,398.8802C169.1823,399.3385,169.5677,399.8021,169.8229,400.1615L170.75,399.5052C170.0625,398.6094,168.625,397.2708,167.4844,396.3333L166.6406,396.8906C167.0521,397.2656,167.5,397.6927,167.9323,398.1406L160.9427,398.5208C163.1979,397.625,165.4688,396.4948,167.6302,395.1771L166.7656,394.4427C166.0625,394.9062,165.2917,395.3385,164.5104,395.7552L160.9427,395.9635C162.0469,395.4219,163.151,394.7604,164.1562,394.0365L163.6771,393.66667L169.7917,393.66667L169.7917,395.6667L170.974,395.6667L170.974,392.63021L164.6198,392.63021L164.6198,391L170.7656,391L170.7656,389.94792L164.6198,389.94792L164.6198,388.47917L163.375,388.47917L163.375,389.94792L157.2135,389.94792L157.2135,391L163.375,391L163.375,392.63021L157.0521,392.63021L157.0521,395.6667L158.1875,395.6667L158.1875,393.66667L162.9427,393.66667C161.8073,394.5521,160.3802,395.3229,159.9323,395.5469C159.4844,395.7865,159.0833,395.9323,158.7812,395.9635C158.8958,396.2552,159.0521,396.8073,159.1042,397.0469Z" fill="#767676" fill-opacity="1"/></g></g></g><rect x="100.5" y="376.5" width="253" height="38" rx="7.5" fill-opacity="0" stroke-opacity="0.800000011920929" stroke="#BFBFBF" fill="none" stroke-width="1"/></g></g></g></svg>