<svg xmlns="http://www.w3.org/2000/svg" xmlns:xlink="http://www.w3.org/1999/xlink" fill="none" version="1.1" width="79" height="23" viewBox="0 0 79 23"><g style="mix-blend-mode:passthrough"><path d="M2.3164100000000003,21.5L3.96875,21.5L3.96875,8.375L2.3164100000000003,8.375L2.3164100000000003,21.5ZM10.7363,21.875C11.9023,21.875,12.9453,21.248,13.7012,20.4922L13.7598,20.4922L13.9004,21.5L15.2539,21.5L15.2539,7.07422L13.5957,7.07422L13.5957,10.8359L13.6836,12.5117C12.8223,11.8086,12.084,11.375,10.9297,11.375C8.69727,11.375,6.69922,13.3613,6.69922,16.5664C6.69922,20.0117,8.28711,21.875,10.7363,21.875ZM11.0938,20.4922C9.38281,20.4922,8.392579999999999,19.0625,8.392579999999999,16.6309C8.392579999999999,14.3281,9.65234,12.7637,11.2168,12.7637C12.0312,12.7637,12.7871,13.0625,13.5957,13.8242L13.5957,19.1152C12.7871,20.0469,11.9961,20.4922,11.0938,20.4922ZM22.6133,21.875C23.9258,21.875,24.9746,21.4473,25.8184,20.8906L25.2441,19.7598C24.5059,20.2637,23.75,20.5625,22.7949,20.5625C20.9375,20.5625,19.6602,19.1797,19.5547,17L26.1406,17C26.1758,16.748,26.2168,16.425800000000002,26.2168,16.0684C26.2168,13.1914,24.8105,11.375,22.3086,11.375C20.0762,11.375,17.9316,13.3613,17.9316,16.625C17.9316,19.9648,20.0059,21.875,22.6133,21.875ZM19.5371,15.834C19.7305,13.8242,20.9551,12.6934,22.3438,12.6934C23.873,12.6934,24.7754,13.7891,24.7754,15.834L19.5371,15.834ZM28.7773,21.5L30.4355,21.5L30.4355,14.3281C31.4082,13.3262,32.087900000000005,12.8164,33.0957,12.8164C34.3965,12.8164,34.9531,13.6016,34.9531,15.459L34.9531,21.5L36.5938,21.5L36.5938,15.2422C36.5938,12.7285,35.6562,11.375,33.6055,11.375C32.2695,11.375,31.2441,12.1133,30.3242,13.0566L30.2891,13.0566L30.1309,11.75L28.7773,11.75L28.7773,21.5ZM42.7109,21.875C43.3262,21.875,43.9707,21.6992,44.5332,21.5176L44.2051,20.2695C43.8828,20.416,43.4492,20.5449,43.0918,20.5449C41.9551,20.5449,41.5801,19.8535,41.5801,18.6465L41.5801,13.0859L44.2461,13.0859L44.2461,11.75L41.5801,11.75L41.5801,8.99609L40.209,8.99609L40.0332,11.75L38.4805,11.8438L38.4805,13.0859L39.9395,13.0859L39.9395,18.5879C39.9395,20.5801,40.6426,21.875,42.7109,21.875ZM46.4023,21.5L48.0605,21.5L48.0605,11.75L46.4023,11.75L46.4023,21.5ZM47.2285,9.78711C47.8789,9.78711,48.3301,9.35352,48.3301,8.69141C48.3301,8.058589999999999,47.8789,7.625,47.2285,7.625C46.584,7.625,46.1504,8.058589999999999,46.1504,8.69141C46.1504,9.35352,46.584,9.78711,47.2285,9.78711ZM54.3359,21.875C54.9512,21.875,55.5957,21.6992,56.1582,21.5176L55.8301,20.2695C55.5078,20.416,55.0742,20.5449,54.7168,20.5449C53.5801,20.5449,53.2051,19.8535,53.2051,18.6465L53.2051,13.0859L55.8711,13.0859L55.8711,11.75L53.2051,11.75L53.2051,8.99609L51.834,8.99609L51.6582,11.75L50.1055,11.8438L50.1055,13.0859L51.5645,13.0859L51.5645,18.5879C51.5645,20.5801,52.2676,21.875,54.3359,21.875ZM58.1914,25.625C60.1367,25.625,61.1621,24.1543,61.8418,22.2617L65.5156,11.75L63.916,11.75L62.1523,17.123C61.9004,17.9961,61.6133,18.9805,61.3613,19.8711L61.2676,19.8711C60.9277,18.9629,60.5996,17.9785,60.2949,17.123L58.3145,11.75L56.6035,11.75L60.5293,21.459L60.3125,22.1914C59.9023,23.3867,59.2168,24.2773,58.1211,24.2773C57.8457,24.2773,57.5586,24.1895,57.3594,24.1191L57.0371,25.4316C57.3418,25.5547,57.7402,25.625,58.1914,25.625Z" fill="#000000" fill-opacity="1"/><path d="M2.3164100000000003,21.5L3.96875,21.5L3.96875,8.375L2.3164100000000003,8.375L2.3164100000000003,21.5ZM10.7363,21.875C11.9023,21.875,12.9453,21.248,13.7012,20.4922L13.7598,20.4922L13.9004,21.5L15.2539,21.5L15.2539,7.07422L13.5957,7.07422L13.5957,10.8359L13.6836,12.5117C12.8223,11.8086,12.084,11.375,10.9297,11.375C8.69727,11.375,6.69922,13.3613,6.69922,16.5664C6.69922,20.0117,8.28711,21.875,10.7363,21.875ZM11.0938,20.4922C9.38281,20.4922,8.392579999999999,19.0625,8.392579999999999,16.6309C8.392579999999999,14.3281,9.65234,12.7637,11.2168,12.7637C12.0312,12.7637,12.7871,13.0625,13.5957,13.8242L13.5957,19.1152C12.7871,20.0469,11.9961,20.4922,11.0938,20.4922ZM22.6133,21.875C23.9258,21.875,24.9746,21.4473,25.8184,20.8906L25.2441,19.7598C24.5059,20.2637,23.75,20.5625,22.7949,20.5625C20.9375,20.5625,19.6602,19.1797,19.5547,17L26.1406,17C26.1758,16.748,26.2168,16.425800000000002,26.2168,16.0684C26.2168,13.1914,24.8105,11.375,22.3086,11.375C20.0762,11.375,17.9316,13.3613,17.9316,16.625C17.9316,19.9648,20.0059,21.875,22.6133,21.875ZM19.5371,15.834C19.7305,13.8242,20.9551,12.6934,22.3438,12.6934C23.873,12.6934,24.7754,13.7891,24.7754,15.834L19.5371,15.834ZM28.7773,21.5L30.4355,21.5L30.4355,14.3281C31.4082,13.3262,32.087900000000005,12.8164,33.0957,12.8164C34.3965,12.8164,34.9531,13.6016,34.9531,15.459L34.9531,21.5L36.5938,21.5L36.5938,15.2422C36.5938,12.7285,35.6562,11.375,33.6055,11.375C32.2695,11.375,31.2441,12.1133,30.3242,13.0566L30.2891,13.0566L30.1309,11.75L28.7773,11.75L28.7773,21.5ZM42.7109,21.875C43.3262,21.875,43.9707,21.6992,44.5332,21.5176L44.2051,20.2695C43.8828,20.416,43.4492,20.5449,43.0918,20.5449C41.9551,20.5449,41.5801,19.8535,41.5801,18.6465L41.5801,13.0859L44.2461,13.0859L44.2461,11.75L41.5801,11.75L41.5801,8.99609L40.209,8.99609L40.0332,11.75L38.4805,11.8438L38.4805,13.0859L39.9395,13.0859L39.9395,18.5879C39.9395,20.5801,40.6426,21.875,42.7109,21.875ZM46.4023,21.5L48.0605,21.5L48.0605,11.75L46.4023,11.75L46.4023,21.5ZM47.2285,9.78711C47.8789,9.78711,48.3301,9.35352,48.3301,8.69141C48.3301,8.058589999999999,47.8789,7.625,47.2285,7.625C46.584,7.625,46.1504,8.058589999999999,46.1504,8.69141C46.1504,9.35352,46.584,9.78711,47.2285,9.78711ZM54.3359,21.875C54.9512,21.875,55.5957,21.6992,56.1582,21.5176L55.8301,20.2695C55.5078,20.416,55.0742,20.5449,54.7168,20.5449C53.5801,20.5449,53.2051,19.8535,53.2051,18.6465L53.2051,13.0859L55.8711,13.0859L55.8711,11.75L53.2051,11.75L53.2051,8.99609L51.834,8.99609L51.6582,11.75L50.1055,11.8438L50.1055,13.0859L51.5645,13.0859L51.5645,18.5879C51.5645,20.5801,52.2676,21.875,54.3359,21.875ZM58.1914,25.625C60.1367,25.625,61.1621,24.1543,61.8418,22.2617L65.5156,11.75L63.916,11.75L62.1523,17.123C61.9004,17.9961,61.6133,18.9805,61.3613,19.8711L61.2676,19.8711C60.9277,18.9629,60.5996,17.9785,60.2949,17.123L58.3145,11.75L56.6035,11.75L60.5293,21.459L60.3125,22.1914C59.9023,23.3867,59.2168,24.2773,58.1211,24.2773C57.8457,24.2773,57.5586,24.1895,57.3594,24.1191L57.0371,25.4316C57.3418,25.5547,57.7402,25.625,58.1914,25.625Z" fill-opacity="0" stroke-opacity="1" stroke="#000000" fill="none" stroke-width="1"/></g></svg>