<svg xmlns="http://www.w3.org/2000/svg" xmlns:xlink="http://www.w3.org/1999/xlink" fill="none" version="1.1" width="45" height="45" viewBox="0 0 45 45"><defs><filter id="master_svg0_12_11435" filterUnits="objectBoundingBox" color-interpolation-filters="sRGB" x="0" y="0" width="45" height="45"><feFlood flood-opacity="0" result="BackgroundImageFix"/><feBlend mode="normal" in="SourceGraphic" in2="BackgroundImageFix" result="shape"/><feColorMatrix in="SourceAlpha" type="matrix" result="hardAlpha" values="0 0 0 0 0 0 0 0 0 0 0 0 0 0 0 0 0 0 127 0"/><feOffset dy="4" dx="0"/><feGaussianBlur stdDeviation="5"/><feComposite in2="hardAlpha" operator="arithmetic" k2="-1" k3="1"/><feColorMatrix type="matrix" values="0 0 0 0 0 0 0 0 0 0 0 0 0 0 0 0 0 0 0.3019607961177826 0"/><feBlend mode="normal" in2="shape" result="effect1_innerShadow"/></filter><clipPath id="master_svg1_12_11435"><rect x="0" y="0" width="45" height="45" rx="0"/></clipPath></defs><g style="mix-blend-mode:passthrough" filter="url(#master_svg0_12_11435)"><g clip-path="url(#master_svg1_12_11435)"><g style="mix-blend-mode:passthrough"><path d="M19.7404341796875,4.280859379150391C20.5828341796875,3.8065723791503907,21.5332341796875,3.5574073791503906,22.5000341796875,3.5574073791503906C23.4667341796875,3.5574073791503906,24.4172341796875,3.8065723791503907,25.2596341796875,4.280859379150391C26.1021341796875,4.75514737915039,26.8080341796875,5.4385573791503905,27.3094341796875,6.26513737915039C27.3094341796875,6.26513737915039,27.3148341796875,6.274017379150391,27.3148341796875,6.274017379150391C27.3148341796875,6.274017379150391,43.1961341796875,32.78660737915039,43.1961341796875,32.78660737915039C43.1961341796875,32.78660737915039,43.2112341796875,32.81250737915039,43.2112341796875,32.81250737915039C43.7025341796875,33.663007379150386,43.9624341796875,34.627307379150395,43.9650341796875,35.60960737915039C43.9678341796875,36.59170737915039,43.7134341796875,37.557507379150394,43.2270341796875,38.41080737915039C42.7406341796875,39.26410737915039,42.0392341796875,39.97520737915039,41.1926341796875,40.47330737915039C40.3462341796875,40.97130737915039,39.3840341796875,41.23910737915039,38.4019341796875,41.25000737915039C38.4019341796875,41.25000737915039,38.3812341796875,41.25010737915039,38.3812341796875,41.25010737915039C38.3812341796875,41.25010737915039,6.5982141796875,41.25000737915039,6.5982141796875,41.25000737915039C5.6160741796875,41.23930737915039,4.6538941796875,40.97130737915039,3.8073941796875,40.47330737915039C2.9608841796875,39.97520737915039,2.2595441796875,39.26410737915039,1.7731611796875,38.41080737915039C1.2867811796875,37.557507379150394,1.0323061896875,36.59170737915039,1.0350562345875,35.60960737915039C1.0378063896875,34.627307379150395,1.2976861796875,33.663007379150386,1.7888361796874999,32.81250737915039C1.7888361796874999,32.81250737915039,1.8040691796875001,32.78660737915039,1.8040691796875001,32.78660737915039C1.8040691796875001,32.78660737915039,17.6906341796875,6.265117379150391,17.6906341796875,6.265117379150391C18.1920341796875,5.43853737915039,18.8980341796875,4.75514737915039,19.7404341796875,4.280859379150391C19.7404341796875,4.280859379150391,19.7404341796875,4.280859379150391,19.7404341796875,4.280859379150391ZM22.5000341796875,7.307407379150391C22.1779341796875,7.307407379150391,21.8610341796875,7.39046737915039,21.5801341796875,7.54854737915039C21.3006341796875,7.705937379150391,21.0662341796875,7.932397379150391,20.8991341796875,8.20624737915039C20.8991341796875,8.20624737915039,5.0301141796875,34.69850737915039,5.0301141796875,34.69850737915039C4.8704041796875,34.97940737915039,4.7859541796875,35.296807379150394,4.7850341796875,35.62010737915039C4.7841341796875,35.94750737915039,4.8689441796874995,36.269407379150394,5.0310741796875,36.55380737915039C5.1932041796875,36.83830737915039,5.4269741796875,37.07530737915039,5.7091441796875,37.24120737915039C5.9888541796875,37.40580737915039,6.3064241796875,37.49490737915039,6.6308241796875,37.50000737915039C6.6308241796875,37.50000737915039,38.3692341796875,37.50000737915039,38.3692341796875,37.50000737915039C38.6936341796875,37.49490737915039,39.0112341796875,37.40580737915039,39.2910341796875,37.24120737915039C39.5732341796875,37.07530737915039,39.8068341796875,36.83830737915039,39.9690341796875,36.55380737915039C40.1312341796875,36.269407379150394,40.2159341796875,35.94750737915039,40.2150341796875,35.62010737915039C40.2142341796875,35.296807379150394,40.1297341796875,34.97940737915039,39.9701341796875,34.69850737915039C39.9701341796875,34.69850737915039,24.1031341796875,8.209977379150391,24.1031341796875,8.209977379150391C24.1024341796875,8.20873737915039,24.1016341796875,8.20747737915039,24.1009341796875,8.20624737915039C23.9338341796875,7.932397379150391,23.6994341796875,7.705937379150391,23.4199341796875,7.54854737915039C23.1392341796875,7.39046737915039,22.8223341796875,7.307407379150391,22.5000341796875,7.307407379150391C22.5000341796875,7.307407379150391,22.5000341796875,7.307407379150391,22.5000341796875,7.307407379150391Z" fill-rule="evenodd" fill="#000000" fill-opacity="1"/></g></g></g></svg>