<svg xmlns="http://www.w3.org/2000/svg" xmlns:xlink="http://www.w3.org/1999/xlink" fill="none" version="1.1" width="24" height="25" viewBox="0 0 24 25"><defs><clipPath id="master_svg0_14_0350"><rect x="0" y="1" width="24" height="24" rx="0"/></clipPath></defs><g style="mix-blend-mode:passthrough"><g style="mix-blend-mode:passthrough" clip-path="url(#master_svg0_14_0350)"><g style="mix-blend-mode:passthrough"><path d="M12.4780337890625,3C12.4780337890625,3,13.0550337890625,3,13.0550337890625,3C15.3857337890625,3.128207,17.5871337890625,4.1117799999999995,19.2376337890625,5.76232C20.8882337890625,7.41285,21.8718337890625,9.61431,22.0000337890625,11.945C22.0000337890625,11.963,22.0000337890625,11.98133,22.0000337890625,12C22.0000337890625,12,22.0000337890625,12.5,22.0000337890625,12.5C22.0000337890625,15.0196,20.9991337890625,17.4359,19.2175337890625,19.2175C17.4359337890625,20.9991,15.0195337890625,22,12.5000337890625,22C12.5000337890625,22,12.4770337890625,22,12.4770337890625,22C11.1520037890625,21.9984,9.8422137890625,21.7177,8.6329937890625,21.176C8.6329937890625,21.176,3.3159937890625,22.949,3.3159937890625,22.949C3.1398037890625,23.0078,2.9507197890625,23.0163,2.7699497890625002,22.9736C2.5891787890625,22.931,2.4238617890625,22.8388,2.2925267890625,22.7075C2.1611917890625,22.5761,2.0690293890625,22.4108,2.0263686890625,22.23C1.9837080890625,22.0493,1.9922354590625,21.8602,2.0509950890625,21.684C2.0509950890625,21.684,3.8239937890625,16.366,3.8239937890625,16.366C3.1804037890625,14.9214,2.9076427890625,13.3389,3.0304637890625,11.7622C3.1532837890625,10.185469999999999,3.6677937890625003,8.664349999999999,4.5273237890625,7.33681C5.386863789062501,6.00927,6.5642237890625,4.91732,7.9526137890625,4.16C9.341003789062501,3.40268,10.8964937890625,3.00395826,12.4780337890625,3C12.4780337890625,3,12.4780337890625,3,12.4780337890625,3ZM12.9720337890625,5C12.9720337890625,5,12.4780337890625,5,12.4780337890625,5C11.3223537890625,5.0015,10.1830637890625,5.27305,9.1509937890625,5.793C7.9044337890625,6.4151,6.8557837890625,7.37211,6.1226037890625,8.556750000000001C5.3894237890625,9.741389999999999,5.0006937890625,11.10683,4.999993789062501,12.5C4.9980937890625,13.6631,5.269733789062499,14.8103,5.7929937890625,15.849C5.8524837890625,15.9668,5.8880637890625,16.0953,5.8976737890625,16.2269C5.9072837890625,16.3585,5.890743789062499,16.4908,5.8489937890625,16.616C5.8489937890625,16.616,4.5809937890625,20.416,4.5809937890625,20.416C4.5809937890625,20.416,8.3809937890625,19.148,8.3809937890625,19.148C8.5062137890625,19.1063,8.638453789062499,19.0897,8.7700937890625,19.0993C8.9017337890625,19.1089,9.0301737890625,19.1445,9.1479937890625,19.204C10.1807037890625,19.7255,11.3210937890625,19.9981,12.4780337890625,20C12.4780337890625,20,12.4980337890625,20,12.4980337890625,20C13.8909337890625,19.9999,15.2562337890625,19.6118,16.4410337890625,18.8794C17.6258337890625,18.146900000000002,18.5832337890625,17.099,19.2060337890625,15.853C19.7301337890625,14.8131,20.0021337890625,13.6645,20.0000337890625,12.5C20.0000337890625,12.5,20.0000337890625,12.028,20.0000337890625,12.028C19.8924337890625,10.19915,19.1174337890625,8.47337,17.822033789062502,7.17794C16.5266337890625,5.8825199999999995,14.8008337890625,5.10754,12.9720337890625,5C12.9720337890625,5,12.9720337890625,5,12.9720337890625,5Z" fill="#000000" fill-opacity="1"/></g></g></g></svg>