<svg xmlns="http://www.w3.org/2000/svg" xmlns:xlink="http://www.w3.org/1999/xlink" fill="none" version="1.1" width="52" height="23" viewBox="0 0 52 23"><g style="mix-blend-mode:passthrough"><path d="M2.3164100000000003,21.5L3.96875,21.5L3.96875,8.375L2.3164100000000003,8.375L2.3164100000000003,21.5ZM7.40234,21.5L9.06055,21.5L9.06055,14.3281C10.0332,13.3262,10.7129,12.8164,11.7207,12.8164C13.0215,12.8164,13.5781,13.6016,13.5781,15.459L13.5781,21.5L15.2188,21.5L15.2188,15.2422C15.2188,12.7285,14.2812,11.375,12.2305,11.375C10.8945,11.375,9.86914,12.1133,8.94922,13.0566L8.91406,13.0566L8.75586,11.75L7.40234,11.75L7.40234,21.5ZM17.2168,13.0859L18.5469,13.0859L18.5469,21.5L20.1875,21.5L20.1875,13.0859L22.2559,13.0859L22.2559,11.75L20.1875,11.75L20.1875,10.16797C20.1875,8.87305,20.6387,8.19336,21.5703,8.19336C21.916,8.19336,22.3086,8.28711,22.6719,8.46875L23.0293,7.18555C22.5781,7.00391,22.0039,6.875,21.3945,6.875C19.4492,6.875,18.5469,8.11719,18.5469,10.15039L18.5469,11.75L17.2168,11.8438L17.2168,13.0859ZM28.0742,21.875C30.4707,21.875,32.5977,19.9883,32.5977,16.6484C32.5977,13.2852,30.4707,11.375,28.0742,11.375C25.6836,11.375,23.5566,13.2852,23.5566,16.6484C23.5566,19.9883,25.6836,21.875,28.0742,21.875ZM28.0742,20.5098C26.3867,20.5098,25.25,18.9688,25.25,16.6484C25.25,14.3223,26.3867,12.7637,28.0742,12.7637C29.7676,12.7637,30.9219,14.3223,30.9219,16.6484C30.9219,18.9688,29.7676,20.5098,28.0742,20.5098ZM38,12.875C38.7148,12.875,39.3652,12.3535,39.3652,11.5449C39.3652,10.7188,38.7148,10.17969,38,10.17969C37.2793,10.17969,36.6289,10.7188,36.6289,11.5449C36.6289,12.3535,37.2793,12.875,38,12.875ZM38,21.875C38.7148,21.875,39.3652,21.3359,39.3652,20.5273C39.3652,19.7012,38.7148,19.1797,38,19.1797C37.2793,19.1797,36.6289,19.7012,36.6289,20.5273C36.6289,21.3359,37.2793,21.875,38,21.875Z" fill="#000000" fill-opacity="1"/><path d="M2.3164100000000003,21.5L3.96875,21.5L3.96875,8.375L2.3164100000000003,8.375L2.3164100000000003,21.5ZM7.40234,21.5L9.06055,21.5L9.06055,14.3281C10.0332,13.3262,10.7129,12.8164,11.7207,12.8164C13.0215,12.8164,13.5781,13.6016,13.5781,15.459L13.5781,21.5L15.2188,21.5L15.2188,15.2422C15.2188,12.7285,14.2812,11.375,12.2305,11.375C10.8945,11.375,9.86914,12.1133,8.94922,13.0566L8.91406,13.0566L8.75586,11.75L7.40234,11.75L7.40234,21.5ZM17.2168,13.0859L18.5469,13.0859L18.5469,21.5L20.1875,21.5L20.1875,13.0859L22.2559,13.0859L22.2559,11.75L20.1875,11.75L20.1875,10.16797C20.1875,8.87305,20.6387,8.19336,21.5703,8.19336C21.916,8.19336,22.3086,8.28711,22.6719,8.46875L23.0293,7.18555C22.5781,7.00391,22.0039,6.875,21.3945,6.875C19.4492,6.875,18.5469,8.11719,18.5469,10.15039L18.5469,11.75L17.2168,11.8438L17.2168,13.0859ZM28.0742,21.875C30.4707,21.875,32.5977,19.9883,32.5977,16.6484C32.5977,13.2852,30.4707,11.375,28.0742,11.375C25.6836,11.375,23.5566,13.2852,23.5566,16.6484C23.5566,19.9883,25.6836,21.875,28.0742,21.875ZM28.0742,20.5098C26.3867,20.5098,25.25,18.9688,25.25,16.6484C25.25,14.3223,26.3867,12.7637,28.0742,12.7637C29.7676,12.7637,30.9219,14.3223,30.9219,16.6484C30.9219,18.9688,29.7676,20.5098,28.0742,20.5098ZM38,12.875C38.7148,12.875,39.3652,12.3535,39.3652,11.5449C39.3652,10.7188,38.7148,10.17969,38,10.17969C37.2793,10.17969,36.6289,10.7188,36.6289,11.5449C36.6289,12.3535,37.2793,12.875,38,12.875ZM38,21.875C38.7148,21.875,39.3652,21.3359,39.3652,20.5273C39.3652,19.7012,38.7148,19.1797,38,19.1797C37.2793,19.1797,36.6289,19.7012,36.6289,20.5273C36.6289,21.3359,37.2793,21.875,38,21.875Z" fill-opacity="0" stroke-opacity="1" stroke="#000000" fill="none" stroke-width="1"/></g></svg>