<svg xmlns="http://www.w3.org/2000/svg" xmlns:xlink="http://www.w3.org/1999/xlink" fill="none" version="1.1" width="24" height="24" viewBox="0 0 24 24"><defs><clipPath id="master_svg0_14_0350"><rect x="0" y="0" width="24" height="24" rx="0"/></clipPath></defs><g style="mix-blend-mode:passthrough" clip-path="url(#master_svg0_14_0350)"><g style="mix-blend-mode:passthrough"><path d="M12.4780337890625,2C12.4780337890625,2,13.0550337890625,2,13.0550337890625,2C15.3857337890625,2.128207,17.5871337890625,3.11178,19.2376337890625,4.76232C20.8882337890625,6.41285,21.8718337890625,8.61431,22.0000337890625,10.945C22.0000337890625,10.963,22.0000337890625,10.98133,22.0000337890625,11C22.0000337890625,11,22.0000337890625,11.5,22.0000337890625,11.5C22.0000337890625,14.0196,20.9991337890625,16.4359,19.2175337890625,18.2175C17.4359337890625,19.9991,15.0195337890625,21,12.5000337890625,21C12.5000337890625,21,12.4770337890625,21,12.4770337890625,21C11.1520037890625,20.9984,9.8422137890625,20.7177,8.6329937890625,20.176C8.6329937890625,20.176,3.3159937890625,21.949,3.3159937890625,21.949C3.1398037890625,22.0078,2.9507197890625,22.0163,2.7699497890625002,21.9736C2.5891787890625,21.931,2.4238617890625,21.8388,2.2925267890625,21.7075C2.1611917890625,21.5761,2.0690293890625,21.4108,2.0263686890625,21.23C1.9837080890625,21.0493,1.9922354590625,20.8602,2.0509950890625,20.684C2.0509950890625,20.684,3.8239937890625,15.366,3.8239937890625,15.366C3.1804037890625,13.9214,2.9076427890625,12.3389,3.0304637890625,10.7622C3.1532837890625,9.185469999999999,3.6677937890625003,7.66435,4.5273237890625,6.33681C5.386863789062501,5.00927,6.5642237890625,3.91732,7.9526137890625,3.16C9.341003789062501,2.40268,10.8964937890625,2.00395826,12.4780337890625,2C12.4780337890625,2,12.4780337890625,2,12.4780337890625,2ZM12.9720337890625,4C12.9720337890625,4,12.4780337890625,4,12.4780337890625,4C11.3223537890625,4.0015,10.1830637890625,4.27305,9.1509937890625,4.793C7.9044337890625,5.4151,6.8557837890625,6.37211,6.1226037890625,7.55675C5.3894237890625,8.741389999999999,5.0006937890625,10.10683,4.999993789062501,11.5C4.9980937890625,12.6631,5.269733789062499,13.8103,5.7929937890625,14.849C5.8524837890625,14.9668,5.8880637890625,15.0953,5.8976737890625,15.2269C5.9072837890625,15.3585,5.890743789062499,15.4908,5.8489937890625,15.616C5.8489937890625,15.616,4.5809937890625,19.416,4.5809937890625,19.416C4.5809937890625,19.416,8.3809937890625,18.148,8.3809937890625,18.148C8.5062137890625,18.1063,8.638453789062499,18.0897,8.7700937890625,18.0993C8.9017337890625,18.1089,9.0301737890625,18.1445,9.1479937890625,18.204C10.1807037890625,18.7255,11.3210937890625,18.9981,12.4780337890625,19C12.4780337890625,19,12.4980337890625,19,12.4980337890625,19C13.8909337890625,18.9999,15.2562337890625,18.6118,16.4410337890625,17.8794C17.6258337890625,17.146900000000002,18.5832337890625,16.099,19.2060337890625,14.853C19.7301337890625,13.8131,20.0021337890625,12.6645,20.0000337890625,11.5C20.0000337890625,11.5,20.0000337890625,11.028,20.0000337890625,11.028C19.8924337890625,9.19915,19.1174337890625,7.47337,17.822033789062502,6.17794C16.5266337890625,4.8825199999999995,14.8008337890625,4.10754,12.9720337890625,4C12.9720337890625,4,12.9720337890625,4,12.9720337890625,4Z" fill="#000000" fill-opacity="1"/></g></g></svg>