<svg xmlns="http://www.w3.org/2000/svg" xmlns:xlink="http://www.w3.org/1999/xlink" fill="none" version="1.1" width="79" height="23" viewBox="0 0 79 23"><g style="mix-blend-mode:passthrough"><path d="M2.3164100000000003,21.5L3.88086,21.5L3.88086,14.6094C3.88086,13.2383,3.75781,11.8438,3.68164,10.5195L3.75781,10.5195L5.17578,13.2207L9.98633,21.5L11.6914,21.5L11.6914,8.375L10.10938,8.375L10.10938,15.207C10.10938,16.5547,10.23828,18.0371,10.34375,19.3438L10.25586,19.3438L8.83203,16.6426L4.00977,8.375L2.3164100000000003,8.375L2.3164100000000003,21.5ZM17.5273,21.875C18.7344,21.875,19.8301,21.248,20.7676,20.4688L20.8203,20.4688L20.9668,21.5L22.3145,21.5L22.3145,15.4238C22.3145,12.9629,21.3242,11.375,18.9336,11.375C17.3457,11.375,15.9805,12.0781,15.0957,12.6582L15.7285,13.8008C16.502,13.2734,17.5273,12.7461,18.6641,12.7461C20.2637,12.7461,20.6797,13.9648,20.6797,15.2422C16.5195,15.7109,14.6855,16.7891,14.6855,18.9336C14.6855,20.8672,15.8926,21.875,17.5273,21.875ZM17.9961,20.5449C17.0234,20.5449,16.2676,20.0996,16.2676,18.9512C16.2676,17.6504,17.3867,16.8125,20.6797,16.425800000000002L20.6797,19.2266C19.7246,20.0996,18.9336,20.5449,17.9961,20.5449ZM25.4023,21.5L27.0605,21.5L27.0605,14.3281C27.9395,13.3086,28.7715,12.8164,29.5098,12.8164C30.752,12.8164,31.3262,13.6016,31.3262,15.459L31.3262,21.5L32.9668,21.5L32.9668,14.3281C33.8809,13.3086,34.6719,12.8164,35.4277,12.8164C36.6699,12.8164,37.25,13.6016,37.25,15.459L37.25,21.5L38.8848,21.5L38.8848,15.2422C38.8848,12.7285,37.9297,11.375,35.9316,11.375C34.7305,11.375,33.7227,12.1543,32.6914,13.2559C32.2988,12.0957,31.5078,11.375,29.9961,11.375C28.8242,11.375,27.8164,12.1133,26.9492,13.0566L26.9141,13.0566L26.7559,11.75L25.4023,11.75L25.4023,21.5ZM45.8633,21.875C47.1758,21.875,48.2246,21.4473,49.0684,20.8906L48.4941,19.7598C47.7559,20.2637,47,20.5625,46.0449,20.5625C44.1875,20.5625,42.9102,19.1797,42.8047,17L49.3906,17C49.4258,16.748,49.4668,16.425800000000002,49.4668,16.0684C49.4668,13.1914,48.0605,11.375,45.5586,11.375C43.3262,11.375,41.1816,13.3613,41.1816,16.625C41.1816,19.9648,43.2559,21.875,45.8633,21.875ZM42.7871,15.834C42.9805,13.8242,44.2051,12.6934,45.5938,12.6934C47.123,12.6934,48.0254,13.7891,48.0254,15.834L42.7871,15.834ZM54.875,12.875C55.5898,12.875,56.2402,12.3535,56.2402,11.5449C56.2402,10.7188,55.5898,10.17969,54.875,10.17969C54.1543,10.17969,53.5039,10.7188,53.5039,11.5449C53.5039,12.3535,54.1543,12.875,54.875,12.875ZM54.875,21.875C55.5898,21.875,56.2402,21.3359,56.2402,20.5273C56.2402,19.7012,55.5898,19.1797,54.875,19.1797C54.1543,19.1797,53.5039,19.7012,53.5039,20.5273C53.5039,21.3359,54.1543,21.875,54.875,21.875Z" fill="#000000" fill-opacity="1"/><path d="M2.3164100000000003,21.5L3.88086,21.5L3.88086,14.6094C3.88086,13.2383,3.75781,11.8438,3.68164,10.5195L3.75781,10.5195L5.17578,13.2207L9.98633,21.5L11.6914,21.5L11.6914,8.375L10.10938,8.375L10.10938,15.207C10.10938,16.5547,10.23828,18.0371,10.34375,19.3438L10.25586,19.3438L8.83203,16.6426L4.00977,8.375L2.3164100000000003,8.375L2.3164100000000003,21.5ZM17.5273,21.875C18.7344,21.875,19.8301,21.248,20.7676,20.4688L20.8203,20.4688L20.9668,21.5L22.3145,21.5L22.3145,15.4238C22.3145,12.9629,21.3242,11.375,18.9336,11.375C17.3457,11.375,15.9805,12.0781,15.0957,12.6582L15.7285,13.8008C16.502,13.2734,17.5273,12.7461,18.6641,12.7461C20.2637,12.7461,20.6797,13.9648,20.6797,15.2422C16.5195,15.7109,14.6855,16.7891,14.6855,18.9336C14.6855,20.8672,15.8926,21.875,17.5273,21.875ZM17.9961,20.5449C17.0234,20.5449,16.2676,20.0996,16.2676,18.9512C16.2676,17.6504,17.3867,16.8125,20.6797,16.425800000000002L20.6797,19.2266C19.7246,20.0996,18.9336,20.5449,17.9961,20.5449ZM25.4023,21.5L27.0605,21.5L27.0605,14.3281C27.9395,13.3086,28.7715,12.8164,29.5098,12.8164C30.752,12.8164,31.3262,13.6016,31.3262,15.459L31.3262,21.5L32.9668,21.5L32.9668,14.3281C33.8809,13.3086,34.6719,12.8164,35.4277,12.8164C36.6699,12.8164,37.25,13.6016,37.25,15.459L37.25,21.5L38.8848,21.5L38.8848,15.2422C38.8848,12.7285,37.9297,11.375,35.9316,11.375C34.7305,11.375,33.7227,12.1543,32.6914,13.2559C32.2988,12.0957,31.5078,11.375,29.9961,11.375C28.8242,11.375,27.8164,12.1133,26.9492,13.0566L26.9141,13.0566L26.7559,11.75L25.4023,11.75L25.4023,21.5ZM45.8633,21.875C47.1758,21.875,48.2246,21.4473,49.0684,20.8906L48.4941,19.7598C47.7559,20.2637,47,20.5625,46.0449,20.5625C44.1875,20.5625,42.9102,19.1797,42.8047,17L49.3906,17C49.4258,16.748,49.4668,16.425800000000002,49.4668,16.0684C49.4668,13.1914,48.0605,11.375,45.5586,11.375C43.3262,11.375,41.1816,13.3613,41.1816,16.625C41.1816,19.9648,43.2559,21.875,45.8633,21.875ZM42.7871,15.834C42.9805,13.8242,44.2051,12.6934,45.5938,12.6934C47.123,12.6934,48.0254,13.7891,48.0254,15.834L42.7871,15.834ZM54.875,12.875C55.5898,12.875,56.2402,12.3535,56.2402,11.5449C56.2402,10.7188,55.5898,10.17969,54.875,10.17969C54.1543,10.17969,53.5039,10.7188,53.5039,11.5449C53.5039,12.3535,54.1543,12.875,54.875,12.875ZM54.875,21.875C55.5898,21.875,56.2402,21.3359,56.2402,20.5273C56.2402,19.7012,55.5898,19.1797,54.875,19.1797C54.1543,19.1797,53.5039,19.7012,53.5039,20.5273C53.5039,21.3359,54.1543,21.875,54.875,21.875Z" fill-opacity="0" stroke-opacity="1" stroke="#000000" fill="none" stroke-width="1"/></g></svg>