<svg xmlns="http://www.w3.org/2000/svg" xmlns:xlink="http://www.w3.org/1999/xlink" fill="none" version="1.1" width="30" height="30" viewBox="0 0 30 30"><defs><clipPath id="master_svg0_1_00503"><rect x="0" y="0" width="30" height="30" rx="0"/></clipPath></defs><g style="mix-blend-mode:passthrough" clip-path="url(#master_svg0_1_00503)"><g style="mix-blend-mode:passthrough"><path d="M13.4467,3.4467C14.85322,2.0401759999999998,16.76087,1.25,18.75,1.25C18.75,1.25,22.5,1.25,22.5,1.25C23.1904,1.25,23.75,1.809644,23.75,2.5C23.75,2.5,23.75,7.5,23.75,7.5C23.75,8.190349999999999,23.1904,8.75,22.5,8.75C22.5,8.75,18.75,8.75,18.75,8.75C18.75,8.75,18.75,11.25,18.75,11.25C18.75,11.25,22.5,11.25,22.5,11.25C22.884900000000002,11.25,23.2484,11.4273,23.485300000000002,11.7307C23.7221,12.0341,23.806,12.4297,23.7126,12.8032C23.7126,12.8032,22.462600000000002,17.8031,22.462600000000002,17.8031C22.3236,18.3596,21.8236,18.75,21.25,18.75C21.25,18.75,18.75,18.75,18.75,18.75C18.75,18.75,18.75,27.5,18.75,27.5C18.75,28.1904,18.1904,28.75,17.5,28.75C17.5,28.75,12.5,28.75,12.5,28.75C11.809650000000001,28.75,11.25,28.1904,11.25,27.5C11.25,27.5,11.25,18.75,11.25,18.75C11.25,18.75,8.75,18.75,8.75,18.75C8.059644,18.75,7.5,18.1904,7.5,17.5C7.5,17.5,7.5,12.5,7.5,12.5C7.5,11.8096,8.059644,11.25,8.75,11.25C8.75,11.25,11.25,11.25,11.25,11.25C11.25,11.25,11.25,8.75,11.25,8.75C11.25,6.76087,12.04017,4.85322,13.4467,3.4467C13.4467,3.4467,13.4467,3.4467,13.4467,3.4467ZM18.75,3.75C17.42391,3.75,16.15215,4.27679,15.214459999999999,5.21446C14.27679,6.15215,13.75,7.42391,13.75,8.75C13.75,8.75,13.75,12.5,13.75,12.5C13.75,13.1904,13.190349999999999,13.75,12.5,13.75C12.5,13.75,10,13.75,10,13.75C10,13.75,10,16.25,10,16.25C10,16.25,12.5,16.25,12.5,16.25C13.190349999999999,16.25,13.75,16.8096,13.75,17.5C13.75,17.5,13.75,26.25,13.75,26.25C13.75,26.25,16.25,26.25,16.25,26.25C16.25,26.25,16.25,17.5,16.25,17.5C16.25,16.8096,16.809649999999998,16.25,17.5,16.25C17.5,16.25,20.274,16.25,20.274,16.25C20.274,16.25,20.899,13.75,20.899,13.75C20.899,13.75,17.5,13.75,17.5,13.75C16.809649999999998,13.75,16.25,13.1904,16.25,12.5C16.25,12.5,16.25,8.75,16.25,8.75C16.25,8.086960000000001,16.51339,7.45107,16.982239999999997,6.98224C17.45107,6.51339,18.087,6.25,18.75,6.25C18.75,6.25,21.25,6.25,21.25,6.25C21.25,6.25,21.25,3.75,21.25,3.75C21.25,3.75,18.75,3.75,18.75,3.75C18.75,3.75,18.75,3.75,18.75,3.75Z" fill-rule="evenodd" fill="#000000" fill-opacity="1"/></g></g></svg>