<svg xmlns="http://www.w3.org/2000/svg" xmlns:xlink="http://www.w3.org/1999/xlink" fill="none" version="1.1" width="50" height="50" viewBox="0 0 50 50"><defs><clipPath id="master_svg0_12_10111"><rect x="0" y="0" width="50" height="50" rx="0"/></clipPath></defs><g style="mix-blend-mode:passthrough" clip-path="url(#master_svg0_12_10111)"><g style="mix-blend-mode:passthrough"><path d="M6.25,25.000002061767578C6.25,22.69881206176758,8.11548,20.833332061767578,10.41667,20.833332061767578C12.71785,20.833332061767578,14.58333,22.69881206176758,14.58333,25.000002061767578C14.58333,27.301182061767577,12.71785,29.16666206176758,10.41667,29.16666206176758C8.11548,29.16666206176758,6.25,27.301182061767577,6.25,25.000002061767578C6.25,25.000002061767578,6.25,25.000002061767578,6.25,25.000002061767578ZM20.8333,25.000002061767578C20.8333,22.69881206176758,22.6988,20.833332061767578,25,20.833332061767578C27.3012,20.833332061767578,29.1667,22.69881206176758,29.1667,25.000002061767578C29.1667,27.301182061767577,27.3012,29.16666206176758,25,29.16666206176758C22.6988,29.16666206176758,20.8333,27.301182061767577,20.8333,25.000002061767578C20.8333,25.000002061767578,20.8333,25.000002061767578,20.8333,25.000002061767578ZM35.4167,25.000002061767578C35.4167,22.69881206176758,37.2821,20.833332061767578,39.5833,20.833332061767578C41.8846,20.833332061767578,43.75,22.69881206176758,43.75,25.000002061767578C43.75,27.301182061767577,41.8846,29.16666206176758,39.5833,29.16666206176758C37.2821,29.16666206176758,35.4167,27.301182061767577,35.4167,25.000002061767578C35.4167,25.000002061767578,35.4167,25.000002061767578,35.4167,25.000002061767578Z" fill-rule="evenodd" fill="#000000" fill-opacity="1"/></g></g></svg>