<svg xmlns="http://www.w3.org/2000/svg" xmlns:xlink="http://www.w3.org/1999/xlink" fill="none" version="1.1" width="24" height="24" viewBox="0 0 24 24"><defs><clipPath id="master_svg0_12_15121"><rect x="0" y="0" width="24" height="24" rx="0"/></clipPath></defs><g style="mix-blend-mode:passthrough" clip-path="url(#master_svg0_12_15121)"><g style="mix-blend-mode:passthrough"><path d="M11,4C7.13401,4,4,7.13401,4,11C4,14.866,7.13401,18,11,18C12.8859,18,14.5977,17.2542,15.8564,16.0414C15.8827,16.007199999999997,15.9115,15.9742,15.9429,15.9429C15.9742,15.9115,16.007199999999997,15.8827,16.0414,15.8564C17.2542,14.5977,18,12.8859,18,11C18,7.13401,14.866,4,11,4C11,4,11,4,11,4ZM18.0319,16.6177C19.2635,15.078,20,13.125,20,11C20,6.02944,15.9706,2,11,2C6.02944,2,2,6.02944,2,11C2,15.9706,6.02944,20,11,20C13.125,20,15.078,19.2635,16.6177,18.0319C16.6177,18.0319,20.2929,21.7071,20.2929,21.7071C20.6834,22.0976,21.3166,22.0976,21.7071,21.7071C22.0976,21.3166,22.0976,20.6834,21.7071,20.2929C21.7071,20.2929,18.0319,16.6177,18.0319,16.6177C18.0319,16.6177,18.0319,16.6177,18.0319,16.6177Z" fill-rule="evenodd" fill="#000000" fill-opacity="1"/></g></g></svg>