<svg xmlns="http://www.w3.org/2000/svg" xmlns:xlink="http://www.w3.org/1999/xlink" fill="none" version="1.1" width="121.86019134521484" height="83.76166534423828" viewBox="0 0 121.86019134521484 83.76166534423828"><g style="mix-blend-mode:passthrough"><path d="M47.7,0C45.5517,0,43.4396,0.553699,41.5676,1.60767C39.6956,2.66165,38.1267,4.18029,37.0125,6.01713L1.70897,64.9537L1.67512,65.0112C0.583672,66.9012,0.00616074,69.0442,0.0000495911,71.2271C-0.00606155,73.4096,0.559437,75.5558,1.64028,77.4521C2.72113,79.3483,4.27967,80.9283,6.16079,82.0354C8.04192,83.1421,10.1801,83.7375,12.3626,83.7612L82.9917,83.7617L83.0375,83.7612C83.9612,83.751,84.8771,83.6385,85.7688,83.4283L111.933,83.4284L111.97,83.4281C113.716,83.4088,115.427,82.9328,116.931,82.0474C118.436,81.1618,119.683,79.8978,120.548,78.3808C121.413,76.8638,121.865,75.1468,121.86,73.4008C121.855,71.6544,121.393,69.9401,120.52,68.4281L120.493,68.3821L92.2598,21.2486L92.2502,21.2328C91.3588,19.7634,90.1038,18.5484,88.6062,17.7052C87.1085,16.8621,85.4188,16.4191,83.7002,16.4191C81.9815,16.4191,80.2918,16.8621,78.7943,17.7052C77.2966,18.5484,76.0415,19.7633,75.1502,21.2328L71.3261,27.6168L58.3996,6.03692L58.3875,6.01717C57.2733,4.18033,55.7046,2.66165,53.8325,1.60767C51.9604,0.553699,49.8483,0,47.7,0ZM66.4691,35.7252L51.2625,10.339C51.2608,10.3363,51.2592,10.3335,51.2575,10.3307C50.8862,9.72221,50.3654,9.21896,49.7442,8.86921C49.1204,8.51792,48.4162,8.33333,47.7,8.33333C46.9842,8.33333,46.28,8.51792,45.6558,8.86921C45.0346,9.21896,44.5137,9.72221,44.1425,10.3307L8.87796,69.2025C8.52304,69.8267,8.33537,70.5321,8.33333,71.2504C8.33133,71.9779,8.51979,72.6933,8.88008,73.3254C9.24038,73.9575,9.75987,74.4842,10.3869,74.8529C11.0085,75.2187,11.7142,75.4167,12.4351,75.4279L45.742,75.4279C45.6065,74.7635,45.5383,74.0843,45.5402,73.4008C45.5451,71.6544,46.0071,69.9401,46.8803,68.4281L46.9073,68.3821L66.4691,35.7252ZM52.8729,75.4279C52.7897,75.317,52.7133,75.2006,52.6442,75.0794C52.356,74.5738,52.2052,74.0014,52.2068,73.4194C52.2085,72.8448,52.3586,72.2804,52.6425,71.7811L70.3547,42.2118L86.5225,69.2025C86.8771,69.8267,87.065,70.5321,87.0667,71.2504C87.0687,71.9779,86.8804,72.6933,86.52,73.3254C86.1596,73.9575,85.6404,74.4842,85.0133,74.8529C84.3917,75.2187,83.6858,75.4167,82.965,75.4279L52.8729,75.4279ZM94.1255,76.7614C94.9679,75.042,95.4055,73.1486,95.4,71.2271C95.3942,69.0442,94.8167,66.9012,93.725,65.0112L93.6913,64.9537L75.2117,34.1034L80.8542,24.6837C81.1512,24.1969,81.5678,23.7943,82.0648,23.5145C82.5642,23.2334,83.1275,23.0858,83.7002,23.0858C84.2732,23.0858,84.8365,23.2334,85.3355,23.5145C85.8325,23.7943,86.2492,24.1969,86.5462,24.6837L86.5502,24.6903L114.758,71.7811C115.042,72.2804,115.192,72.8448,115.193,73.4194C115.195,74.0014,115.044,74.5738,114.756,75.0794C114.468,75.5851,114.052,76.0064,113.551,76.3014C113.053,76.5941,112.489,76.7524,111.912,76.7614L94.1255,76.7614Z" fill-rule="evenodd" fill="#000000" fill-opacity="1"/></g></svg>