<svg xmlns="http://www.w3.org/2000/svg" xmlns:xlink="http://www.w3.org/1999/xlink" fill="none" version="1.1" width="153" height="127" viewBox="0 0 153 127"><g style="mix-blend-mode:passthrough"><path d="M1.81641,21L3.46875,21L3.46875,15.75L5.64844,15.75C8.54883,15.75,10.5117,14.4727,10.5117,11.7188C10.5117,8.86523,8.53125,7.875,5.57812,7.875L1.81641,7.875L1.81641,21ZM3.46875,14.4023L3.46875,9.22852L5.36133,9.22852C7.68164,9.22852,8.85352,9.81445,8.85352,11.7188C8.85352,13.582,7.75781,14.4023,5.43164,14.4023L3.46875,14.4023ZM15.7676,21.375C17.0977,21.375,18.0703,20.6777,18.9902,19.6113L19.043,19.6113L19.166,21L20.5371,21L20.5371,11.25L18.8965,11.25L18.8965,18.2754C17.959,19.4473,17.2617,19.957,16.2539,19.957C14.9531,19.957,14.4141,19.1719,14.4141,17.3262L14.4141,11.25L12.7617,11.25L12.7617,17.5312C12.7617,20.0625,13.6934,21.375,15.7676,21.375ZM28.0781,21.375C30.3105,21.375,32.3262,19.4355,32.3262,15.9785C32.3262,12.8613,30.9609,10.875,28.4414,10.875C27.3398,10.875,26.2617,11.4902,25.3652,12.2461L25.4355,10.5L25.4355,6.57422L23.7773,6.57422L23.7773,21L25.0898,21L25.2363,20.1387L25.3066,20.1387C26.1562,20.9121,27.1816,21.375,28.0781,21.375ZM27.8086,19.9922C27.1641,19.9922,26.2793,19.7344,25.4355,18.9492L25.4355,13.6406C26.3496,12.75,27.2168,12.2637,28.0254,12.2637C29.9004,12.2637,30.6211,13.752,30.6211,15.9961C30.6211,18.4863,29.4316,19.9922,27.8086,19.9922ZM36.7559,21.375C37.207,21.375,37.4766,21.3047,37.7109,21.2344L37.4766,19.9746C37.2949,20.0098,37.2246,20.0098,37.1367,20.0098C36.8848,20.0098,36.6855,19.8105,36.6855,19.3066L36.6855,6.81445L35.0273,6.81445L35.0273,19.2012C35.0273,20.584,35.5312,21.375,36.7559,21.375ZM40.2773,21L41.9355,21L41.9355,11.25L40.2773,11.25L40.2773,21ZM41.1035,9.28711C41.7539,9.28711,42.2051,8.85352,42.2051,8.19141C42.2051,7.55859,41.7539,7.125,41.1035,7.125C40.459,7.125,40.0254,7.55859,40.0254,8.19141C40.0254,8.85352,40.459,9.28711,41.1035,9.28711ZM47.707,21.375C50.0156,21.375,51.2578,20.0625,51.2578,18.4277C51.2578,16.5176,49.7051,15.9258,48.2871,15.3691C47.1855,14.9414,46.1777,14.5664,46.1777,13.623C46.1777,12.8262,46.7578,12.1582,48,12.1582C48.8613,12.1582,49.5469,12.5449,50.209,13.0488L51.0059,11.9941C50.2676,11.3848,49.1836,10.875,47.9766,10.875C45.8379,10.875,44.6133,12.0996,44.6133,13.6934C44.6133,15.4219,46.0898,16.0898,47.4551,16.6113C48.5391,17.0156,49.6875,17.502,49.6875,18.5215C49.6875,19.3945,49.0605,20.0977,47.7656,20.0977C46.5938,20.0977,45.7266,19.6172,44.8652,18.8906L44.0742,20.0273C44.9883,20.8008,46.3242,21.375,47.707,21.375ZM53.4023,21L55.0605,21L55.0605,11.25L53.4023,11.25L53.4023,21ZM54.2285,9.28711C54.8789,9.28711,55.3301,8.85352,55.3301,8.19141C55.3301,7.55859,54.8789,7.125,54.2285,7.125C53.584,7.125,53.1504,7.55859,53.1504,8.19141C53.1504,8.85352,53.584,9.28711,54.2285,9.28711ZM57.252,21L64.6523,21L64.6523,19.6699L59.3203,19.6699L64.4883,12.1348L64.4883,11.25L57.8086,11.25L57.8086,12.5859L62.4023,12.5859L57.252,20.1211L57.252,21ZM70.8633,21.375C72.1758,21.375,73.2246,20.9473,74.0684,20.3906L73.4941,19.2598C72.7559,19.7637,72,20.0625,71.0449,20.0625C69.1875,20.0625,67.9102,18.6797,67.8047,16.5L74.3906,16.5C74.4258,16.248,74.4668,15.9258,74.4668,15.5684C74.4668,12.6914,73.0605,10.875,70.5586,10.875C68.3262,10.875,66.1816,12.8613,66.1816,16.125C66.1816,19.4648,68.2559,21.375,70.8633,21.375ZM67.7871,15.334C67.9805,13.3242,69.2051,12.1934,70.5938,12.1934C72.123,12.1934,73.0254,13.2891,73.0254,15.334L67.7871,15.334ZM81.3164,25.125C83.2617,25.125,84.2871,23.6543,84.9668,21.7617L88.6406,11.25L87.041,11.25L85.2773,16.623C85.0254,17.4961,84.7383,18.4805,84.4863,19.3711L84.3926,19.3711C84.0527,18.4629,83.7246,17.4785,83.4199,16.623L81.4395,11.25L79.7285,11.25L83.6543,20.959L83.4375,21.6914C83.0273,22.8867,82.3418,23.7773,81.2461,23.7773C80.9707,23.7773,80.6836,23.6895,80.4844,23.6191L80.1621,24.9316C80.4668,25.0547,80.8652,25.125,81.3164,25.125ZM94.3242,21.375C96.7207,21.375,98.8477,19.4883,98.8477,16.1484C98.8477,12.7852,96.7207,10.875,94.3242,10.875C91.9336,10.875,89.8066,12.7852,89.8066,16.1484C89.8066,19.4883,91.9336,21.375,94.3242,21.375ZM94.3242,20.0098C92.6367,20.0098,91.5,18.4688,91.5,16.1484C91.5,13.8223,92.6367,12.2637,94.3242,12.2637C96.0176,12.2637,97.1719,13.8223,97.1719,16.1484C97.1719,18.4688,96.0176,20.0098,94.3242,20.0098ZM104.268,21.375C105.598,21.375,106.57,20.6777,107.49,19.6113L107.543,19.6113L107.666,21L109.037,21L109.037,11.25L107.396,11.25L107.396,18.2754C106.459,19.4473,105.762,19.957,104.754,19.957C103.453,19.957,102.914,19.1719,102.914,17.3262L102.914,11.25L101.262,11.25L101.262,17.5312C101.262,20.0625,102.193,21.375,104.268,21.375ZM112.277,21L113.936,21L113.936,14.6484C114.58,12.9727,115.57,12.3516,116.385,12.3516C116.795,12.3516,117.012,12.4102,117.334,12.5156L117.645,11.25C117.334,10.9336,117.029,10.875,116.596,10.875C115.518,10.875,114.51,11.6719,113.824,12.9199L113.789,12.9199L113.631,11.25L112.277,11.25L112.277,21ZM0.591797,38.5859L1.92188,38.5859L1.92188,47L3.5625,47L3.5625,38.5859L5.63086,38.5859L5.63086,37.25L3.5625,37.25L3.5625,35.668C3.5625,34.373,4.01367,33.6934,4.94531,33.6934C5.29102,33.6934,5.68359,33.7871,6.04688,33.9688L6.4043,32.6855C5.95312,32.5039,5.37891,32.375,4.76953,32.375C2.82422,32.375,1.92188,33.6172,1.92188,35.6504L1.92188,37.25L0.591797,37.3438L0.591797,38.5859ZM9.90234,47.375C11.1094,47.375,12.2051,46.748,13.1426,45.9688L13.1953,45.9688L13.3418,47L14.6895,47L14.6895,40.9238C14.6895,38.4629,13.6992,36.875,11.3086,36.875C9.7207,36.875,8.35547,37.5781,7.4707,38.1582L8.10352,39.3008C8.87695,38.7734,9.90234,38.2461,11.0391,38.2461C12.6387,38.2461,13.0547,39.4648,13.0547,40.7422C8.89453,41.2109,7.06055,42.2891,7.06055,44.4336C7.06055,46.3672,8.26758,47.375,9.90234,47.375ZM10.3711,46.0449C9.39844,46.0449,8.64258,45.5996,8.64258,44.4512C8.64258,43.1504,9.76172,42.3125,13.0547,41.9258L13.0547,44.7266C12.0996,45.5996,11.3086,46.0449,10.3711,46.0449ZM17.7773,47L19.4355,47L19.4355,39.8281C20.4082,38.8262,21.0879,38.3164,22.0957,38.3164C23.3965,38.3164,23.9531,39.1016,23.9531,40.959L23.9531,47L25.5938,47L25.5938,40.7422C25.5938,38.2285,24.6562,36.875,22.6055,36.875C21.2695,36.875,20.2441,37.6133,19.3242,38.5566L19.2891,38.5566L19.1309,37.25L17.7773,37.25L17.7773,47ZM31.7109,47.375C32.3262,47.375,32.9707,47.1992,33.5332,47.0176L33.2051,45.7695C32.8828,45.916,32.4492,46.0449,32.0918,46.0449C30.9551,46.0449,30.5801,45.3535,30.5801,44.1465L30.5801,38.5859L33.2461,38.5859L33.2461,37.25L30.5801,37.25L30.5801,34.4961L29.209,34.4961L29.0332,37.25L27.4805,37.3438L27.4805,38.5859L28.9395,38.5859L28.9395,44.0879C28.9395,46.0801,29.6426,47.375,31.7109,47.375ZM37.6523,47.375C38.8594,47.375,39.9551,46.748,40.8926,45.9688L40.9453,45.9688L41.0918,47L42.4395,47L42.4395,40.9238C42.4395,38.4629,41.4492,36.875,39.0586,36.875C37.4707,36.875,36.1055,37.5781,35.2207,38.1582L35.8535,39.3008C36.627,38.7734,37.6523,38.2461,38.7891,38.2461C40.3887,38.2461,40.8047,39.4648,40.8047,40.7422C36.6445,41.2109,34.8105,42.2891,34.8105,44.4336C34.8105,46.3672,36.0176,47.375,37.6523,47.375ZM38.1211,46.0449C37.1484,46.0449,36.3926,45.5996,36.3926,44.4512C36.3926,43.1504,37.5117,42.3125,40.8047,41.9258L40.8047,44.7266C39.8496,45.5996,39.0586,46.0449,38.1211,46.0449ZM48.082,47.375C50.3906,47.375,51.6328,46.0625,51.6328,44.4277C51.6328,42.5176,50.0801,41.9258,48.6621,41.3691C47.5605,40.9414,46.5527,40.5664,46.5527,39.623C46.5527,38.8262,47.1328,38.1582,48.375,38.1582C49.2363,38.1582,49.9219,38.5449,50.584,39.0488L51.3809,37.9941C50.6426,37.3848,49.5586,36.875,48.3516,36.875C46.2129,36.875,44.9883,38.0996,44.9883,39.6934C44.9883,41.4219,46.4648,42.0898,47.8301,42.6113C48.9141,43.0156,50.0625,43.502,50.0625,44.5215C50.0625,45.3945,49.4355,46.0977,48.1406,46.0977C46.9688,46.0977,46.1016,45.6172,45.2402,44.8906L44.4492,46.0273C45.3633,46.8008,46.6992,47.375,48.082,47.375ZM56.8359,47.375C57.4512,47.375,58.0957,47.1992,58.6582,47.0176L58.3301,45.7695C58.0078,45.916,57.5742,46.0449,57.2168,46.0449C56.0801,46.0449,55.7051,45.3535,55.7051,44.1465L55.7051,38.5859L58.3711,38.5859L58.3711,37.25L55.7051,37.25L55.7051,34.4961L54.334,34.4961L54.1582,37.25L52.6055,37.3438L52.6055,38.5859L54.0645,38.5859L54.0645,44.0879C54.0645,46.0801,54.7676,47.375,56.8359,47.375ZM60.5273,47L62.1855,47L62.1855,37.25L60.5273,37.25L60.5273,47ZM61.3535,35.2871C62.0039,35.2871,62.4551,34.8535,62.4551,34.1914C62.4551,33.5586,62.0039,33.125,61.3535,33.125C60.709,33.125,60.2754,33.5586,60.2754,34.1914C60.2754,34.8535,60.709,35.2871,61.3535,35.2871ZM69.2578,47.375C70.4238,47.375,71.543,46.9121,72.4219,46.1562L71.7012,45.0078C71.0918,45.5645,70.3008,46.0098,69.3984,46.0098C67.5996,46.0098,66.375,44.4688,66.375,42.1484C66.375,39.8223,67.6699,38.2637,69.4512,38.2637C70.207,38.2637,70.8398,38.6152,71.3965,39.1367L72.2285,38.0293C71.543,37.4199,70.6582,36.875,69.3809,36.875C66.8613,36.875,64.6816,38.7852,64.6816,42.1484C64.6816,45.4883,66.6621,47.375,69.2578,47.375ZM5.44922,73.375C7.8457,73.375,9.97266,71.4883,9.97266,68.1484C9.97266,64.7852,7.8457,62.875,5.44922,62.875C3.05859,62.875,0.931641,64.7852,0.931641,68.1484C0.931641,71.4883,3.05859,73.375,5.44922,73.375ZM5.44922,72.0098C3.76172,72.0098,2.625,70.4688,2.625,68.1484C2.625,65.8223,3.76172,64.2637,5.44922,64.2637C7.14258,64.2637,8.29688,65.8223,8.29688,68.1484C8.29688,70.4688,7.14258,72.0098,5.44922,72.0098ZM12.5273,77.125L14.1855,77.125L14.1855,73.9316L14.1328,72.2441C15.0117,72.9824,15.9492,73.375,16.8281,73.375C19.0605,73.375,21.0762,71.4355,21.0762,67.9785C21.0762,64.8613,19.7109,62.875,17.1914,62.875C16.0547,62.875,14.959,63.5254,14.0742,64.2637L14.0391,64.2637L13.8809,63.25L12.5273,63.25L12.5273,77.125ZM16.5586,71.9922C15.9141,71.9922,15.0469,71.7344,14.1855,70.9727L14.1855,65.6406C15.123,64.75,15.9668,64.2637,16.7754,64.2637C18.6504,64.2637,19.3711,65.752,19.3711,67.9961C19.3711,70.5156,18.1816,71.9922,16.5586,71.9922ZM23.7773,77.125L25.4355,77.125L25.4355,73.9316L25.3828,72.2441C26.2617,72.9824,27.1992,73.375,28.0781,73.375C30.3105,73.375,32.3262,71.4355,32.3262,67.9785C32.3262,64.8613,30.9609,62.875,28.4414,62.875C27.3047,62.875,26.209,63.5254,25.3242,64.2637L25.2891,64.2637L25.1309,63.25L23.7773,63.25L23.7773,77.125ZM27.8086,71.9922C27.1641,71.9922,26.2969,71.7344,25.4355,70.9727L25.4355,65.6406C26.373,64.75,27.2168,64.2637,28.0254,64.2637C29.9004,64.2637,30.6211,65.752,30.6211,67.9961C30.6211,70.5156,29.4316,71.9922,27.8086,71.9922ZM38.8242,73.375C41.2207,73.375,43.3477,71.4883,43.3477,68.1484C43.3477,64.7852,41.2207,62.875,38.8242,62.875C36.4336,62.875,34.3066,64.7852,34.3066,68.1484C34.3066,71.4883,36.4336,73.375,38.8242,73.375ZM38.8242,72.0098C37.1367,72.0098,36,70.4688,36,68.1484C36,65.8223,37.1367,64.2637,38.8242,64.2637C40.5176,64.2637,41.6719,65.8223,41.6719,68.1484C41.6719,70.4688,40.5176,72.0098,38.8242,72.0098ZM45.9023,73L47.5605,73L47.5605,66.6484C48.2051,64.9727,49.1953,64.3516,50.0098,64.3516C50.4199,64.3516,50.6367,64.4102,50.959,64.5156L51.2695,63.25C50.959,62.9336,50.6543,62.875,50.2207,62.875C49.1426,62.875,48.1348,63.6719,47.4492,64.9199L47.4141,64.9199L47.2559,63.25L45.9023,63.25L45.9023,73ZM56.0859,73.375C56.7012,73.375,57.3457,73.1992,57.9082,73.0176L57.5801,71.7695C57.2578,71.916,56.8242,72.0449,56.4668,72.0449C55.3301,72.0449,54.9551,71.3535,54.9551,70.1465L54.9551,64.5859L57.6211,64.5859L57.6211,63.25L54.9551,63.25L54.9551,60.4961L53.584,60.4961L53.4082,63.25L51.8555,63.3438L51.8555,64.5859L53.3145,64.5859L53.3145,70.0879C53.3145,72.0801,54.0176,73.375,56.0859,73.375ZM62.6426,73.375C63.9727,73.375,64.9453,72.6777,65.8652,71.6113L65.918,71.6113L66.041,73L67.4121,73L67.4121,63.25L65.7715,63.25L65.7715,70.2754C64.834,71.4473,64.1367,71.957,63.1289,71.957C61.8281,71.957,61.2891,71.1719,61.2891,69.3262L61.2891,63.25L59.6367,63.25L59.6367,69.5312C59.6367,72.0625,60.5684,73.375,62.6426,73.375ZM70.6523,73L72.3105,73L72.3105,65.8281C73.2832,64.8262,73.9629,64.3164,74.9707,64.3164C76.2715,64.3164,76.8281,65.1016,76.8281,66.959L76.8281,73L78.4688,73L78.4688,66.7422C78.4688,64.2285,77.5312,62.875,75.4805,62.875C74.1445,62.875,73.1191,63.6133,72.1992,64.5566L72.1641,64.5566L72.0059,63.25L70.6523,63.25L70.6523,73ZM81.5273,73L83.1855,73L83.1855,63.25L81.5273,63.25L81.5273,73ZM82.3535,61.2871C83.0039,61.2871,83.4551,60.8535,83.4551,60.1914C83.4551,59.5586,83.0039,59.125,82.3535,59.125C81.709,59.125,81.2754,59.5586,81.2754,60.1914C81.2754,60.8535,81.709,61.2871,82.3535,61.2871ZM89.4609,73.375C90.0762,73.375,90.7207,73.1992,91.2832,73.0176L90.9551,71.7695C90.6328,71.916,90.1992,72.0449,89.8418,72.0449C88.7051,72.0449,88.3301,71.3535,88.3301,70.1465L88.3301,64.5859L90.9961,64.5859L90.9961,63.25L88.3301,63.25L88.3301,60.4961L86.959,60.4961L86.7832,63.25L85.2305,63.3438L85.2305,64.5859L86.6895,64.5859L86.6895,70.0879C86.6895,72.0801,87.3926,73.375,89.4609,73.375ZM93.1523,73L94.8105,73L94.8105,63.25L93.1523,63.25L93.1523,73ZM93.9785,61.2871C94.6289,61.2871,95.0801,60.8535,95.0801,60.1914C95.0801,59.5586,94.6289,59.125,93.9785,59.125C93.334,59.125,92.9004,59.5586,92.9004,60.1914C92.9004,60.8535,93.334,61.2871,93.9785,61.2871ZM101.988,73.375C103.301,73.375,104.35,72.9473,105.193,72.3906L104.619,71.2598C103.881,71.7637,103.125,72.0625,102.17,72.0625C100.312,72.0625,99.0352,70.6797,98.9297,68.5L105.516,68.5C105.551,68.248,105.592,67.9258,105.592,67.5684C105.592,64.6914,104.186,62.875,101.684,62.875C99.4512,62.875,97.3066,64.8613,97.3066,68.125C97.3066,71.4648,99.3809,73.375,101.988,73.375ZM98.9121,67.334C99.1055,65.3242,100.33,64.1934,101.719,64.1934C103.248,64.1934,104.15,65.2891,104.15,67.334L98.9121,67.334ZM110.707,73.375C113.016,73.375,114.258,72.0625,114.258,70.4277C114.258,68.5176,112.705,67.9258,111.287,67.3691C110.186,66.9414,109.178,66.5664,109.178,65.623C109.178,64.8262,109.758,64.1582,111,64.1582C111.861,64.1582,112.547,64.5449,113.209,65.0488L114.006,63.9941C113.268,63.3848,112.184,62.875,110.977,62.875C108.838,62.875,107.613,64.0996,107.613,65.6934C107.613,67.4219,109.09,68.0898,110.455,68.6113C111.539,69.0156,112.688,69.502,112.688,70.5215C112.688,71.3945,112.061,72.0977,110.766,72.0977C109.594,72.0977,108.727,71.6172,107.865,70.8906L107.074,72.0273C107.988,72.8008,109.324,73.375,110.707,73.375ZM3.90234,99.375C5.10938,99.375,6.20508,98.748,7.14258,97.9688L7.19531,97.9688L7.3418,99L8.68945,99L8.68945,92.9238C8.68945,90.4629,7.69922,88.875,5.30859,88.875C3.7207,88.875,2.35547,89.5781,1.4707,90.1582L2.10352,91.3008C2.87695,90.7734,3.90234,90.2461,5.03906,90.2461C6.63867,90.2461,7.05469,91.4648,7.05469,92.7422C2.89453,93.2109,1.06055,94.2891,1.06055,96.4336C1.06055,98.3672,2.26758,99.375,3.90234,99.375ZM4.37109,98.0449C3.39844,98.0449,2.64258,97.5996,2.64258,96.4512C2.64258,95.1504,3.76172,94.3125,7.05469,93.9258L7.05469,96.7266C6.09961,97.5996,5.30859,98.0449,4.37109,98.0449ZM11.7773,99L13.4355,99L13.4355,91.8281C14.4082,90.8262,15.0879,90.3164,16.0957,90.3164C17.3965,90.3164,17.9531,91.1016,17.9531,92.959L17.9531,99L19.5938,99L19.5938,92.7422C19.5938,90.2285,18.6562,88.875,16.6055,88.875C15.2695,88.875,14.2441,89.6133,13.3242,90.5566L13.2891,90.5566L13.1309,89.25L11.7773,89.25L11.7773,99ZM25.9863,99.375C27.1523,99.375,28.1953,98.748,28.9512,97.9922L29.0098,97.9922L29.1504,99L30.5039,99L30.5039,84.5742L28.8457,84.5742L28.8457,88.3359L28.9336,90.0117C28.0723,89.3086,27.334,88.875,26.1797,88.875C23.9473,88.875,21.9492,90.8613,21.9492,94.0664C21.9492,97.5117,23.5371,99.375,25.9863,99.375ZM26.3438,97.9922C24.6328,97.9922,23.6426,96.5625,23.6426,94.1309C23.6426,91.8281,24.9023,90.2637,26.4668,90.2637C27.2812,90.2637,28.0371,90.5625,28.8457,91.3242L28.8457,96.6152C28.0371,97.5469,27.2461,97.9922,26.3438,97.9922ZM41.3613,99.375C42.5273,99.375,43.5703,98.748,44.3262,97.9922L44.3848,97.9922L44.5254,99L45.8789,99L45.8789,84.5742L44.2207,84.5742L44.2207,88.3359L44.3086,90.0117C43.4473,89.3086,42.709,88.875,41.5547,88.875C39.3223,88.875,37.3242,90.8613,37.3242,94.0664C37.3242,97.5117,38.9121,99.375,41.3613,99.375ZM41.7188,97.9922C40.0078,97.9922,39.0176,96.5625,39.0176,94.1309C39.0176,91.8281,40.2773,90.2637,41.8418,90.2637C42.6562,90.2637,43.4121,90.5625,44.2207,91.3242L44.2207,96.6152C43.4121,97.5469,42.6211,97.9922,41.7188,97.9922ZM49.2773,99L50.9355,99L50.9355,92.6484C51.5801,90.9727,52.5703,90.3516,53.3848,90.3516C53.7949,90.3516,54.0117,90.4102,54.334,90.5156L54.6445,89.25C54.334,88.9336,54.0293,88.875,53.5957,88.875C52.5176,88.875,51.5098,89.6719,50.8242,90.9199L50.7891,90.9199L50.6309,89.25L49.2773,89.25L49.2773,99ZM58.6523,99.375C59.8594,99.375,60.9551,98.748,61.8926,97.9688L61.9453,97.9688L62.0918,99L63.4395,99L63.4395,92.9238C63.4395,90.4629,62.4492,88.875,60.0586,88.875C58.4707,88.875,57.1055,89.5781,56.2207,90.1582L56.8535,91.3008C57.627,90.7734,58.6523,90.2461,59.7891,90.2461C61.3887,90.2461,61.8047,91.4648,61.8047,92.7422C57.6445,93.2109,55.8105,94.2891,55.8105,96.4336C55.8105,98.3672,57.0176,99.375,58.6523,99.375ZM59.1211,98.0449C58.1484,98.0449,57.3926,97.5996,57.3926,96.4512C57.3926,95.1504,58.5117,94.3125,61.8047,93.9258L61.8047,96.7266C60.8496,97.5996,60.0586,98.0449,59.1211,98.0449ZM68.0742,99L69.9844,99L71.373,93.7793C71.625,92.8477,71.8184,91.9336,72.0352,90.9434L72.1289,90.9434C72.3633,91.9336,72.5391,92.8301,72.791,93.7441L74.1973,99L76.1953,99L78.8438,89.25L77.2559,89.25L75.8379,94.8926C75.6211,95.8242,75.4395,96.7031,75.2402,97.5996L75.1523,97.5996C74.918,96.7031,74.7012,95.8242,74.4668,94.8926L72.9375,89.25L71.332,89.25L69.8027,94.8926C69.5684,95.8242,69.3516,96.7031,69.1582,97.5996L69.0645,97.5996C68.8711,96.7031,68.6895,95.8242,68.4902,94.8926L67.0312,89.25L65.3555,89.25L68.0742,99ZM85.2773,99L86.9355,99L86.9355,91.8281C87.8145,90.8086,88.6465,90.3164,89.3848,90.3164C90.627,90.3164,91.2012,91.1016,91.2012,92.959L91.2012,99L92.8418,99L92.8418,91.8281C93.7559,90.8086,94.5469,90.3164,95.3027,90.3164C96.5449,90.3164,97.125,91.1016,97.125,92.959L97.125,99L98.7598,99L98.7598,92.7422C98.7598,90.2285,97.8047,88.875,95.8066,88.875C94.6055,88.875,93.5977,89.6543,92.5664,90.7559C92.1738,89.5957,91.3828,88.875,89.8711,88.875C88.6992,88.875,87.6914,89.6133,86.8242,90.5566L86.7891,90.5566L86.6309,89.25L85.2773,89.25L85.2773,99ZM104.643,99.375C105.973,99.375,106.945,98.6777,107.865,97.6113L107.918,97.6113L108.041,99L109.412,99L109.412,89.25L107.771,89.25L107.771,96.2754C106.834,97.4473,106.137,97.957,105.129,97.957C103.828,97.957,103.289,97.1719,103.289,95.3262L103.289,89.25L101.637,89.25L101.637,95.5312C101.637,98.0625,102.568,99.375,104.643,99.375ZM116.508,99.375C117.674,99.375,118.793,98.9121,119.672,98.1562L118.951,97.0078C118.342,97.5645,117.551,98.0098,116.648,98.0098C114.85,98.0098,113.625,96.4688,113.625,94.1484C113.625,91.8223,114.92,90.2637,116.701,90.2637C117.457,90.2637,118.09,90.6152,118.646,91.1367L119.479,90.0293C118.793,89.4199,117.908,88.875,116.631,88.875C114.111,88.875,111.932,90.7852,111.932,94.1484C111.932,97.4883,113.912,99.375,116.508,99.375ZM121.652,99L123.311,99L123.311,91.8281C124.283,90.8262,124.963,90.3164,125.971,90.3164C127.271,90.3164,127.828,91.1016,127.828,92.959L127.828,99L129.469,99L129.469,92.7422C129.469,90.2285,128.531,88.875,126.48,88.875C125.145,88.875,124.137,89.6133,123.24,90.5156L123.311,88.5L123.311,84.5742L121.652,84.5742L121.652,99ZM1.65234,125L3.31055,125L3.31055,117.828C4.2832,116.826,4.96289,116.316,5.9707,116.316C7.27148,116.316,7.82812,117.102,7.82812,118.959L7.82812,125L9.46875,125L9.46875,118.742C9.46875,116.229,8.53125,114.875,6.48047,114.875C5.14453,114.875,4.11914,115.613,3.19922,116.557L3.16406,116.557L3.00586,115.25L1.65234,115.25L1.65234,125ZM16.4883,125.375C17.8008,125.375,18.8496,124.947,19.6934,124.391L19.1191,123.26C18.3809,123.764,17.625,124.062,16.6699,124.062C14.8125,124.062,13.5352,122.68,13.4297,120.5L20.0156,120.5C20.0508,120.248,20.0918,119.926,20.0918,119.568C20.0918,116.691,18.6855,114.875,16.1836,114.875C13.9512,114.875,11.8066,116.861,11.8066,120.125C11.8066,123.465,13.8809,125.375,16.4883,125.375ZM13.4121,119.334C13.6055,117.324,14.8301,116.193,16.2188,116.193C17.748,116.193,18.6504,117.289,18.6504,119.334L13.4121,119.334ZM26.6133,125.375C27.9258,125.375,28.9746,124.947,29.8184,124.391L29.2441,123.26C28.5059,123.764,27.75,124.062,26.7949,124.062C24.9375,124.062,23.6602,122.68,23.5547,120.5L30.1406,120.5C30.1758,120.248,30.2168,119.926,30.2168,119.568C30.2168,116.691,28.8105,114.875,26.3086,114.875C24.0762,114.875,21.9316,116.861,21.9316,120.125C21.9316,123.465,24.0059,125.375,26.6133,125.375ZM23.5371,119.334C23.7305,117.324,24.9551,116.193,26.3438,116.193C27.873,116.193,28.7754,117.289,28.7754,119.334L23.5371,119.334ZM36.1113,125.375C37.2773,125.375,38.3203,124.748,39.0762,123.992L39.1348,123.992L39.2754,125L40.6289,125L40.6289,110.574L38.9707,110.574L38.9707,114.336L39.0586,116.012C38.1973,115.309,37.459,114.875,36.3047,114.875C34.0723,114.875,32.0742,116.861,32.0742,120.066C32.0742,123.512,33.6621,125.375,36.1113,125.375ZM36.4688,123.992C34.7578,123.992,33.7676,122.562,33.7676,120.131C33.7676,117.828,35.0273,116.264,36.5918,116.264C37.4062,116.264,38.1621,116.562,38.9707,117.324L38.9707,122.615C38.1621,123.547,37.3711,123.992,36.4688,123.992ZM47.9883,125.375C49.3008,125.375,50.3496,124.947,51.1934,124.391L50.6191,123.26C49.8809,123.764,49.125,124.062,48.1699,124.062C46.3125,124.062,45.0352,122.68,44.9297,120.5L51.5156,120.5C51.5508,120.248,51.5918,119.926,51.5918,119.568C51.5918,116.691,50.1855,114.875,47.6836,114.875C45.4512,114.875,43.3066,116.861,43.3066,120.125C43.3066,123.465,45.3809,125.375,47.9883,125.375ZM44.9121,119.334C45.1055,117.324,46.3301,116.193,47.7188,116.193C49.248,116.193,50.1504,117.289,50.1504,119.334L44.9121,119.334ZM57.4863,125.375C58.6523,125.375,59.6953,124.748,60.4512,123.992L60.5098,123.992L60.6504,125L62.0039,125L62.0039,110.574L60.3457,110.574L60.3457,114.336L60.4336,116.012C59.5723,115.309,58.834,114.875,57.6797,114.875C55.4473,114.875,53.4492,116.861,53.4492,120.066C53.4492,123.512,55.0371,125.375,57.4863,125.375ZM57.8438,123.992C56.1328,123.992,55.1426,122.562,55.1426,120.131C55.1426,117.828,56.4023,116.264,57.9668,116.264C58.7812,116.264,59.5371,116.562,60.3457,117.324L60.3457,122.615C59.5371,123.547,58.7461,123.992,57.8438,123.992ZM71.7773,125.375C72.9844,125.375,74.0801,124.748,75.0176,123.969L75.0703,123.969L75.2168,125L76.5645,125L76.5645,118.924C76.5645,116.463,75.5742,114.875,73.1836,114.875C71.5957,114.875,70.2305,115.578,69.3457,116.158L69.9785,117.301C70.752,116.773,71.7773,116.246,72.9141,116.246C74.5137,116.246,74.9297,117.465,74.9297,118.742C70.7695,119.211,68.9355,120.289,68.9355,122.434C68.9355,124.367,70.1426,125.375,71.7773,125.375ZM72.2461,124.045C71.2734,124.045,70.5176,123.6,70.5176,122.451C70.5176,121.15,71.6367,120.312,74.9297,119.926L74.9297,122.727C73.9746,123.6,73.1836,124.045,72.2461,124.045ZM82.7109,125.375C83.3262,125.375,83.9707,125.199,84.5332,125.018L84.2051,123.77C83.8828,123.916,83.4492,124.045,83.0918,124.045C81.9551,124.045,81.5801,123.354,81.5801,122.146L81.5801,116.586L84.2461,116.586L84.2461,115.25L81.5801,115.25L81.5801,112.496L80.209,112.496L80.0332,115.25L78.4805,115.344L78.4805,116.586L79.9395,116.586L79.9395,122.088C79.9395,124.08,80.6426,125.375,82.7109,125.375ZM89.4609,125.375C90.0762,125.375,90.7207,125.199,91.2832,125.018L90.9551,123.77C90.6328,123.916,90.1992,124.045,89.8418,124.045C88.7051,124.045,88.3301,123.354,88.3301,122.146L88.3301,116.586L90.9961,116.586L90.9961,115.25L88.3301,115.25L88.3301,112.496L86.959,112.496L86.7832,115.25L85.2305,115.344L85.2305,116.586L86.6895,116.586L86.6895,122.088C86.6895,124.08,87.3926,125.375,89.4609,125.375ZM97.1133,125.375C98.4258,125.375,99.4746,124.947,100.318,124.391L99.7441,123.26C99.0059,123.764,98.25,124.062,97.2949,124.062C95.4375,124.062,94.1602,122.68,94.0547,120.5L100.641,120.5C100.676,120.248,100.717,119.926,100.717,119.568C100.717,116.691,99.3105,114.875,96.8086,114.875C94.5762,114.875,92.4316,116.861,92.4316,120.125C92.4316,123.465,94.5059,125.375,97.1133,125.375ZM94.0371,119.334C94.2305,117.324,95.4551,116.193,96.8438,116.193C98.373,116.193,99.2754,117.289,99.2754,119.334L94.0371,119.334ZM103.277,125L104.936,125L104.936,117.828C105.908,116.826,106.588,116.316,107.596,116.316C108.896,116.316,109.453,117.102,109.453,118.959L109.453,125L111.094,125L111.094,118.742C111.094,116.229,110.156,114.875,108.105,114.875C106.77,114.875,105.744,115.613,104.824,116.557L104.789,116.557L104.631,115.25L103.277,115.25L103.277,125ZM117.211,125.375C117.826,125.375,118.471,125.199,119.033,125.018L118.705,123.77C118.383,123.916,117.949,124.045,117.592,124.045C116.455,124.045,116.08,123.354,116.08,122.146L116.08,116.586L118.746,116.586L118.746,115.25L116.08,115.25L116.08,112.496L114.709,112.496L114.533,115.25L112.98,115.344L112.98,116.586L114.439,116.586L114.439,122.088C114.439,124.08,115.143,125.375,117.211,125.375ZM120.902,125L122.561,125L122.561,115.25L120.902,115.25L120.902,125ZM121.729,113.287C122.379,113.287,122.83,112.854,122.83,112.191C122.83,111.559,122.379,111.125,121.729,111.125C121.084,111.125,120.65,111.559,120.65,112.191C120.65,112.854,121.084,113.287,121.729,113.287ZM129.574,125.375C131.971,125.375,134.098,123.488,134.098,120.148C134.098,116.785,131.971,114.875,129.574,114.875C127.184,114.875,125.057,116.785,125.057,120.148C125.057,123.488,127.184,125.375,129.574,125.375ZM129.574,124.01C127.887,124.01,126.75,122.469,126.75,120.148C126.75,117.822,127.887,116.264,129.574,116.264C131.268,116.264,132.422,117.822,132.422,120.148C132.422,122.469,131.268,124.01,129.574,124.01ZM136.652,125L138.311,125L138.311,117.828C139.283,116.826,139.963,116.316,140.971,116.316C142.271,116.316,142.828,117.102,142.828,118.959L142.828,125L144.469,125L144.469,118.742C144.469,116.229,143.531,114.875,141.48,114.875C140.145,114.875,139.119,115.613,138.199,116.557L138.164,116.557L138.006,115.25L136.652,115.25L136.652,125Z" fill="#3D3D3D" fill-opacity="1"/></g></svg>