<svg xmlns="http://www.w3.org/2000/svg" xmlns:xlink="http://www.w3.org/1999/xlink" fill="none" version="1.1" width="50" height="50" viewBox="0 0 50 50"><defs><clipPath id="master_svg0_12_1880"><rect x="50" y="0" width="50" height="50" rx="0"/></clipPath></defs><g style="mix-blend-mode:passthrough" transform="matrix(0,1,-1,0,50,-50)" clip-path="url(#master_svg0_12_1880)"><g style="mix-blend-mode:passthrough"><path d="M73.52684350585938,8.94350698828125C74.34044350585938,8.12991498828125,75.65954350585938,8.12991498828125,76.47314350585938,8.94350698828125C76.47314350585938,8.94350698828125,91.05644350585938,23.52681298828125,91.05644350585938,23.52681298828125C91.87004350585937,24.34041298828125,91.87004350585937,25.65951298828125,91.05644350585938,26.47311298828125C90.24294350585937,27.28671298828125,88.92374350585938,27.28671298828125,88.11024350585937,26.47311298828125C88.11024350585937,26.47311298828125,77.08334350585938,15.44625298828125,77.08334350585938,15.44625298828125C77.08334350585938,15.44625298828125,77.08334350585938,39.58331298828125,77.08334350585938,39.58331298828125C77.08334350585938,40.73391298828125,76.15054350585937,41.66661298828125,75.00004350585937,41.66661298828125C73.84944350585937,41.66661298828125,72.91664350585937,40.73391298828125,72.91664350585937,39.58331298828125C72.91664350585937,39.58331298828125,72.91664350585937,15.44625298828125,72.91664350585937,15.44625298828125C72.91664350585937,15.44625298828125,61.889823505859376,26.47311298828125,61.889823505859376,26.47311298828125C61.076223505859375,27.28671298828125,59.75713350585937,27.28671298828125,58.943537505859375,26.47311298828125C58.129945505859375,25.65951298828125,58.129945505859375,24.34041298828125,58.943537505859375,23.52681298828125C58.943537505859375,23.52681298828125,73.52684350585938,8.94350698828125,73.52684350585938,8.94350698828125C73.52684350585938,8.94350698828125,73.52684350585938,8.94350698828125,73.52684350585938,8.94350698828125Z" fill-rule="evenodd" fill="#000000" fill-opacity="1"/></g></g></svg>