<svg xmlns="http://www.w3.org/2000/svg" xmlns:xlink="http://www.w3.org/1999/xlink" fill="none" version="1.1" width="71" height="56" viewBox="0 0 71 56"><defs><clipPath id="master_svg0_12_11434"><rect x="0" y="0" width="56" height="56" rx="0"/></clipPath><filter id="master_svg1_12_11435" filterUnits="objectBoundingBox" color-interpolation-filters="sRGB" x="0" y="0" width="45" height="45"><feFlood flood-opacity="0" result="BackgroundImageFix"/><feBlend mode="normal" in="SourceGraphic" in2="BackgroundImageFix" result="shape"/><feColorMatrix in="SourceAlpha" type="matrix" result="hardAlpha" values="0 0 0 0 0 0 0 0 0 0 0 0 0 0 0 0 0 0 127 0"/><feOffset dy="4" dx="0"/><feGaussianBlur stdDeviation="5"/><feComposite in2="hardAlpha" operator="arithmetic" k2="-1" k3="1"/><feColorMatrix type="matrix" values="0 0 0 0 0 0 0 0 0 0 0 0 0 0 0 0 0 0 0.3019607961177826 0"/><feBlend mode="normal" in2="shape" result="effect1_innerShadow"/></filter><clipPath id="master_svg2_12_11435"><rect x="26" y="10" width="45" height="45" rx="0"/></clipPath></defs><g style="mix-blend-mode:passthrough"><g style="mix-blend-mode:passthrough" clip-path="url(#master_svg0_12_11434)"><g style="mix-blend-mode:passthrough"><path d="M24.56592490234375,5.3272826943359375C25.61422490234375,4.737058694335937,26.79692490234375,4.4269866943359375,28.00002490234375,4.4269866943359375C29.20312490234375,4.4269866943359375,30.38582490234375,4.737058694335937,31.43422490234375,5.3272826943359375C32.48262490234375,5.917506694335938,33.36112490234375,6.767976694335937,33.98502490234375,7.796596694335937C33.98502490234375,7.796596694335937,33.99182490234375,7.807656694335938,33.99182490234375,7.807656694335938C33.99182490234375,7.807656694335938,53.75512490234375,40.801086694335936,53.75512490234375,40.801086694335936C53.75512490234375,40.801086694335936,53.77402490234375,40.83328669433594,53.77402490234375,40.83328669433594C54.38532490234375,41.89168669433594,54.70872490234375,43.09168669433594,54.71202490234375,44.31418669433594C54.71552490234375,45.53638669433594,54.39892490234375,46.73828669433594,53.79362490234375,47.800186694335935C53.18832490234375,48.862086694335936,52.31542490234375,49.746886694335934,51.26192490234375,50.366786694335936C50.20872490234375,50.98658669433594,49.01122490234375,51.31978669433594,47.78902490234375,51.33328669433594C47.78902490234375,51.33328669433594,47.76332490234375,51.33348669433594,47.76332490234375,51.33348669433594C47.76332490234375,51.33348669433594,8.21109490234375,51.33328669433594,8.21109490234375,51.33328669433594C6.98887490234375,51.31998669433594,5.79149490234375,50.98658669433594,4.7380649023437496,50.366786694335936C3.68463490234375,49.746886694335934,2.8118549023437502,48.862086694335936,2.20658390234375,47.800186694335935C1.60130990234375,46.73828669433594,1.28463006234375,45.53638669433594,1.28805234844375,44.31418669433594C1.29147476234375,43.09168669433594,1.61488090234375,41.89168669433594,2.22608990234375,40.83328669433594C2.22608990234375,40.83328669433594,2.24504590234375,40.801086694335936,2.24504590234375,40.801086694335936C2.24504590234375,40.801086694335936,22.01502490234375,7.796576694335938,22.01502490234375,7.796576694335938C22.63902490234375,6.767946694335937,23.51752490234375,5.917506694335938,24.56592490234375,5.3272826943359375C24.56592490234375,5.3272826943359375,24.56592490234375,5.3272826943359375,24.56592490234375,5.3272826943359375ZM28.00002490234375,9.093656694335937C27.59912490234375,9.093656694335937,27.20482490234375,9.197016694335938,26.85532490234375,9.393746694335938C26.50742490234375,9.589606694335938,26.21572490234375,9.871426694335938,26.00782490234375,10.212206694335936C26.00782490234375,10.212206694335936,6.25968490234375,43.18038669433594,6.25968490234375,43.18038669433594C6.06092490234375,43.529886694335936,5.95583490234375,43.924986694335935,5.95469490234375,44.327186694335936C5.95357490234375,44.73458669433594,6.05910490234375,45.13528669433594,6.26087490234375,45.489186694335935C6.46263490234375,45.84318669433594,6.75355490234375,46.13808669433594,7.10469490234375,46.34458669433594C7.45278490234375,46.54948669433594,7.84798490234375,46.66028669433594,8.251674902343751,46.66658669433594C8.251674902343751,46.66658669433594,47.74842490234375,46.66658669433594,47.74842490234375,46.66658669433594C48.15212490234375,46.66028669433594,48.54732490234375,46.54948669433594,48.89552490234375,46.34458669433594C49.24662490234375,46.13808669433594,49.53742490234375,45.84318669433594,49.73922490234375,45.489186694335935C49.94102490234375,45.13528669433594,50.04652490234375,44.73458669433594,50.04532490234375,44.327186694335936C50.04442490234375,43.924986694335935,49.93922490234375,43.529886694335936,49.74062490234375,43.18038669433594C49.74062490234375,43.18038669433594,29.99502490234375,10.216846694335938,29.99502490234375,10.216846694335938C29.99412490234375,10.215306694335936,29.99312490234375,10.213746694335939,29.99222490234375,10.212206694335936C29.78432490234375,9.871426694335938,29.49262490234375,9.589606694335938,29.14472490234375,9.393746694335938C28.79542490234375,9.197016694335938,28.40112490234375,9.093656694335937,28.00002490234375,9.093656694335937C28.00002490234375,9.093656694335937,28.00002490234375,9.093656694335937,28.00002490234375,9.093656694335937Z" fill-rule="evenodd" fill="#000000" fill-opacity="1"/></g></g><g style="mix-blend-mode:passthrough" filter="url(#master_svg1_12_11435)"><g clip-path="url(#master_svg2_12_11435)"><g style="mix-blend-mode:passthrough"><path d="M45.7404341796875,14.28085937915039C46.582834179687495,13.80657237915039,47.5332341796875,13.55740737915039,48.5000341796875,13.55740737915039C49.4667341796875,13.55740737915039,50.4172341796875,13.80657237915039,51.259634179687495,14.28085937915039C52.102134179687496,14.75514737915039,52.808034179687496,15.43855737915039,53.3094341796875,16.265137379150392C53.3094341796875,16.265137379150392,53.3148341796875,16.27401737915039,53.3148341796875,16.27401737915039C53.3148341796875,16.27401737915039,69.1961341796875,42.78660737915039,69.1961341796875,42.78660737915039C69.1961341796875,42.78660737915039,69.2112341796875,42.81250737915039,69.2112341796875,42.81250737915039C69.70253417968749,43.663007379150386,69.9624341796875,44.627307379150395,69.9650341796875,45.60960737915039C69.9678341796875,46.59170737915039,69.71343417968751,47.557507379150394,69.22703417968751,48.41080737915039C68.7406341796875,49.26410737915039,68.0392341796875,49.97520737915039,67.1926341796875,50.47330737915039C66.3462341796875,50.97130737915039,65.38403417968749,51.23910737915039,64.4019341796875,51.25000737915039C64.4019341796875,51.25000737915039,64.38123417968751,51.25010737915039,64.38123417968751,51.25010737915039C64.38123417968751,51.25010737915039,32.5982141796875,51.25000737915039,32.5982141796875,51.25000737915039C31.6160741796875,51.23930737915039,30.6538941796875,50.97130737915039,29.8073941796875,50.47330737915039C28.9608841796875,49.97520737915039,28.2595441796875,49.26410737915039,27.7731611796875,48.41080737915039C27.2867811796875,47.557507379150394,27.0323061896875,46.59170737915039,27.0350562345875,45.60960737915039C27.0378063896875,44.627307379150395,27.2976861796875,43.663007379150386,27.7888361796875,42.81250737915039C27.7888361796875,42.81250737915039,27.8040691796875,42.78660737915039,27.8040691796875,42.78660737915039C27.8040691796875,42.78660737915039,43.6906341796875,16.26511737915039,43.6906341796875,16.26511737915039C44.1920341796875,15.438537379150391,44.8980341796875,14.75514737915039,45.7404341796875,14.28085937915039C45.7404341796875,14.28085937915039,45.7404341796875,14.28085937915039,45.7404341796875,14.28085937915039ZM48.5000341796875,17.30740737915039C48.1779341796875,17.30740737915039,47.8610341796875,17.39046737915039,47.580134179687505,17.548547379150392C47.3006341796875,17.70593737915039,47.0662341796875,17.93239737915039,46.8991341796875,18.20624737915039C46.8991341796875,18.20624737915039,31.0301141796875,44.69850737915039,31.0301141796875,44.69850737915039C30.8704041796875,44.97940737915039,30.7859541796875,45.296807379150394,30.7850341796875,45.62010737915039C30.7841341796875,45.94750737915039,30.8689441796875,46.269407379150394,31.0310741796875,46.55380737915039C31.1932041796875,46.83830737915039,31.426974179687498,47.07530737915039,31.7091441796875,47.24120737915039C31.9888541796875,47.40580737915039,32.3064241796875,47.49490737915039,32.6308241796875,47.50000737915039C32.6308241796875,47.50000737915039,64.36923417968751,47.50000737915039,64.36923417968751,47.50000737915039C64.6936341796875,47.49490737915039,65.0112341796875,47.40580737915039,65.2910341796875,47.24120737915039C65.5732341796875,47.07530737915039,65.8068341796875,46.83830737915039,65.9690341796875,46.55380737915039C66.13123417968751,46.269407379150394,66.21593417968751,45.94750737915039,66.2150341796875,45.62010737915039C66.21423417968751,45.296807379150394,66.1297341796875,44.97940737915039,65.9701341796875,44.69850737915039C65.9701341796875,44.69850737915039,50.1031341796875,18.20997737915039,50.1031341796875,18.20997737915039C50.1024341796875,18.208737379150392,50.1016341796875,18.20747737915039,50.1009341796875,18.20624737915039C49.9338341796875,17.93239737915039,49.6994341796875,17.70593737915039,49.4199341796875,17.548547379150392C49.1392341796875,17.39046737915039,48.8223341796875,17.30740737915039,48.5000341796875,17.30740737915039C48.5000341796875,17.30740737915039,48.5000341796875,17.30740737915039,48.5000341796875,17.30740737915039Z" fill-rule="evenodd" fill="#000000" fill-opacity="1"/></g></g></g></g></svg>