<svg xmlns="http://www.w3.org/2000/svg" xmlns:xlink="http://www.w3.org/1999/xlink" fill="none" version="1.1" width="44" height="44" viewBox="0 0 44 44"><defs><clipPath id="master_svg0_162_1988"><rect x="0" y="0" width="44" height="44" rx="0"/></clipPath></defs><g style="mix-blend-mode:passthrough" clip-path="url(#master_svg0_162_1988)"><g style="mix-blend-mode:passthrough"><path d="M41.62971298828125,2.37033498828125C42.12781298828125,2.8683329882812503,42.29641298828125,3.60759298828125,42.06381298828125,4.27234298828125C42.06381298828125,4.27234298828125,29.23051298828125,40.93901298828125,29.23051298828125,40.93901298828125C28.98201298828125,41.64851298828125,28.32571298828125,42.13461298828125,27.57481298828125,42.16521298828125C26.82371298828125,42.19581298828125,26.12991298828125,41.76481298828125,25.82471298828125,41.07801298828125C25.82471298828125,41.07801298828125,18.77771298828125,25.22221298828125,18.77771298828125,25.22221298828125C18.77771298828125,25.22221298828125,2.9220729882812497,18.17531298828125,2.9220729882812497,18.17531298828125C2.23515398828125,17.87001298828125,1.80420418828125,17.17641298828125,1.83484617828125,16.42531298828125C1.86548818828125,15.67421298828125,2.35151198828125,15.01791298828125,3.06101298828125,14.76961298828125C3.06101298828125,14.76961298828125,39.72781298828125,1.93628998828125,39.72781298828125,1.93628998828125C40.39231298828125,1.70363098828125,41.13171298828125,1.87233218828125,41.62971298828125,2.37033498828125C41.62971298828125,2.37033498828125,41.62971298828125,2.37033498828125,41.62971298828125,2.37033498828125ZM22.35341298828125,24.23941298828125C22.35341298828125,24.23941298828125,27.29721298828125,35.36311298828125,27.29721298828125,35.36311298828125C27.29721298828125,35.36311298828125,35.94891298828125,10.64378298828125,35.94891298828125,10.64378298828125C35.94891298828125,10.64378298828125,22.35341298828125,24.23941298828125,22.35341298828125,24.23941298828125C22.35341298828125,24.23941298828125,22.35341298828125,24.23941298828125,22.35341298828125,24.23941298828125ZM33.35621298828125,8.051062988281249C33.35621298828125,8.051062988281249,8.636962988281251,16.702812988281252,8.636962988281251,16.702812988281252C8.636962988281251,16.702812988281252,19.76061298828125,21.64671298828125,19.76061298828125,21.64671298828125C19.76061298828125,21.64671298828125,33.35621298828125,8.051062988281249,33.35621298828125,8.051062988281249C33.35621298828125,8.051062988281249,33.35621298828125,8.051062988281249,33.35621298828125,8.051062988281249Z" fill-rule="evenodd" fill="#000000" fill-opacity="1"/></g></g></svg>