<svg xmlns="http://www.w3.org/2000/svg" xmlns:xlink="http://www.w3.org/1999/xlink" fill="none" version="1.1" width="56" height="56" viewBox="0 0 56 56"><defs><clipPath id="master_svg0_12_11434"><rect x="0" y="0" width="56" height="56" rx="0"/></clipPath></defs><g style="mix-blend-mode:passthrough" clip-path="url(#master_svg0_12_11434)"><g style="mix-blend-mode:passthrough"><path d="M24.56592490234375,5.3272826943359375C25.61422490234375,4.737058694335937,26.79692490234375,4.4269866943359375,28.00002490234375,4.4269866943359375C29.20312490234375,4.4269866943359375,30.38582490234375,4.737058694335937,31.43422490234375,5.3272826943359375C32.48262490234375,5.917506694335938,33.36112490234375,6.767976694335937,33.98502490234375,7.796596694335937C33.98502490234375,7.796596694335937,33.99182490234375,7.807656694335938,33.99182490234375,7.807656694335938C33.99182490234375,7.807656694335938,53.75512490234375,40.801086694335936,53.75512490234375,40.801086694335936C53.75512490234375,40.801086694335936,53.77402490234375,40.83328669433594,53.77402490234375,40.83328669433594C54.38532490234375,41.89168669433594,54.70872490234375,43.09168669433594,54.71202490234375,44.31418669433594C54.71552490234375,45.53638669433594,54.39892490234375,46.73828669433594,53.79362490234375,47.800186694335935C53.18832490234375,48.862086694335936,52.31542490234375,49.746886694335934,51.26192490234375,50.366786694335936C50.20872490234375,50.98658669433594,49.01122490234375,51.31978669433594,47.78902490234375,51.33328669433594C47.78902490234375,51.33328669433594,47.76332490234375,51.33348669433594,47.76332490234375,51.33348669433594C47.76332490234375,51.33348669433594,8.21109490234375,51.33328669433594,8.21109490234375,51.33328669433594C6.98887490234375,51.31998669433594,5.79149490234375,50.98658669433594,4.7380649023437496,50.366786694335936C3.68463490234375,49.746886694335934,2.8118549023437502,48.862086694335936,2.20658390234375,47.800186694335935C1.60130990234375,46.73828669433594,1.28463006234375,45.53638669433594,1.28805234844375,44.31418669433594C1.29147476234375,43.09168669433594,1.61488090234375,41.89168669433594,2.22608990234375,40.83328669433594C2.22608990234375,40.83328669433594,2.24504590234375,40.801086694335936,2.24504590234375,40.801086694335936C2.24504590234375,40.801086694335936,22.01502490234375,7.796576694335938,22.01502490234375,7.796576694335938C22.63902490234375,6.767946694335937,23.51752490234375,5.917506694335938,24.56592490234375,5.3272826943359375C24.56592490234375,5.3272826943359375,24.56592490234375,5.3272826943359375,24.56592490234375,5.3272826943359375ZM28.00002490234375,9.093656694335937C27.59912490234375,9.093656694335937,27.20482490234375,9.197016694335938,26.85532490234375,9.393746694335938C26.50742490234375,9.589606694335938,26.21572490234375,9.871426694335938,26.00782490234375,10.212206694335936C26.00782490234375,10.212206694335936,6.25968490234375,43.18038669433594,6.25968490234375,43.18038669433594C6.06092490234375,43.529886694335936,5.95583490234375,43.924986694335935,5.95469490234375,44.327186694335936C5.95357490234375,44.73458669433594,6.05910490234375,45.13528669433594,6.26087490234375,45.489186694335935C6.46263490234375,45.84318669433594,6.75355490234375,46.13808669433594,7.10469490234375,46.34458669433594C7.45278490234375,46.54948669433594,7.84798490234375,46.66028669433594,8.251674902343751,46.66658669433594C8.251674902343751,46.66658669433594,47.74842490234375,46.66658669433594,47.74842490234375,46.66658669433594C48.15212490234375,46.66028669433594,48.54732490234375,46.54948669433594,48.89552490234375,46.34458669433594C49.24662490234375,46.13808669433594,49.53742490234375,45.84318669433594,49.73922490234375,45.489186694335935C49.94102490234375,45.13528669433594,50.04652490234375,44.73458669433594,50.04532490234375,44.327186694335936C50.04442490234375,43.924986694335935,49.93922490234375,43.529886694335936,49.74062490234375,43.18038669433594C49.74062490234375,43.18038669433594,29.99502490234375,10.216846694335938,29.99502490234375,10.216846694335938C29.99412490234375,10.215306694335936,29.99312490234375,10.213746694335939,29.99222490234375,10.212206694335936C29.78432490234375,9.871426694335938,29.49262490234375,9.589606694335938,29.14472490234375,9.393746694335938C28.79542490234375,9.197016694335938,28.40112490234375,9.093656694335937,28.00002490234375,9.093656694335937C28.00002490234375,9.093656694335937,28.00002490234375,9.093656694335937,28.00002490234375,9.093656694335937Z" fill-rule="evenodd" fill="#000000" fill-opacity="1"/></g></g></svg>