<svg xmlns="http://www.w3.org/2000/svg" xmlns:xlink="http://www.w3.org/1999/xlink" fill="none" version="1.1" width="30" height="30" viewBox="0 0 30 30"><defs><clipPath id="master_svg0_1_00506"><rect x="0" y="0" width="30" height="30" rx="0"/></clipPath></defs><g style="mix-blend-mode:passthrough" clip-path="url(#master_svg0_1_00506)"><g style="mix-blend-mode:passthrough"><path d="M18.15688229980469,2.950312C16.84588229980469,3.4507250000000003,15.719982299804688,4.34171,14.931982299804687,5.502689999999999C14.931982299804687,5.502689999999999,14.742882299804688,5.797280000000001,14.742882299804688,5.797280000000001C14.138482299804688,6.79335,13.798182299804688,7.92739,13.754382299804687,9.091719999999999C13.754382299804687,9.091719999999999,13.749982299804687,9.39375,13.749982299804687,9.39375C13.749982299804687,9.39375,13.594482299804687,9.38293,13.594482299804687,9.38293C12.076882299804687,9.249179999999999,10.593982299804688,8.82901,9.225742299804688,8.14034C7.447052299804687,7.24506,5.917372299804687,5.92379,4.772932299804688,4.29419C4.214572299804687,3.4991,3.0023222998046877,3.61708,2.6077322998046877,4.5049C2.5670222998046874,4.5965,2.5221622998046875,4.70424,2.4742422998046876,4.82728C2.4742422998046876,4.82728,2.3224622998046875,5.24146,2.3224622998046875,5.24146C2.2166122998046873,5.54706,2.1029322998046873,5.9105,1.9901822998046874,6.32503C1.2446922998046874,9.06578,1.1142622998046876,11.95165,2.0078722998046876,14.6978C2.0078722998046876,14.6978,2.1275522998046874,15.0471,2.1275522998046874,15.0471C3.0021422998046874,17.475099999999998,4.650222299804687,19.5455,7.144932299804688,21.1481C7.144932299804688,21.1481,7.391242299804688,21.3025,7.391242299804688,21.3025C7.391242299804688,21.3025,7.241582299804688,21.3725,7.241582299804688,21.3725C5.384402299804687,22.2001,3.3521122998046873,22.5953,1.2997022998046874,22.5135C-0.0157983001953125,22.4611,-0.5079317001953125,24.2159,0.6429372998046875,24.8552C13.192382299804688,31.8271,27.49998229980469,24.2119,27.49998229980469,9.38757C27.49998229980469,9.38757,27.491582299804687,9.06636,27.491582299804687,9.06636C27.491582299804687,9.06636,27.469982299804688,8.77375,27.469982299804688,8.77375C27.469982299804688,8.77375,27.61898229980469,8.608789999999999,27.61898229980469,8.608789999999999C28.74828229980469,7.30285,29.553982299804687,5.74386,29.964482299804686,4.05838C30.23788229980469,2.936188,28.973182299804687,2.075379,28.029482299804688,2.741121C28.029482299804688,2.741121,27.616382299804688,3.0202,27.616382299804688,3.0202C26.91908229980469,3.471099,26.178582299804688,3.85046,25.406082299804687,4.15275C25.406082299804687,4.15275,25.15998229980469,4.2425,25.15998229980469,4.2425C25.15998229980469,4.2425,25.023182299804688,4.1200399999999995,25.023182299804688,4.1200399999999995C24.226682299804686,3.446314,23.283082299804686,2.960317,22.26208229980469,2.704857C20.90088229980469,2.364249,19.46788229980469,2.4499264,18.15688229980469,2.950312C18.15688229980469,2.950312,18.15688229980469,2.950312,18.15688229980469,2.950312ZM21.65538229980469,5.13009C22.51968229980469,5.3464,23.296982299804686,5.822979999999999,23.881882299804687,6.4954C24.20448229980469,6.86637,24.714582299804686,7.01375,25.185382299804687,6.87199C25.185382299804687,6.87199,25.692582299804688,6.70929,25.692582299804688,6.70929C25.692582299804688,6.70929,26.044982299804687,6.58125,26.044982299804687,6.58125C25.807082299804687,6.89453,25.549882299804686,7.18629,25.272282299804687,7.46006C24.975282299804686,7.75305,24.843882299804687,8.174949999999999,24.92228229980469,8.584769999999999C24.973082299804688,8.85084,24.999082299804687,9.12095,24.99998229980469,9.39161C24.99998229980469,9.39161,24.996382299804687,9.77529,24.996382299804687,9.77529C24.789882299804688,20.5919,15.859082299804687,26.7726,6.486922299804688,24.4986C6.486922299804688,24.4986,6.161242299804687,24.415,6.161242299804687,24.415C6.161242299804687,24.415,6.397472299804687,24.349,6.397472299804687,24.349C7.9183722998046875,23.8895,9.370822299804688,23.2004,10.702082299804687,22.2968C11.513282299804688,21.7461,11.403582299804688,20.5185,10.507682299804687,20.1203C7.168762299804688,18.6362,5.231452299804688,16.525,4.385172299804688,13.9242C4.385172299804688,13.9242,4.259712299804687,13.5067,4.259712299804687,13.5067C3.7574922998046874,11.68779,3.7903022998046874,9.74802,4.191712299804688,7.85238C4.191712299804688,7.85238,4.257342299804687,7.56865,4.257342299804687,7.56865C5.372742299804687,8.704049999999999,6.670472299804688,9.652999999999999,8.101772299804688,10.37341C10.248682299804688,11.45405,12.629582299804687,11.98695,15.032382299804688,11.92465C15.709882299804688,11.90709,16.24998229980469,11.35281,16.24998229980469,10.67508C16.24998229980469,10.67508,16.24998229980469,9.425080000000001,16.24998229980469,9.425080000000001C16.23798229980469,8.517240000000001,16.49998229980469,7.64405,17.000482299804688,6.90681C17.500882299804687,6.16955,18.215782299804687,5.60375,19.048382299804686,5.28596C19.88088229980469,4.9681999999999995,20.790882299804686,4.9138,21.65538229980469,5.13009C21.65538229980469,5.13009,21.65538229980469,5.13009,21.65538229980469,5.13009Z" fill="#000000" fill-opacity="1"/></g></g></svg>