<svg xmlns="http://www.w3.org/2000/svg" xmlns:xlink="http://www.w3.org/1999/xlink" fill="none" version="1.1" width="50" height="50" viewBox="0 0 50 50"><defs><clipPath id="master_svg0_12_10118"><rect x="0" y="0" width="50" height="50" rx="0"/></clipPath></defs><g style="mix-blend-mode:passthrough" clip-path="url(#master_svg0_12_10118)"><g style="mix-blend-mode:passthrough"><path d="M17.7083,8.333341752929687C14.2566,8.333341752929687,11.4583,11.131571752929688,11.4583,14.583371752929688C11.4583,18.03507175292969,14.2566,20.833371752929686,17.7083,20.833371752929686C21.1602,20.833371752929686,23.9583,18.03507175292969,23.9583,14.583371752929688C23.9583,11.131571752929688,21.1602,8.333341752929687,17.7083,8.333341752929687C17.7083,8.333341752929687,17.7083,8.333341752929687,17.7083,8.333341752929687ZM7.29167,14.583371752929688C7.29167,8.830381752929688,11.9554,4.1666717529296875,17.7083,4.1666717529296875C23.4613,4.1666717529296875,28.125,8.830381752929688,28.125,14.583371752929688C28.125,20.336271752929687,23.4613,24.99997175292969,17.7083,24.99997175292969C11.9554,24.99997175292969,7.29167,20.336271752929687,7.29167,14.583371752929688C7.29167,14.583371752929688,7.29167,14.583371752929688,7.29167,14.583371752929688ZM41.6667,14.583371752929688C42.8173,14.583371752929688,43.75,15.516071752929687,43.75,16.666671752929688C43.75,16.666671752929688,43.75,20.833371752929686,43.75,20.833371752929686C43.75,20.833371752929686,47.9167,20.833371752929686,47.9167,20.833371752929686C49.0673,20.833371752929686,50,21.766071752929687,50,22.916671752929688C50,24.06727175292969,49.0673,24.99997175292969,47.9167,24.99997175292969C47.9167,24.99997175292969,43.75,24.99997175292969,43.75,24.99997175292969C43.75,24.99997175292969,43.75,29.166671752929688,43.75,29.166671752929688C43.75,30.31727175292969,42.8173,31.24997175292969,41.6667,31.24997175292969C40.516,31.24997175292969,39.5833,30.31727175292969,39.5833,29.166671752929688C39.5833,29.166671752929688,39.5833,24.99997175292969,39.5833,24.99997175292969C39.5833,24.99997175292969,35.4167,24.99997175292969,35.4167,24.99997175292969C34.266,24.99997175292969,33.3333,24.06727175292969,33.3333,22.916671752929688C33.3333,21.766071752929687,34.266,20.833371752929686,35.4167,20.833371752929686C35.4167,20.833371752929686,39.5833,20.833371752929686,39.5833,20.833371752929686C39.5833,20.833371752929686,39.5833,16.666671752929688,39.5833,16.666671752929688C39.5833,15.516071752929687,40.516,14.583371752929688,41.6667,14.583371752929688C41.6667,14.583371752929688,41.6667,14.583371752929688,41.6667,14.583371752929688ZM3.05098,32.21767175292969C5.00448,30.264171752929688,7.654,29.166671752929688,10.4167,29.166671752929688C10.4167,29.166671752929688,25,29.166671752929688,25,29.166671752929688C27.7627,29.166671752929688,30.4123,30.264171752929688,32.3656,32.21767175292969C34.3192,34.17107175292969,35.4167,36.82067175292969,35.4167,39.583371752929686C35.4167,39.583371752929686,35.4167,43.74997175292969,35.4167,43.74997175292969C35.4167,44.90067175292969,34.484,45.833371752929686,33.3333,45.833371752929686C32.1827,45.833371752929686,31.25,44.90067175292969,31.25,43.74997175292969C31.25,43.74997175292969,31.25,39.583371752929686,31.25,39.583371752929686C31.25,37.92567175292969,30.5915,36.33607175292969,29.4194,35.16397175292968C28.2473,33.99187175292968,26.6575,33.333371752929686,25,33.333371752929686C25,33.333371752929686,10.4167,33.333371752929686,10.4167,33.333371752929686C8.75906,33.333371752929686,7.16935,33.99187175292968,5.99725,35.16397175292968C4.82515,36.33607175292969,4.16667,37.92567175292969,4.16667,39.583371752929686C4.16667,39.583371752929686,4.16667,43.74997175292969,4.16667,43.74997175292969C4.16667,44.90067175292969,3.23392,45.833371752929686,2.08333,45.833371752929686C0.93274,45.833371752929686,0,44.90067175292969,0,43.74997175292969C0,43.74997175292969,0,39.583371752929686,0,39.583371752929686C0,36.82067175292969,1.09747,34.17107175292969,3.05098,32.21767175292969C3.05098,32.21767175292969,3.05098,32.21767175292969,3.05098,32.21767175292969Z" fill-rule="evenodd" fill="#000000" fill-opacity="1"/></g></g></svg>