<svg xmlns="http://www.w3.org/2000/svg" xmlns:xlink="http://www.w3.org/1999/xlink" fill="none" version="1.1" width="24" height="25" viewBox="0 0 24 25"><defs><clipPath id="master_svg0_3_1601"><rect x="0" y="1" width="24" height="24" rx="0"/></clipPath></defs><g style="mix-blend-mode:passthrough"><g style="mix-blend-mode:passthrough" clip-path="url(#master_svg0_3_1601)"><g style="mix-blend-mode:passthrough"><path d="M12,5C12.55228,5,13,5.447715,13,6C13,6,13,12,13,12C13,12,19,12,19,12C19.552300000000002,12,20,12.44772,20,13C20,13.55228,19.552300000000002,14,19,14C19,14,13,14,13,14C13,14,13,20,13,20C13,20.552300000000002,12.55228,21,12,21C11.44772,21,11,20.552300000000002,11,20C11,20,11,14,11,14C11,14,5,14,5,14C4.447715,14,4,13.55228,4,13C4,12.44772,4.447715,12,5,12C5,12,11,12,11,12C11,12,11,6,11,6C11,5.447715,11.44772,5,12,5C12,5,12,5,12,5Z" fill-rule="evenodd" fill="#000000" fill-opacity="1"/></g></g></g></svg>