<svg xmlns="http://www.w3.org/2000/svg" xmlns:xlink="http://www.w3.org/1999/xlink" fill="none" version="1.1" width="153" height="159" viewBox="0 0 153 159"><g style="mix-blend-mode:passthrough"><path d="M5.4668,21.375C8.22656,21.375,9.94922,19.7168,9.94922,17.5898C9.94922,15.5859,8.76562,14.6719,7.23633,13.9922L5.36133,13.166C4.33594,12.7266,3.16406,12.2285,3.16406,10.9043C3.16406,9.71484,4.13672,8.95898,5.63086,8.95898C6.85547,8.95898,7.82812,9.43945,8.63672,10.207L9.50391,9.12891C8.58398,8.16797,7.19531,7.5,5.63086,7.5C3.24023,7.5,1.4707,8.95898,1.4707,11.0332C1.4707,13.002,2.92969,13.9512,4.1543,14.4844L6.04688,15.3281C7.30664,15.9023,8.26172,16.3418,8.26172,17.7363C8.26172,19.0371,7.23633,19.9219,5.49023,19.9219C4.11914,19.9219,2.78906,19.2598,1.85156,18.252L0.861328,19.4238C1.99805,20.6191,3.59766,21.375,5.4668,21.375ZM12.5273,21L14.1855,21L14.1855,13.8281C15.1582,12.8262,15.8379,12.3164,16.8457,12.3164C18.1465,12.3164,18.7031,13.1016,18.7031,14.959L18.7031,21L20.3438,21L20.3438,14.7422C20.3438,12.2285,19.4062,10.875,17.3555,10.875C16.0195,10.875,15.0117,11.6133,14.1152,12.5156L14.1855,10.5L14.1855,6.57422L12.5273,6.57422L12.5273,21ZM25.6523,21.375C26.8594,21.375,27.9551,20.748,28.8926,19.9688L28.9453,19.9688L29.0918,21L30.4395,21L30.4395,14.9238C30.4395,12.4629,29.4492,10.875,27.0586,10.875C25.4707,10.875,24.1055,11.5781,23.2207,12.1582L23.8535,13.3008C24.627,12.7734,25.6523,12.2461,26.7891,12.2461C28.3887,12.2461,28.8047,13.4648,28.8047,14.7422C24.6445,15.2109,22.8105,16.2891,22.8105,18.4336C22.8105,20.3672,24.0176,21.375,25.6523,21.375ZM26.1211,20.0449C25.1484,20.0449,24.3926,19.5996,24.3926,18.4512C24.3926,17.1504,25.5117,16.3125,28.8047,15.9258L28.8047,18.7266C27.8496,19.5996,27.0586,20.0449,26.1211,20.0449ZM33.5273,21L35.1855,21L35.1855,14.6484C35.8301,12.9727,36.8203,12.3516,37.6348,12.3516C38.0449,12.3516,38.2617,12.4102,38.584,12.5156L38.8945,11.25C38.584,10.9336,38.2793,10.875,37.8457,10.875C36.7676,10.875,35.7598,11.6719,35.0742,12.9199L35.0391,12.9199L34.8809,11.25L33.5273,11.25L33.5273,21ZM44.6133,21.375C45.9258,21.375,46.9746,20.9473,47.8184,20.3906L47.2441,19.2598C46.5059,19.7637,45.75,20.0625,44.7949,20.0625C42.9375,20.0625,41.6602,18.6797,41.5547,16.5L48.1406,16.5C48.1758,16.248,48.2168,15.9258,48.2168,15.5684C48.2168,12.6914,46.8105,10.875,44.3086,10.875C42.0762,10.875,39.9316,12.8613,39.9316,16.125C39.9316,19.4648,42.0059,21.375,44.6133,21.375ZM41.5371,15.334C41.7305,13.3242,42.9551,12.1934,44.3438,12.1934C45.873,12.1934,46.7754,13.2891,46.7754,15.334L41.5371,15.334ZM55.0664,25.125C57.0117,25.125,58.0371,23.6543,58.7168,21.7617L62.3906,11.25L60.791,11.25L59.0273,16.623C58.7754,17.4961,58.4883,18.4805,58.2363,19.3711L58.1426,19.3711C57.8027,18.4629,57.4746,17.4785,57.1699,16.623L55.1895,11.25L53.4785,11.25L57.4043,20.959L57.1875,21.6914C56.7773,22.8867,56.0918,23.7773,54.9961,23.7773C54.7207,23.7773,54.4336,23.6895,54.2344,23.6191L53.9121,24.9316C54.2168,25.0547,54.6152,25.125,55.0664,25.125ZM68.0742,21.375C70.4707,21.375,72.5977,19.4883,72.5977,16.1484C72.5977,12.7852,70.4707,10.875,68.0742,10.875C65.6836,10.875,63.5566,12.7852,63.5566,16.1484C63.5566,19.4883,65.6836,21.375,68.0742,21.375ZM68.0742,20.0098C66.3867,20.0098,65.25,18.4688,65.25,16.1484C65.25,13.8223,66.3867,12.2637,68.0742,12.2637C69.7676,12.2637,70.9219,13.8223,70.9219,16.1484C70.9219,18.4688,69.7676,20.0098,68.0742,20.0098ZM78.0176,21.375C79.3477,21.375,80.3203,20.6777,81.2402,19.6113L81.293,19.6113L81.416,21L82.7871,21L82.7871,11.25L81.1465,11.25L81.1465,18.2754C80.209,19.4473,79.5117,19.957,78.5039,19.957C77.2031,19.957,76.6641,19.1719,76.6641,17.3262L76.6641,11.25L75.0117,11.25L75.0117,17.5312C75.0117,20.0625,75.9434,21.375,78.0176,21.375ZM86.0273,21L87.6855,21L87.6855,14.6484C88.3301,12.9727,89.3203,12.3516,90.1348,12.3516C90.5449,12.3516,90.7617,12.4102,91.084,12.5156L91.3945,11.25C91.084,10.9336,90.7793,10.875,90.3457,10.875C89.2676,10.875,88.2598,11.6719,87.5742,12.9199L87.5391,12.9199L87.3809,11.25L86.0273,11.25L86.0273,21ZM1.65234,47L3.31055,47L3.31055,37.25L1.65234,37.25L1.65234,47ZM2.47852,35.2871C3.12891,35.2871,3.58008,34.8535,3.58008,34.1914C3.58008,33.5586,3.12891,33.125,2.47852,33.125C1.83398,33.125,1.40039,33.5586,1.40039,34.1914C1.40039,34.8535,1.83398,35.2871,2.47852,35.2871ZM6.52734,47L8.18555,47L8.18555,39.8281C9.1582,38.8262,9.83789,38.3164,10.8457,38.3164C12.1465,38.3164,12.7031,39.1016,12.7031,40.959L12.7031,47L14.3438,47L14.3438,40.7422C14.3438,38.2285,13.4062,36.875,11.3555,36.875C10.0195,36.875,8.99414,37.6133,8.07422,38.5566L8.03906,38.5566L7.88086,37.25L6.52734,37.25L6.52734,47ZM16.3418,38.5859L17.6719,38.5859L17.6719,47L19.3125,47L19.3125,38.5859L21.3809,38.5859L21.3809,37.25L19.3125,37.25L19.3125,35.668C19.3125,34.373,19.7637,33.6934,20.6953,33.6934C21.041,33.6934,21.4336,33.7871,21.7969,33.9688L22.1543,32.6855C21.7031,32.5039,21.1289,32.375,20.5195,32.375C18.5742,32.375,17.6719,33.6172,17.6719,35.6504L17.6719,37.25L16.3418,37.3438L16.3418,38.5859ZM27.1992,47.375C29.5957,47.375,31.7227,45.4883,31.7227,42.1484C31.7227,38.7852,29.5957,36.875,27.1992,36.875C24.8086,36.875,22.6816,38.7852,22.6816,42.1484C22.6816,45.4883,24.8086,47.375,27.1992,47.375ZM27.1992,46.0098C25.5117,46.0098,24.375,44.4688,24.375,42.1484C24.375,39.8223,25.5117,38.2637,27.1992,38.2637C28.8926,38.2637,30.0469,39.8223,30.0469,42.1484C30.0469,44.4688,28.8926,46.0098,27.1992,46.0098ZM34.2773,47L35.9355,47L35.9355,40.6484C36.5801,38.9727,37.5703,38.3516,38.3848,38.3516C38.7949,38.3516,39.0117,38.4102,39.334,38.5156L39.6445,37.25C39.334,36.9336,39.0293,36.875,38.5957,36.875C37.5176,36.875,36.5098,37.6719,35.8242,38.9199L35.7891,38.9199L35.6309,37.25L34.2773,37.25L34.2773,47ZM41.4023,47L43.0605,47L43.0605,39.8281C43.9395,38.8086,44.7715,38.3164,45.5098,38.3164C46.752,38.3164,47.3262,39.1016,47.3262,40.959L47.3262,47L48.9668,47L48.9668,39.8281C49.8809,38.8086,50.6719,38.3164,51.4277,38.3164C52.6699,38.3164,53.25,39.1016,53.25,40.959L53.25,47L54.8848,47L54.8848,40.7422C54.8848,38.2285,53.9297,36.875,51.9316,36.875C50.7305,36.875,49.7227,37.6543,48.6914,38.7559C48.2988,37.5957,47.5078,36.875,45.9961,36.875C44.8242,36.875,43.8164,37.6133,42.9492,38.5566L42.9141,38.5566L42.7559,37.25L41.4023,37.25L41.4023,47ZM60.1523,47.375C61.3594,47.375,62.4551,46.748,63.3926,45.9688L63.4453,45.9688L63.5918,47L64.9395,47L64.9395,40.9238C64.9395,38.4629,63.9492,36.875,61.5586,36.875C59.9707,36.875,58.6055,37.5781,57.7207,38.1582L58.3535,39.3008C59.127,38.7734,60.1523,38.2461,61.2891,38.2461C62.8887,38.2461,63.3047,39.4648,63.3047,40.7422C59.1445,41.2109,57.3105,42.2891,57.3105,44.4336C57.3105,46.3672,58.5176,47.375,60.1523,47.375ZM60.6211,46.0449C59.6484,46.0449,58.8926,45.5996,58.8926,44.4512C58.8926,43.1504,60.0117,42.3125,63.3047,41.9258L63.3047,44.7266C62.3496,45.5996,61.5586,46.0449,60.6211,46.0449ZM71.0859,47.375C71.7012,47.375,72.3457,47.1992,72.9082,47.0176L72.5801,45.7695C72.2578,45.916,71.8242,46.0449,71.4668,46.0449C70.3301,46.0449,69.9551,45.3535,69.9551,44.1465L69.9551,38.5859L72.6211,38.5859L72.6211,37.25L69.9551,37.25L69.9551,34.4961L68.584,34.4961L68.4082,37.25L66.8555,37.3438L66.8555,38.5859L68.3145,38.5859L68.3145,44.0879C68.3145,46.0801,69.0176,47.375,71.0859,47.375ZM74.7773,47L76.4355,47L76.4355,37.25L74.7773,37.25L74.7773,47ZM75.6035,35.2871C76.2539,35.2871,76.7051,34.8535,76.7051,34.1914C76.7051,33.5586,76.2539,33.125,75.6035,33.125C74.959,33.125,74.5254,33.5586,74.5254,34.1914C74.5254,34.8535,74.959,35.2871,75.6035,35.2871ZM83.4492,47.375C85.8457,47.375,87.9727,45.4883,87.9727,42.1484C87.9727,38.7852,85.8457,36.875,83.4492,36.875C81.0586,36.875,78.9316,38.7852,78.9316,42.1484C78.9316,45.4883,81.0586,47.375,83.4492,47.375ZM83.4492,46.0098C81.7617,46.0098,80.625,44.4688,80.625,42.1484C80.625,39.8223,81.7617,38.2637,83.4492,38.2637C85.1426,38.2637,86.2969,39.8223,86.2969,42.1484C86.2969,44.4688,85.1426,46.0098,83.4492,46.0098ZM90.5273,47L92.1855,47L92.1855,39.8281C93.1582,38.8262,93.8379,38.3164,94.8457,38.3164C96.1465,38.3164,96.7031,39.1016,96.7031,40.959L96.7031,47L98.3438,47L98.3438,40.7422C98.3438,38.2285,97.4062,36.875,95.3555,36.875C94.0195,36.875,92.9941,37.6133,92.0742,38.5566L92.0391,38.5566L91.8809,37.25L90.5273,37.25L90.5273,47ZM1.65234,73L3.31055,73L3.31055,66.6484C3.95508,64.9727,4.94531,64.3516,5.75977,64.3516C6.16992,64.3516,6.38672,64.4102,6.70898,64.5156L7.01953,63.25C6.70898,62.9336,6.4043,62.875,5.9707,62.875C4.89258,62.875,3.88477,63.6719,3.19922,64.9199L3.16406,64.9199L3.00586,63.25L1.65234,63.25L1.65234,73ZM12.7383,73.375C14.0508,73.375,15.0996,72.9473,15.9434,72.3906L15.3691,71.2598C14.6309,71.7637,13.875,72.0625,12.9199,72.0625C11.0625,72.0625,9.78516,70.6797,9.67969,68.5L16.2656,68.5C16.3008,68.248,16.3418,67.9258,16.3418,67.5684C16.3418,64.6914,14.9355,62.875,12.4336,62.875C10.2012,62.875,8.05664,64.8613,8.05664,68.125C8.05664,71.4648,10.1309,73.375,12.7383,73.375ZM9.66211,67.334C9.85547,65.3242,11.0801,64.1934,12.4688,64.1934C13.998,64.1934,14.9004,65.2891,14.9004,67.334L9.66211,67.334ZM22.1953,77.5C25.2246,77.5,27.1465,75.9707,27.1465,74.2832C27.1465,72.7305,25.998,72.0273,23.748,72.0273L21.8203,72.0273C20.5078,72.0273,20.1094,71.5469,20.1094,70.8906C20.1094,70.3105,20.3789,69.9648,20.7422,69.6602C21.1699,69.877,21.709,70,22.1777,70C24.1934,70,25.7637,68.6875,25.7637,66.5605C25.7637,65.7051,25.4355,64.9727,24.9727,64.5156L26.9707,64.5156L26.9707,63.25L23.5664,63.25C23.2207,62.9863,22.7402,62.875,22.1777,62.875C20.2148,62.875,18.5273,64.2344,18.5273,66.4668C18.5273,67.6855,19.1543,68.6816,19.8047,69.1914L19.8047,69.2676C19.2832,69.625,18.7207,70.2637,18.7207,71.0488C18.7207,71.7988,19.1016,72.3027,19.6055,72.6016L19.6055,72.6895C18.6855,73.2344,18.1641,74.0488,18.1641,74.8926C18.1641,76.5684,19.8223,77.5,22.1953,77.5ZM22.1777,68.8867C21.0645,68.8867,20.1094,67.9492,20.1094,66.4668C20.1094,64.9668,21.0469,64.082,22.1777,64.082C23.3496,64.082,24.2695,64.9668,24.2695,66.4668C24.2695,67.9492,23.3145,68.8867,22.1777,68.8867ZM22.4297,76.3691C20.6484,76.3691,19.6055,75.7012,19.6055,74.6582C19.6055,74.1016,19.8926,73.5039,20.5957,73C21.0293,73.3398,21.498,73.375,21.8555,73.375L23.5488,73.375C24.8438,73.375,25.5293,73.6797,25.5293,74.5293C25.5293,75.3965,24.3223,76.3691,22.4297,76.3691ZM31.2773,73.375C32.4844,73.375,33.5801,72.748,34.5176,71.9688L34.5703,71.9688L34.7168,73L36.0645,73L36.0645,66.9238C36.0645,64.4629,35.0742,62.875,32.6836,62.875C31.0957,62.875,29.7305,63.5781,28.8457,64.1582L29.4785,65.3008C30.252,64.7734,31.2773,64.2461,32.4141,64.2461C34.0137,64.2461,34.4297,65.4648,34.4297,66.7422C30.2695,67.2109,28.4355,68.2891,28.4355,70.4336C28.4355,72.3672,29.6426,73.375,31.2773,73.375ZM31.7461,72.0449C30.7734,72.0449,30.0176,71.5996,30.0176,70.4512C30.0176,69.1504,31.1367,68.3125,34.4297,67.9258L34.4297,70.7266C33.4746,71.5996,32.6836,72.0449,31.7461,72.0449ZM39.1523,73L40.8105,73L40.8105,66.6484C41.4551,64.9727,42.4453,64.3516,43.2598,64.3516C43.6699,64.3516,43.8867,64.4102,44.209,64.5156L44.5195,63.25C44.209,62.9336,43.9043,62.875,43.4707,62.875C42.3926,62.875,41.3848,63.6719,40.6992,64.9199L40.6641,64.9199L40.5059,63.25L39.1523,63.25L39.1523,73ZM49.6113,73.375C50.7773,73.375,51.8203,72.748,52.5762,71.9922L52.6348,71.9922L52.7754,73L54.1289,73L54.1289,58.5742L52.4707,58.5742L52.4707,62.3359L52.5586,64.0117C51.6973,63.3086,50.959,62.875,49.8047,62.875C47.5723,62.875,45.5742,64.8613,45.5742,68.0664C45.5742,71.5117,47.1621,73.375,49.6113,73.375ZM49.9688,71.9922C48.2578,71.9922,47.2676,70.5625,47.2676,68.1309C47.2676,65.8281,48.5273,64.2637,50.0918,64.2637C50.9062,64.2637,51.6621,64.5625,52.4707,65.3242L52.4707,70.6152C51.6621,71.5469,50.8711,71.9922,49.9688,71.9922ZM57.5273,73L59.1855,73L59.1855,63.25L57.5273,63.25L57.5273,73ZM58.3535,61.2871C59.0039,61.2871,59.4551,60.8535,59.4551,60.1914C59.4551,59.5586,59.0039,59.125,58.3535,59.125C57.709,59.125,57.2754,59.5586,57.2754,60.1914C57.2754,60.8535,57.709,61.2871,58.3535,61.2871ZM62.4023,73L64.0605,73L64.0605,65.8281C65.0332,64.8262,65.7129,64.3164,66.7207,64.3164C68.0215,64.3164,68.5781,65.1016,68.5781,66.959L68.5781,73L70.2188,73L70.2188,66.7422C70.2188,64.2285,69.2812,62.875,67.2305,62.875C65.8945,62.875,64.8691,63.6133,63.9492,64.5566L63.9141,64.5566L63.7559,63.25L62.4023,63.25L62.4023,73ZM76.5703,77.5C79.5996,77.5,81.5215,75.9707,81.5215,74.2832C81.5215,72.7305,80.373,72.0273,78.123,72.0273L76.1953,72.0273C74.8828,72.0273,74.4844,71.5469,74.4844,70.8906C74.4844,70.3105,74.7539,69.9648,75.1172,69.6602C75.5449,69.877,76.084,70,76.5527,70C78.5684,70,80.1387,68.6875,80.1387,66.5605C80.1387,65.7051,79.8105,64.9727,79.3477,64.5156L81.3457,64.5156L81.3457,63.25L77.9414,63.25C77.5957,62.9863,77.1152,62.875,76.5527,62.875C74.5898,62.875,72.9023,64.2344,72.9023,66.4668C72.9023,67.6855,73.5293,68.6816,74.1797,69.1914L74.1797,69.2676C73.6582,69.625,73.0957,70.2637,73.0957,71.0488C73.0957,71.7988,73.4766,72.3027,73.9805,72.6016L73.9805,72.6895C73.0605,73.2344,72.5391,74.0488,72.5391,74.8926C72.5391,76.5684,74.1973,77.5,76.5703,77.5ZM76.5527,68.8867C75.4395,68.8867,74.4844,67.9492,74.4844,66.4668C74.4844,64.9668,75.4219,64.082,76.5527,64.082C77.7246,64.082,78.6445,64.9668,78.6445,66.4668C78.6445,67.9492,77.6895,68.8867,76.5527,68.8867ZM76.8047,76.3691C75.0234,76.3691,73.9805,75.7012,73.9805,74.6582C73.9805,74.1016,74.2676,73.5039,74.9707,73C75.4043,73.3398,75.873,73.375,76.2305,73.375L77.9238,73.375C79.2188,73.375,79.9043,73.6797,79.9043,74.5293C79.9043,75.3965,78.6973,76.3691,76.8047,76.3691ZM5.61328,99.375C6.92578,99.375,7.97461,98.9473,8.81836,98.3906L8.24414,97.2598C7.50586,97.7637,6.75,98.0625,5.79492,98.0625C3.9375,98.0625,2.66016,96.6797,2.55469,94.5L9.14062,94.5C9.17578,94.248,9.2168,93.9258,9.2168,93.5684C9.2168,90.6914,7.81055,88.875,5.30859,88.875C3.07617,88.875,0.931641,90.8613,0.931641,94.125C0.931641,97.4648,3.00586,99.375,5.61328,99.375ZM2.53711,93.334C2.73047,91.3242,3.95508,90.1934,5.34375,90.1934C6.87305,90.1934,7.77539,91.2891,7.77539,93.334L2.53711,93.334ZM11.7773,99L13.4355,99L13.4355,91.8281C14.3145,90.8086,15.1465,90.3164,15.8848,90.3164C17.127,90.3164,17.7012,91.1016,17.7012,92.959L17.7012,99L19.3418,99L19.3418,91.8281C20.2559,90.8086,21.0469,90.3164,21.8027,90.3164C23.0449,90.3164,23.625,91.1016,23.625,92.959L23.625,99L25.2598,99L25.2598,92.7422C25.2598,90.2285,24.3047,88.875,22.3066,88.875C21.1055,88.875,20.0977,89.6543,19.0664,90.7559C18.6738,89.5957,17.8828,88.875,16.3711,88.875C15.1992,88.875,14.1914,89.6133,13.3242,90.5566L13.2891,90.5566L13.1309,89.25L11.7773,89.25L11.7773,99ZM28.2773,103.125L29.9355,103.125L29.9355,99.9316L29.8828,98.2441C30.7617,98.9824,31.6992,99.375,32.5781,99.375C34.8105,99.375,36.8262,97.4355,36.8262,93.9785C36.8262,90.8613,35.4609,88.875,32.9414,88.875C31.8047,88.875,30.709,89.5254,29.8242,90.2637L29.7891,90.2637L29.6309,89.25L28.2773,89.25L28.2773,103.125ZM32.3086,97.9922C31.6641,97.9922,30.7969,97.7344,29.9355,96.9727L29.9355,91.6406C30.873,90.75,31.7168,90.2637,32.5254,90.2637C34.4004,90.2637,35.1211,91.752,35.1211,93.9961C35.1211,96.5156,33.9316,97.9922,32.3086,97.9922ZM41.2559,99.375C41.707,99.375,41.9766,99.3047,42.2109,99.2344L41.9766,97.9746C41.7949,98.0098,41.7246,98.0098,41.6367,98.0098C41.3848,98.0098,41.1855,97.8105,41.1855,97.3066L41.1855,84.8145L39.5273,84.8145L39.5273,97.2012C39.5273,98.584,40.0312,99.375,41.2559,99.375ZM48.5742,99.375C50.9707,99.375,53.0977,97.4883,53.0977,94.1484C53.0977,90.7852,50.9707,88.875,48.5742,88.875C46.1836,88.875,44.0566,90.7852,44.0566,94.1484C44.0566,97.4883,46.1836,99.375,48.5742,99.375ZM48.5742,98.0098C46.8867,98.0098,45.75,96.4688,45.75,94.1484C45.75,91.8223,46.8867,90.2637,48.5742,90.2637C50.2676,90.2637,51.4219,91.8223,51.4219,94.1484C51.4219,96.4688,50.2676,98.0098,48.5742,98.0098ZM55.8164,103.125C57.7617,103.125,58.7871,101.654,59.4668,99.7617L63.1406,89.25L61.541,89.25L59.7773,94.623C59.5254,95.4961,59.2383,96.4805,58.9863,97.3711L58.8926,97.3711C58.5527,96.4629,58.2246,95.4785,57.9199,94.623L55.9395,89.25L54.2285,89.25L58.1543,98.959L57.9375,99.6914C57.5273,100.887,56.8418,101.777,55.7461,101.777C55.4707,101.777,55.1836,101.689,54.9844,101.619L54.6621,102.932C54.9668,103.055,55.3652,103.125,55.8164,103.125ZM65.0273,99L66.6855,99L66.6855,91.8281C67.5645,90.8086,68.3965,90.3164,69.1348,90.3164C70.377,90.3164,70.9512,91.1016,70.9512,92.959L70.9512,99L72.5918,99L72.5918,91.8281C73.5059,90.8086,74.2969,90.3164,75.0527,90.3164C76.2949,90.3164,76.875,91.1016,76.875,92.959L76.875,99L78.5098,99L78.5098,92.7422C78.5098,90.2285,77.5547,88.875,75.5566,88.875C74.3555,88.875,73.3477,89.6543,72.3164,90.7559C71.9238,89.5957,71.1328,88.875,69.6211,88.875C68.4492,88.875,67.4414,89.6133,66.5742,90.5566L66.5391,90.5566L66.3809,89.25L65.0273,89.25L65.0273,99ZM85.4883,99.375C86.8008,99.375,87.8496,98.9473,88.6934,98.3906L88.1191,97.2598C87.3809,97.7637,86.625,98.0625,85.6699,98.0625C83.8125,98.0625,82.5352,96.6797,82.4297,94.5L89.0156,94.5C89.0508,94.248,89.0918,93.9258,89.0918,93.5684C89.0918,90.6914,87.6855,88.875,85.1836,88.875C82.9512,88.875,80.8066,90.8613,80.8066,94.125C80.8066,97.4648,82.8809,99.375,85.4883,99.375ZM82.4121,93.334C82.6055,91.3242,83.8301,90.1934,85.2188,90.1934C86.748,90.1934,87.6504,91.2891,87.6504,93.334L82.4121,93.334ZM91.6523,99L93.3105,99L93.3105,91.8281C94.2832,90.8262,94.9629,90.3164,95.9707,90.3164C97.2715,90.3164,97.8281,91.1016,97.8281,92.959L97.8281,99L99.4688,99L99.4688,92.7422C99.4688,90.2285,98.5312,88.875,96.4805,88.875C95.1445,88.875,94.1191,89.6133,93.1992,90.5566L93.1641,90.5566L93.0059,89.25L91.6523,89.25L91.6523,99ZM105.586,99.375C106.201,99.375,106.846,99.1992,107.408,99.0176L107.08,97.7695C106.758,97.916,106.324,98.0449,105.967,98.0449C104.83,98.0449,104.455,97.3535,104.455,96.1465L104.455,90.5859L107.121,90.5859L107.121,89.25L104.455,89.25L104.455,86.4961L103.084,86.4961L102.908,89.25L101.355,89.3438L101.355,90.5859L102.814,90.5859L102.814,96.0879C102.814,98.0801,103.518,99.375,105.586,99.375ZM115.652,99.375C116.859,99.375,117.955,98.748,118.893,97.9688L118.945,97.9688L119.092,99L120.439,99L120.439,92.9238C120.439,90.4629,119.449,88.875,117.059,88.875C115.471,88.875,114.105,89.5781,113.221,90.1582L113.854,91.3008C114.627,90.7734,115.652,90.2461,116.789,90.2461C118.389,90.2461,118.805,91.4648,118.805,92.7422C114.645,93.2109,112.811,94.2891,112.811,96.4336C112.811,98.3672,114.018,99.375,115.652,99.375ZM116.121,98.0449C115.148,98.0449,114.393,97.5996,114.393,96.4512C114.393,95.1504,115.512,94.3125,118.805,93.9258L118.805,96.7266C117.85,97.5996,117.059,98.0449,116.121,98.0449ZM123.527,99L125.186,99L125.186,91.8281C126.158,90.8262,126.838,90.3164,127.846,90.3164C129.146,90.3164,129.703,91.1016,129.703,92.959L129.703,99L131.344,99L131.344,92.7422C131.344,90.2285,130.406,88.875,128.355,88.875C127.02,88.875,125.994,89.6133,125.074,90.5566L125.039,90.5566L124.881,89.25L123.527,89.25L123.527,99ZM137.736,99.375C138.902,99.375,139.945,98.748,140.701,97.9922L140.76,97.9922L140.9,99L142.254,99L142.254,84.5742L140.596,84.5742L140.596,88.3359L140.684,90.0117C139.822,89.3086,139.084,88.875,137.93,88.875C135.697,88.875,133.699,90.8613,133.699,94.0664C133.699,97.5117,135.287,99.375,137.736,99.375ZM138.094,97.9922C136.383,97.9922,135.393,96.5625,135.393,94.1309C135.393,91.8281,136.652,90.2637,138.217,90.2637C139.031,90.2637,139.787,90.5625,140.596,91.3242L140.596,96.6152C139.787,97.5469,138.996,97.9922,138.094,97.9922ZM1.65234,129.125L3.31055,129.125L3.31055,125.932L3.25781,124.244C4.13672,124.982,5.07422,125.375,5.95312,125.375C8.18555,125.375,10.2012,123.436,10.2012,119.979C10.2012,116.861,8.83594,114.875,6.31641,114.875C5.17969,114.875,4.08398,115.525,3.19922,116.264L3.16406,116.264L3.00586,115.25L1.65234,115.25L1.65234,129.125ZM5.68359,123.992C5.03906,123.992,4.17188,123.734,3.31055,122.973L3.31055,117.641C4.24805,116.75,5.0918,116.264,5.90039,116.264C7.77539,116.264,8.49609,117.752,8.49609,119.996C8.49609,122.516,7.30664,123.992,5.68359,123.992ZM16.8633,125.375C18.1758,125.375,19.2246,124.947,20.0684,124.391L19.4941,123.26C18.7559,123.764,18,124.062,17.0449,124.062C15.1875,124.062,13.9102,122.68,13.8047,120.5L20.3906,120.5C20.4258,120.248,20.4668,119.926,20.4668,119.568C20.4668,116.691,19.0605,114.875,16.5586,114.875C14.3262,114.875,12.1816,116.861,12.1816,120.125C12.1816,123.465,14.2559,125.375,16.8633,125.375ZM13.7871,119.334C13.9805,117.324,15.2051,116.193,16.5938,116.193C18.123,116.193,19.0254,117.289,19.0254,119.334L13.7871,119.334ZM23.0273,125L24.6855,125L24.6855,118.648C25.3301,116.973,26.3203,116.352,27.1348,116.352C27.5449,116.352,27.7617,116.41,28.084,116.516L28.3945,115.25C28.084,114.934,27.7793,114.875,27.3457,114.875C26.2676,114.875,25.2598,115.672,24.5742,116.92L24.5391,116.92L24.3809,115.25L23.0273,115.25L23.0273,125ZM32.707,125.375C35.0156,125.375,36.2578,124.062,36.2578,122.428C36.2578,120.518,34.7051,119.926,33.2871,119.369C32.1855,118.941,31.1777,118.566,31.1777,117.623C31.1777,116.826,31.7578,116.158,33,116.158C33.8613,116.158,34.5469,116.545,35.209,117.049L36.0059,115.994C35.2676,115.385,34.1836,114.875,32.9766,114.875C30.8379,114.875,29.6133,116.1,29.6133,117.693C29.6133,119.422,31.0898,120.09,32.4551,120.611C33.5391,121.016,34.6875,121.502,34.6875,122.521C34.6875,123.395,34.0605,124.098,32.7656,124.098C31.5938,124.098,30.7266,123.617,29.8652,122.891L29.0742,124.027C29.9883,124.801,31.3242,125.375,32.707,125.375ZM42.1992,125.375C44.5957,125.375,46.7227,123.488,46.7227,120.148C46.7227,116.785,44.5957,114.875,42.1992,114.875C39.8086,114.875,37.6816,116.785,37.6816,120.148C37.6816,123.488,39.8086,125.375,42.1992,125.375ZM42.1992,124.01C40.5117,124.01,39.375,122.469,39.375,120.148C39.375,117.822,40.5117,116.264,42.1992,116.264C43.8926,116.264,45.0469,117.822,45.0469,120.148C45.0469,122.469,43.8926,124.01,42.1992,124.01ZM49.2773,125L50.9355,125L50.9355,117.828C51.9082,116.826,52.5879,116.316,53.5957,116.316C54.8965,116.316,55.4531,117.102,55.4531,118.959L55.4531,125L57.0938,125L57.0938,118.742C57.0938,116.229,56.1562,114.875,54.1055,114.875C52.7695,114.875,51.7441,115.613,50.8242,116.557L50.7891,116.557L50.6309,115.25L49.2773,115.25L49.2773,125ZM62.4023,125.375C63.6094,125.375,64.7051,124.748,65.6426,123.969L65.6953,123.969L65.8418,125L67.1895,125L67.1895,118.924C67.1895,116.463,66.1992,114.875,63.8086,114.875C62.2207,114.875,60.8555,115.578,59.9707,116.158L60.6035,117.301C61.377,116.773,62.4023,116.246,63.5391,116.246C65.1387,116.246,65.5547,117.465,65.5547,118.742C61.3945,119.211,59.5605,120.289,59.5605,122.434C59.5605,124.367,60.7676,125.375,62.4023,125.375ZM62.8711,124.045C61.8984,124.045,61.1426,123.6,61.1426,122.451C61.1426,121.15,62.2617,120.312,65.5547,119.926L65.5547,122.727C64.5996,123.6,63.8086,124.045,62.8711,124.045ZM72.0059,125.375C72.457,125.375,72.7266,125.305,72.9609,125.234L72.7266,123.975C72.5449,124.01,72.4746,124.01,72.3867,124.01C72.1348,124.01,71.9355,123.811,71.9355,123.307L71.9355,110.814L70.2773,110.814L70.2773,123.201C70.2773,124.584,70.7812,125.375,72.0059,125.375ZM4.98633,151.375C6.15234,151.375,7.19531,150.748,7.95117,149.992L8.00977,149.992L8.15039,151L9.50391,151L9.50391,136.574L7.8457,136.574L7.8457,140.336L7.93359,142.012C7.07227,141.309,6.33398,140.875,5.17969,140.875C2.94727,140.875,0.949219,142.861,0.949219,146.066C0.949219,149.512,2.53711,151.375,4.98633,151.375ZM5.34375,149.992C3.63281,149.992,2.64258,148.562,2.64258,146.131C2.64258,143.828,3.90234,142.264,5.4668,142.264C6.28125,142.264,7.03711,142.562,7.8457,143.324L7.8457,148.615C7.03711,149.547,6.24609,149.992,5.34375,149.992ZM16.8633,151.375C18.1758,151.375,19.2246,150.947,20.0684,150.391L19.4941,149.26C18.7559,149.764,18,150.062,17.0449,150.062C15.1875,150.062,13.9102,148.68,13.8047,146.5L20.3906,146.5C20.4258,146.248,20.4668,145.926,20.4668,145.568C20.4668,142.691,19.0605,140.875,16.5586,140.875C14.3262,140.875,12.1816,142.861,12.1816,146.125C12.1816,149.465,14.2559,151.375,16.8633,151.375ZM13.7871,145.334C13.9805,143.324,15.2051,142.193,16.5938,142.193C18.123,142.193,19.0254,143.289,19.0254,145.334L13.7871,145.334ZM25.1367,151L27.0586,151L30.5156,141.25L28.8984,141.25L27.041,146.799C26.7539,147.748,26.4316,148.738,26.1445,149.67L26.0508,149.67C25.7637,148.738,25.459,147.748,25.1543,146.799L23.3145,141.25L21.6035,141.25L25.1367,151ZM36.3633,151.375C37.6758,151.375,38.7246,150.947,39.5684,150.391L38.9941,149.26C38.2559,149.764,37.5,150.062,36.5449,150.062C34.6875,150.062,33.4102,148.68,33.3047,146.5L39.8906,146.5C39.9258,146.248,39.9668,145.926,39.9668,145.568C39.9668,142.691,38.5605,140.875,36.0586,140.875C33.8262,140.875,31.6816,142.861,31.6816,146.125C31.6816,149.465,33.7559,151.375,36.3633,151.375ZM33.2871,145.334C33.4805,143.324,34.7051,142.193,36.0938,142.193C37.623,142.193,38.5254,143.289,38.5254,145.334L33.2871,145.334ZM44.2559,151.375C44.707,151.375,44.9766,151.305,45.2109,151.234L44.9766,149.975C44.7949,150.01,44.7246,150.01,44.6367,150.01C44.3848,150.01,44.1855,149.811,44.1855,149.307L44.1855,136.814L42.5273,136.814L42.5273,149.201C42.5273,150.584,43.0312,151.375,44.2559,151.375ZM51.5742,151.375C53.9707,151.375,56.0977,149.488,56.0977,146.148C56.0977,142.785,53.9707,140.875,51.5742,140.875C49.1836,140.875,47.0566,142.785,47.0566,146.148C47.0566,149.488,49.1836,151.375,51.5742,151.375ZM51.5742,150.01C49.8867,150.01,48.75,148.469,48.75,146.148C48.75,143.822,49.8867,142.264,51.5742,142.264C53.2676,142.264,54.4219,143.822,54.4219,146.148C54.4219,148.469,53.2676,150.01,51.5742,150.01ZM58.6523,155.125L60.3105,155.125L60.3105,151.932L60.2578,150.244C61.1367,150.982,62.0742,151.375,62.9531,151.375C65.1855,151.375,67.2012,149.436,67.2012,145.979C67.2012,142.861,65.8359,140.875,63.3164,140.875C62.1797,140.875,61.084,141.525,60.1992,142.264L60.1641,142.264L60.0059,141.25L58.6523,141.25L58.6523,155.125ZM62.6836,149.992C62.0391,149.992,61.1719,149.734,60.3105,148.973L60.3105,143.641C61.248,142.75,62.0918,142.264,62.9004,142.264C64.7754,142.264,65.4961,143.752,65.4961,145.996C65.4961,148.516,64.3066,149.992,62.6836,149.992ZM69.9023,151L71.5605,151L71.5605,143.828C72.4395,142.809,73.2715,142.316,74.0098,142.316C75.252,142.316,75.8262,143.102,75.8262,144.959L75.8262,151L77.4668,151L77.4668,143.828C78.3809,142.809,79.1719,142.316,79.9277,142.316C81.1699,142.316,81.75,143.102,81.75,144.959L81.75,151L83.3848,151L83.3848,144.742C83.3848,142.229,82.4297,140.875,80.4316,140.875C79.2305,140.875,78.2227,141.654,77.1914,142.756C76.7988,141.596,76.0078,140.875,74.4961,140.875C73.3242,140.875,72.3164,141.613,71.4492,142.557L71.4141,142.557L71.2559,141.25L69.9023,141.25L69.9023,151ZM90.3633,151.375C91.6758,151.375,92.7246,150.947,93.5684,150.391L92.9941,149.26C92.2559,149.764,91.5,150.062,90.5449,150.062C88.6875,150.062,87.4102,148.68,87.3047,146.5L93.8906,146.5C93.9258,146.248,93.9668,145.926,93.9668,145.568C93.9668,142.691,92.5605,140.875,90.0586,140.875C87.8262,140.875,85.6816,142.861,85.6816,146.125C85.6816,149.465,87.7559,151.375,90.3633,151.375ZM87.2871,145.334C87.4805,143.324,88.7051,142.193,90.0938,142.193C91.623,142.193,92.5254,143.289,92.5254,145.334L87.2871,145.334ZM96.5273,151L98.1855,151L98.1855,143.828C99.1582,142.826,99.8379,142.316,100.846,142.316C102.146,142.316,102.703,143.102,102.703,144.959L102.703,151L104.344,151L104.344,144.742C104.344,142.229,103.406,140.875,101.355,140.875C100.02,140.875,98.9941,141.613,98.0742,142.557L98.0391,142.557L97.8809,141.25L96.5273,141.25L96.5273,151ZM110.461,151.375C111.076,151.375,111.721,151.199,112.283,151.018L111.955,149.77C111.633,149.916,111.199,150.045,110.842,150.045C109.705,150.045,109.33,149.354,109.33,148.146L109.33,142.586L111.996,142.586L111.996,141.25L109.33,141.25L109.33,138.496L107.959,138.496L107.783,141.25L106.23,141.344L106.23,142.586L107.689,142.586L107.689,148.088C107.689,150.08,108.393,151.375,110.461,151.375Z" fill="#3D3D3D" fill-opacity="1"/></g></svg>