<svg xmlns="http://www.w3.org/2000/svg" xmlns:xlink="http://www.w3.org/1999/xlink" fill="none" version="1.1" width="50" height="50" viewBox="0 0 50 50"><defs><clipPath id="master_svg0_12_15120"><rect x="0" y="0" width="50" height="50" rx="0"/></clipPath></defs><g style="mix-blend-mode:passthrough" transform="matrix(0,1,1,0,0,0)" clip-path="url(#master_svg0_12_15120)"><g style="mix-blend-mode:passthrough"><path d="M23.526843505859375,8.94350698828125C24.340443505859376,8.12991498828125,25.659543505859375,8.12991498828125,26.473143505859376,8.94350698828125C26.473143505859376,8.94350698828125,41.05644350585938,23.52681298828125,41.05644350585938,23.52681298828125C41.87004350585938,24.34041298828125,41.87004350585938,25.65951298828125,41.05644350585938,26.47311298828125C40.24294350585937,27.28671298828125,38.92374350585938,27.28671298828125,38.11024350585937,26.47311298828125C38.11024350585937,26.47311298828125,27.083343505859375,15.44625298828125,27.083343505859375,15.44625298828125C27.083343505859375,15.44625298828125,27.083343505859375,39.58331298828125,27.083343505859375,39.58331298828125C27.083343505859375,40.73391298828125,26.150543505859375,41.66661298828125,25.000043505859374,41.66661298828125C23.849443505859377,41.66661298828125,22.916643505859376,40.73391298828125,22.916643505859376,39.58331298828125C22.916643505859376,39.58331298828125,22.916643505859376,15.44625298828125,22.916643505859376,15.44625298828125C22.916643505859376,15.44625298828125,11.889823505859376,26.47311298828125,11.889823505859376,26.47311298828125C11.076223505859375,27.28671298828125,9.757133505859375,27.28671298828125,8.943537505859375,26.47311298828125C8.129945505859375,25.65951298828125,8.129945505859375,24.34041298828125,8.943537505859375,23.52681298828125C8.943537505859375,23.52681298828125,23.526843505859375,8.94350698828125,23.526843505859375,8.94350698828125C23.526843505859375,8.94350698828125,23.526843505859375,8.94350698828125,23.526843505859375,8.94350698828125Z" fill-rule="evenodd" fill="#000000" fill-opacity="1"/></g></g></svg>