<svg xmlns="http://www.w3.org/2000/svg" xmlns:xlink="http://www.w3.org/1999/xlink" fill="none" version="1.1" width="24" height="25" viewBox="0 0 24 25"><defs><clipPath id="master_svg0_3_1675"><rect x="0" y="1" width="24" height="24" rx="0"/></clipPath></defs><g style="mix-blend-mode:passthrough"><g style="mix-blend-mode:passthrough" clip-path="url(#master_svg0_3_1675)"><g style="mix-blend-mode:passthrough"><path d="M5,5C4.44772,5,4,5.44772,4,6C4,6,4,20,4,20C4,20.5523,4.44771,21,5,21C5,21,19,21,19,21C19.5523,21,20,20.5523,20,20C20,20,20,6,20,6C20,5.44771,19.5523,5,19,5C19,5,5,5,5,5C5,5,5,5,5,5ZM2,6C2,4.34315,3.34315,3,5,3C5,3,19,3,19,3C20.6569,3,22,4.34315,22,6C22,6,22,20,22,20C22,21.6569,20.6569,23,19,23C19,23,5,23,5,23C3.34315,23,2,21.6569,2,20C2,20,2,6,2,6C2,6,2,6,2,6Z" fill-rule="evenodd" fill="#000000" fill-opacity="1"/></g></g></g></svg>